<svg width="202" height="134" viewBox="0 0 202 134" fill="none" xmlns="http://www.w3.org/2000/svg">
<g clip-path="url(#clip0_472_259)">
<path d="M199.5 1.5V132.5H1.5V1.5H199.5Z" fill="url(#paint0_linear_472_259)" stroke="#0E7D70" stroke-width="3"/>
<path d="M185.562 57.8059C185.562 53.3224 176.316 49.1243 159.525 45.985C155.817 45.2918 151.837 44.6679 147.632 44.1165C150.008 41.7859 152.147 39.5081 154.017 37.3069C162.489 27.3376 164.479 20.1015 159.622 16.9313C154.763 13.7607 143.677 15.0601 128.404 20.5895C125.031 21.8105 121.541 23.2063 117.97 24.7568C117.125 22.0124 116.169 19.4148 115.107 16.9946C110.298 6.03543 103.866 0 96.9962 0C90.127 0 83.6949 6.03543 78.8851 16.9946C77.8231 19.4145 76.8677 22.0121 76.0224 24.7565C72.4517 23.206 68.9617 21.8102 65.5892 20.5892C50.3156 15.0598 39.229 13.7605 34.3719 16.931C29.5147 20.1012 31.5051 27.3376 39.9768 37.3066C41.8475 39.5078 43.986 41.7856 46.3615 44.1162C42.1568 44.6676 38.1765 45.2915 34.469 45.9847C17.6782 49.124 8.43164 53.3221 8.43164 57.8056C8.43164 62.2891 17.6786 66.4873 34.469 69.6266C38.1765 70.3197 42.1564 70.9433 46.361 71.495C43.9851 73.8256 41.847 76.1035 39.9763 78.3047C31.5046 88.2736 29.5143 95.51 34.3714 98.6803C36.1112 99.8155 38.6484 100.378 41.8926 100.378C47.7062 100.378 55.7864 98.5712 65.5897 95.0223C68.9622 93.8013 72.4521 92.4055 76.0228 90.855C76.8677 93.5994 77.8236 96.197 78.8856 98.6172C83.6953 109.576 90.1274 115.612 96.9966 115.612C103.866 115.612 110.298 109.576 115.108 98.6172C116.17 96.1973 117.125 93.5994 117.97 90.855C121.541 92.4058 125.031 93.8016 128.404 95.0226C138.208 98.5718 146.287 100.378 152.1 100.378C155.344 100.378 157.882 99.8161 159.621 98.6806C164.479 95.5103 162.488 88.2739 154.017 78.305C152.146 76.1038 150.007 73.8259 147.632 71.4953C151.836 70.9439 155.816 70.3203 159.524 69.6269C176.316 66.4876 185.562 62.2894 185.562 57.8059ZM152.086 15.5196C155.168 15.5196 157.623 16.0427 159.303 17.1393C164.005 20.2085 161.987 27.3196 153.623 37.1636C151.731 39.3902 149.563 41.6954 147.153 44.0546C139.297 43.0387 130.666 42.2748 121.543 41.7847C120.793 35.8306 119.622 30.1966 118.065 25.0692C131.995 18.9949 144.138 15.5196 152.086 15.5196ZM122.078 57.8059C122.078 60.0843 122.018 62.3312 121.905 64.5413C119.581 66.1622 117.188 67.7778 114.732 69.3811C112.275 70.9843 109.8 72.546 107.316 74.0629C103.93 74.1366 100.488 74.1757 96.9971 74.1757C93.5058 74.1757 90.0638 74.1366 86.6773 74.0629C84.1938 72.546 81.7185 70.9846 79.2621 69.3811C76.7941 67.7702 74.4032 66.1543 72.0891 64.5398C71.9762 62.3304 71.9161 60.084 71.9161 57.8059C71.9161 55.5278 71.9762 53.2815 72.0891 51.072C74.4032 49.4576 76.7941 47.8414 79.2621 46.2308C81.7298 44.6202 84.2056 43.0591 86.6786 41.5489C90.0642 41.4753 93.5063 41.4361 96.9966 41.4361C100.487 41.4361 103.929 41.4753 107.315 41.5489C109.788 43.0591 112.263 44.6202 114.731 46.2308C117.199 47.8414 119.59 49.4576 121.904 51.072C122.018 53.2815 122.078 55.5278 122.078 57.8059ZM115.051 46.0221C112.715 44.4973 110.361 43.0104 108 41.5634C112.486 41.6677 116.869 41.8345 121.122 42.0597C121.467 44.8353 121.722 47.6961 121.882 50.6243C119.665 49.083 117.387 47.5469 115.051 46.0221ZM107.499 41.2569C104.123 39.1966 100.731 37.2211 97.3493 35.3435C104.339 31.4795 111.188 28.085 117.659 25.2472C119.16 30.2408 120.326 35.8018 121.082 41.76C116.658 41.5268 112.119 41.3586 107.499 41.2569ZM106.814 41.2427C103.576 41.1761 100.301 41.1414 96.9971 41.1414C93.6928 41.1414 90.4178 41.1761 87.1803 41.2427C90.4661 39.2458 93.746 37.3419 96.9971 35.5386C100.248 37.3419 103.528 39.2458 106.814 41.2427ZM86.4948 41.2569C81.8752 41.3586 77.3368 41.5268 72.9113 41.7597C73.6672 35.8015 74.8335 30.2405 76.3348 25.2469C82.8058 28.085 89.6551 31.4792 96.6444 35.3432C93.2629 37.2211 89.8714 39.1966 86.4948 41.2569ZM85.9941 41.5634C83.633 43.0104 81.2796 44.4973 78.9434 46.0221C76.6071 47.5469 74.3291 49.083 72.1121 50.6243C72.2719 47.6961 72.5275 44.8353 72.8725 42.0597C77.1246 41.8345 81.5076 41.6677 85.9941 41.5634ZM71.642 50.9509C68.4854 53.1548 65.4587 55.3686 62.582 57.5755C56.6619 53.0133 51.462 48.5431 47.1138 44.3195C54.7641 43.3399 63.2841 42.5787 72.4128 42.085C72.0557 44.9735 71.7978 47.9357 71.642 50.9509ZM71.6204 51.3989C71.5183 53.5119 71.465 55.6495 71.465 57.8059C71.465 59.9623 71.5183 62.0999 71.6204 64.213C68.5608 62.0686 65.6425 59.9278 62.8796 57.8059C65.6425 55.684 68.5612 53.5432 71.6204 51.3989ZM71.642 64.6606C71.7978 67.6759 72.0557 70.638 72.4124 73.5265C63.2837 73.0332 54.7641 72.2719 47.1133 71.2923C51.4616 67.0684 56.6615 62.5982 62.5815 58.0361C65.4587 60.2429 68.4854 62.4568 71.642 64.6606ZM72.1116 64.9872C74.3291 66.5282 76.6067 68.0646 78.9429 69.5894C81.2792 71.1143 83.6326 72.6011 85.9936 74.0481C81.5072 73.9438 77.1241 73.777 72.8716 73.5518C72.5271 70.7762 72.2715 67.9155 72.1116 64.9872ZM86.4944 74.3546C89.8723 76.4156 93.2652 78.3919 96.6476 80.2701C89.7531 84.0834 82.9092 87.4856 76.3344 90.3641C74.8335 85.3707 73.6672 79.8101 72.9113 73.8519C77.3364 74.0847 81.8747 74.2533 86.4944 74.3546ZM87.178 74.3688C90.4164 74.4354 93.6923 74.4702 96.9971 74.4702C100.302 74.4702 103.578 74.4354 106.816 74.3688C103.548 76.3558 100.268 78.262 96.9971 80.0771C93.7266 78.262 90.4458 76.356 87.178 74.3688ZM107.499 74.3546C112.119 74.253 116.657 74.0847 121.082 73.8519C120.327 79.8098 119.16 85.3707 117.659 90.3641C111.085 87.4856 104.241 84.0834 97.3461 80.2701C100.729 78.3919 104.122 76.4159 107.499 74.3546ZM108 74.0481C110.361 72.6011 112.715 71.1143 115.051 69.5894C117.387 68.0646 119.665 66.5285 121.882 64.9875C121.722 67.9158 121.467 70.7765 121.122 73.5521C116.87 73.777 112.486 73.9438 108 74.0481ZM122.352 64.6606C125.509 62.4568 128.535 60.2429 131.412 58.0361C137.332 62.5979 142.532 67.0685 146.88 71.292C139.23 72.2716 130.71 73.0329 121.581 73.5265C121.938 70.638 122.196 67.6759 122.352 64.6606ZM122.374 64.2147C122.476 62.1011 122.529 59.9629 122.529 57.8059C122.529 55.6495 122.476 53.5119 122.374 51.3989C125.434 53.5438 128.354 55.6852 131.117 57.8077C128.337 59.9417 125.417 62.0825 122.374 64.2147ZM122.352 50.9509C122.196 47.9357 121.939 44.9735 121.581 42.0853C130.71 42.5787 139.23 43.3399 146.88 44.3195C142.47 48.6109 137.258 53.0778 131.415 57.5778C128.537 55.3701 125.51 53.1556 122.352 50.9509ZM96.9971 0.294713C105.5 0.294713 113.027 10.0503 117.565 24.9345C110.91 27.8415 103.978 31.285 96.9971 35.1484C90.0159 31.285 83.0844 27.8413 76.4297 24.9345C80.9671 10.0503 88.4942 0.294713 96.9971 0.294713ZM34.6911 17.1393C36.3717 16.0424 38.824 15.5193 41.9076 15.5193C49.8559 15.5193 61.9991 18.9949 75.9285 25.0692C74.372 30.1963 73.2012 35.8306 72.4503 41.7847C63.3284 42.2748 54.6964 43.039 46.841 44.0549C33.9253 31.4359 28.6785 21.0637 34.6911 17.1393ZM8.88363 57.8059C8.88363 52.2562 23.8303 47.3433 46.6347 44.3814C51.0886 48.7252 56.3644 53.2491 62.284 57.8059C56.3648 62.3625 51.0886 66.8866 46.6347 71.2304C23.8303 68.2685 8.88363 63.3557 8.88363 57.8059ZM65.3711 94.765C50.2889 100.225 39.3939 101.541 34.6916 98.4722C28.6794 94.5478 33.9258 84.176 46.8419 71.5569C54.6973 72.5728 63.3288 73.3367 72.4512 73.8268C73.2021 79.7806 74.3725 85.4146 75.9294 90.5418C72.3144 92.1149 68.782 93.5299 65.3711 94.765ZM96.9971 115.317C88.4942 115.317 80.9671 105.561 76.4292 90.6773C83.0844 87.7703 90.0155 84.3269 96.9971 80.4632C103.978 84.3266 110.91 87.7703 117.565 90.677C113.027 105.561 105.5 115.317 96.9971 115.317ZM159.303 98.4722C154.601 101.542 143.705 100.225 128.623 94.765C125.212 93.5302 121.68 92.1149 118.065 90.5421C119.622 85.4149 120.792 79.7812 121.543 73.8271C130.665 73.337 139.297 72.5731 147.152 71.5572C160.069 84.176 165.315 94.5478 159.303 98.4722ZM131.711 57.8059C137.63 53.2494 142.906 48.7252 147.36 44.3814C170.164 47.343 185.11 52.2559 185.11 57.8059C185.11 63.356 170.163 68.2685 147.36 71.2301C142.906 66.8863 137.63 62.3625 131.711 57.8059Z" fill="white"/>
<path d="M129.653 91.8349L197 51V102.621L149.348 113L129.653 91.8349Z" fill="white"/>
<path d="M109.64 86.4974L94.5727 84.2797C94.5727 84.2797 91.2601 83.4801 89.1231 85.3887C86.9857 87.2972 79.3169 94.8139 80.2128 96.0847C81.1088 97.3552 88.5888 102.605 88.5888 102.605L100.664 96.1867L109.64 86.4974Z" fill="white"/>
<path d="M81.832 94.4976C87.2464 94.4976 91.6356 91.5466 91.6356 87.9064C91.6356 84.2661 87.2464 81.3151 81.832 81.3151C76.4176 81.3151 72.0283 84.2661 72.0283 87.9064C72.0283 91.5466 76.4176 94.4976 81.832 94.4976Z" fill="#171551"/>
<path d="M83.1285 92.0916C86.5665 92.0916 89.3535 90.2178 89.3535 87.9064C89.3535 85.595 86.5665 83.7212 83.1285 83.7212C79.6906 83.7212 76.9036 85.595 76.9036 87.9064C76.9036 90.2178 79.6906 92.0916 83.1285 92.0916Z" fill="#111144"/>
<path d="M83.1288 89.9202C84.783 89.9202 86.124 89.0186 86.124 87.9064C86.124 86.7942 84.783 85.8926 83.1288 85.8926C81.4746 85.8926 80.1335 86.7942 80.1335 87.9064C80.1335 89.0186 81.4746 89.9202 83.1288 89.9202Z" fill="#0A0A2D"/>
<path d="M84.1005 80.4719C84.1005 80.4719 76.0945 78.604 74.0067 77.6701C71.9188 76.7362 67.3377 74.8933 67.3377 74.8933L58.8337 84.8334C58.8337 84.8334 68.4151 89.9042 69.8463 91.0792L72.0784 91.8234C72.0784 91.8234 79.9331 89.596 84.1005 80.4719Z" fill="white"/>
<path d="M77.8308 78.8885C77.9899 79.3685 78.0833 79.8604 78.096 80.3629C78.2113 85.0356 72.3725 87.8303 66.0046 88.7398C67.7852 89.7439 69.3352 90.6599 69.8459 91.0793L72.0779 91.8234C72.0779 91.8234 79.9327 89.5963 84.1001 80.4722C84.1001 80.4722 80.7594 79.6921 77.8308 78.8885Z" fill="#B6E1F3"/>
<path d="M63.0498 74.2214C63.0498 74.2214 66.3624 73.7902 68.8202 75.8019C71.278 77.8136 72.9876 84.1632 64.3324 85.4066C64.3324 85.4066 57.5043 86.4375 56.425 82.1067L63.0498 74.2214Z" fill="#32287C"/>
<path d="M63.0493 74.2214C63.0493 74.2214 68.7504 75.2081 69.354 78.963C69.9576 82.718 67.2648 84.4441 63.0493 84.6386C58.8337 84.8331 56.4241 82.1067 56.4241 82.1067L63.0493 74.2214Z" fill="#0A0A2D"/>
<path d="M65.2908 81.8538C67.9522 79.9419 67.8045 76.9414 64.9607 75.152C62.1169 73.3626 57.6541 73.462 54.9926 75.3739C52.3311 77.2859 52.4789 80.2864 55.3227 82.0757C58.1664 83.8651 62.6293 83.7658 65.2908 81.8538Z" fill="#171551"/>
<path d="M63.1231 81.6535C61.058 82.5686 58.2811 82.1848 56.92 80.7967C55.559 79.4084 56.1297 77.5413 58.1943 76.6263C60.2594 75.7112 63.0363 76.0949 64.3974 77.483C65.7584 78.8711 65.1877 80.7384 63.1231 81.6535Z" fill="#111144"/>
<path d="M61.8445 80.3494C60.8508 80.7897 59.5147 80.6052 58.8598 79.9371C58.2049 79.269 58.4793 78.3707 59.4731 77.9304C60.4668 77.4901 61.8029 77.6746 62.4578 78.3427C63.1122 79.0105 62.8378 79.9091 61.8445 80.3494Z" fill="#0A0A2D"/>
<path d="M63.2629 72.2816C63.2629 72.2816 47.6898 62.8702 39.3406 69.1205C30.9918 75.3708 50.8296 82.0522 52.5046 82.0522C52.5046 82.0522 53.2519 82.6988 53.9831 79.5377C54.7143 76.3769 65.5993 73.5415 63.2629 72.2816Z" fill="white"/>
<path d="M63.2632 72.2816C63.2632 72.2816 58.8104 69.5911 53.3903 68.0427C53.6454 68.1862 53.8992 68.331 54.1416 68.4839C56.0743 69.7034 57.52 71.3638 56.9207 73.1981C56.265 75.2042 53.9159 76.4972 51.1709 77.2145C48.2274 77.9837 44.7825 78.2448 41.7175 77.6583C45.8906 80.2574 51.6365 82.0525 52.5048 82.0525C52.5048 82.0525 53.2522 82.6991 53.9834 79.538C54.7145 76.3769 65.5996 73.5415 63.2632 72.2816Z" fill="#B6E1F3"/>
<path d="M48.3931 80.9568C48.3659 80.9568 48.3387 80.9524 48.3133 80.9429C45.9515 80.0617 38.1726 76.8921 37.2279 73.1074C36.8694 71.6698 37.5387 70.3038 39.218 69.0465C42.2895 66.7472 46.6428 66.26 52.1576 67.5974C52.2431 67.6181 52.2869 67.6814 52.2562 67.7389C52.2256 67.7964 52.1309 67.8255 52.0458 67.8052C46.6686 66.5011 42.4351 66.9682 39.4622 69.1939C37.8535 70.3984 37.2104 71.7025 37.5519 73.0705C38.472 76.758 46.143 79.8799 48.4724 80.7493C48.5518 80.7791 48.5803 80.8463 48.5364 80.8996C48.5071 80.9364 48.4509 80.9568 48.3931 80.9568Z" fill="#32287C"/>
<path d="M77.8359 103.526C77.8359 103.526 81.5303 100.455 90.9386 101.148C90.9386 101.148 96.7892 86.4599 113.864 85.4806C130.94 84.5013 141.434 93.5896 141.434 93.5896C141.434 93.5896 153.35 92.5186 158.153 97.957C158.393 98.229 158.624 98.514 158.846 98.8105C164.8 106.768 159.241 116.447 147.067 119.963C142.85 121.181 140.376 121.938 136.987 121.792C131.213 121.545 116.532 124.69 112.975 126.001C112.975 126.001 103.925 128.178 102.286 127.121C102.286 127.121 90.985 129.999 89.7962 129.014C89.7962 129.014 85.2488 130.529 83.4599 129.219C83.4599 129.219 77.3678 127.13 81.8363 124.352C86.3039 121.575 77.8359 103.526 77.8359 103.526Z" fill="white"/>
<path d="M137.815 121.959C137.54 121.959 137.26 121.953 136.973 121.94C136.852 121.935 136.761 121.865 136.768 121.784C136.776 121.703 136.861 121.639 137.001 121.646C140.213 121.785 142.596 121.096 146.536 119.957L146.981 119.828C152.847 118.134 157.464 114.853 159.646 110.826C161.798 106.856 161.445 102.612 158.65 98.8768C158.427 98.5788 158.196 98.2947 157.965 98.0328C153.29 92.7382 141.58 93.7252 141.463 93.7358C141.344 93.7485 141.233 93.6902 141.217 93.6094C141.201 93.5289 141.285 93.4547 141.405 93.4441C141.526 93.4326 153.522 92.4229 158.342 97.8824C158.579 98.1503 158.814 98.4403 159.042 98.7448C161.892 102.553 162.252 106.88 160.058 110.927C157.834 115.03 153.131 118.373 147.155 120.099L146.71 120.227C143.055 121.284 140.723 121.958 137.815 121.959Z" fill="#32287C"/>
<path d="M78.8218 110.041C78.8218 110.041 106.212 111.586 108.26 115.683C110.307 119.779 109.32 127.411 101.251 125.399C101.251 125.399 98.6789 123.91 96.3114 125.731C93.9434 127.552 91.5961 129.075 88.7679 127.118L86.4481 126.155C86.4481 126.155 85.7827 129.591 83.4599 128.033C81.1371 126.476 79.8668 126.176 81.8363 124.353L78.8218 110.041Z" fill="#0A0A2D"/>
<path d="M93.0251 100.544C93.0251 100.544 98.2647 103.755 106.869 101.896C115.474 100.038 130.301 94.541 132.518 92.4913C134.736 90.4415 134.597 90.1621 131.548 89.044C128.5 87.9259 113.95 83.9198 105.358 89.044C96.7664 94.1682 92.3321 99.374 93.0251 100.544Z" fill="#B6E1F3"/>
<path d="M153.726 96.1864C153.726 96.1864 148.331 93.5295 141.409 94.1455C134.487 94.7614 110.056 99.8517 112.601 104.493C115.146 109.134 128.484 112.112 134.031 110.041C139.577 107.97 164.924 103.018 153.726 96.1864Z" fill="#B6E1F3"/>
<path d="M90.9385 101.295C90.9171 101.295 90.8947 101.293 90.8737 101.289C90.7579 101.265 90.6935 101.182 90.7294 101.104C90.7978 100.957 97.7255 86.3494 112.393 85.3462C131.458 84.0403 141.514 93.4102 141.613 93.5051C141.682 93.5717 141.659 93.6633 141.56 93.7102C141.461 93.7576 141.324 93.7411 141.255 93.6748C141.157 93.5817 131.243 84.3595 112.438 85.6392C98.0582 86.6226 91.2156 101.046 91.1485 101.191C91.1187 101.255 91.0319 101.295 90.9385 101.295Z" fill="#32287C"/>
<path d="M112.234 92.17H81.7588C81.1687 92.17 80.6855 91.8547 80.6855 91.4695V91.0858C80.6855 90.7006 81.1687 90.3853 81.7588 90.3853H112.234C112.824 90.3853 113.308 90.7006 113.308 91.0858V91.4695C113.308 91.8547 112.825 92.17 112.234 92.17Z" fill="#0A0A2D"/>
<path d="M112.234 97.6072H81.7588C81.1687 97.6072 80.6855 97.2919 80.6855 96.9067V96.5227C80.6855 96.1375 81.1687 95.8221 81.7588 95.8221H112.234C112.824 95.8221 113.308 96.1375 113.308 96.5227V96.9067C113.308 97.2919 112.825 97.6072 112.234 97.6072Z" fill="#0A0A2D"/>
<path opacity="0.58" d="M134.743 57.5283C135.791 55.1933 136.356 52.723 136.356 50.1667C136.356 35.7349 118.431 24.0353 96.32 24.0353C74.2087 24.0353 56.2837 35.7349 56.2837 50.1667C56.2837 52.723 56.8486 55.193 57.897 57.5283C60.9566 63.2935 65.6427 68.2845 72.1691 74.1923C78.6952 80.1004 79.922 87.9091 79.922 87.9091H96.32H112.338C112.338 87.9091 113.944 80.1004 120.471 74.1923C126.997 68.2845 131.486 64.1107 134.743 57.5283Z" fill="white"/>
<path d="M112.801 91.1501H80.4123C78.9516 91.1501 77.7563 90.3699 77.7563 89.4166V88.4667C77.7563 87.5133 78.9516 86.7332 80.4123 86.7332H112.801C114.262 86.7332 115.457 87.5133 115.457 88.4667V89.4166C115.457 90.3699 114.262 91.1501 112.801 91.1501Z" fill="#111144"/>
<path d="M112.801 96.5872H80.4123C78.9516 96.5872 77.7563 95.8071 77.7563 94.8537V93.9038C77.7563 92.9504 78.9516 92.1703 80.4123 92.1703H112.801C114.262 92.1703 115.457 92.9504 115.457 93.9038V94.8537C115.457 95.8071 114.262 96.5872 112.801 96.5872Z" fill="#111144"/>
<path d="M112.801 102.024H80.4123C78.9516 102.024 77.7563 101.244 77.7563 100.291V99.341C77.7563 98.3876 78.9516 97.6075 80.4123 97.6075H112.801C114.262 97.6075 115.457 98.3876 115.457 99.341V100.291C115.457 101.244 114.262 102.024 112.801 102.024Z" fill="#111144"/>
<path d="M117.524 58.6244C125.141 58.6244 131.315 54.5944 131.315 49.6232C131.315 44.652 125.141 40.6221 117.524 40.6221C109.908 40.6221 103.734 44.652 103.734 49.6232C103.734 54.5944 109.908 58.6244 117.524 58.6244Z" fill="#95C134"/>
<path d="M81.3501 49.7325C86.3258 47.706 87.8425 43.4305 84.7376 40.1829C81.6328 36.9353 75.0822 35.9454 70.1065 37.9719C65.1308 39.9984 63.6141 44.2739 66.719 47.5215C69.8238 50.7691 76.3744 51.759 81.3501 49.7325Z" fill="#95C134"/>
<path d="M96.3426 41.5522C102.207 41.5522 106.962 38.4491 106.962 34.6212C106.962 30.7932 102.207 27.6901 96.3426 27.6901C90.4778 27.6901 85.7234 30.7932 85.7234 34.6212C85.7234 38.4491 90.4778 41.5522 96.3426 41.5522Z" fill="#95C134"/>
<path d="M77.756 67.4413C82.5318 67.4413 86.4033 64.9143 86.4033 61.7972C86.4033 58.6801 82.5318 56.1532 77.756 56.1532C72.9802 56.1532 69.1086 58.6801 69.1086 61.7972C69.1086 64.9143 72.9802 67.4413 77.756 67.4413Z" fill="#95C134"/>
<path d="M106.906 58.6243C106.906 58.6243 110.429 57.7747 112.239 59.95C112.239 59.95 109.287 60.4678 106.906 58.6243Z" fill="#95C134"/>
<path d="M101.003 59.6394C101.003 59.6394 99.575 57.3388 101.479 55.9723C101.479 55.9723 103.003 57.775 101.003 59.6394Z" fill="#95C134"/>
<path d="M86.818 51.4734C86.818 51.4734 85.4534 50.3335 86.7299 48.6097C86.7299 48.6097 88.2223 49.9442 86.818 51.4734Z" fill="#95C134"/>
<path d="M86.7333 53.7056C86.7333 53.7056 83.6164 52.2709 80.6453 53.2479C80.6453 53.2479 83.1459 54.7722 86.7333 53.7056Z" fill="#95C134"/>
<path d="M90.3397 67.0968C90.3397 67.0968 87.6409 65.9162 88.562 63.3059C88.562 63.3059 90.435 64.1759 90.3397 67.0968Z" fill="#95C134"/>
<path d="M91.1967 69.2717C91.1967 69.2717 87.8896 68.153 85.6392 69.8311C85.6392 69.8311 88.8162 70.9498 91.1967 69.2717Z" fill="#95C134"/>
<path d="M97.2905 47.0091C97.2905 47.0091 97.5 44.4168 100.49 43.5144C100.49 43.5144 100.052 46.3725 97.2905 47.0091Z" fill="#95C134"/>
<path d="M95.2192 51.276C95.2192 51.276 95.2192 48.8761 92.5118 48.6097C92.5118 48.6097 92.3388 50.2987 95.2192 51.276Z" fill="#95C134"/>
<path d="M97.2905 70.1963C97.2905 70.1963 98.1426 67.1631 102.035 67.0968C102.035 67.0968 100.667 69.8526 97.2905 70.1963Z" fill="#95C134"/>
<path d="M128.616 51.3747L120.416 52.1477L125.673 47.9277C125.761 47.8573 125.744 47.7541 125.636 47.6969C125.529 47.6401 125.37 47.6498 125.283 47.7205L119.681 52.2167L112.578 52.8862L119.546 47.719C119.638 47.651 119.628 47.5472 119.523 47.4874C119.42 47.4276 119.261 47.4344 119.169 47.5021L115.708 50.0688V43.5141C115.708 43.4233 115.595 43.3499 115.456 43.3499C115.317 43.3499 115.205 43.4233 115.205 43.5141V50.4416L96.5705 64.2613V39.6719L103.907 35.0599C104.008 34.9969 104.01 34.8931 103.914 34.828C103.818 34.7626 103.659 34.7611 103.559 34.8236L96.5705 39.2163V33.981L98.6182 32.6406L104.401 31.9168C104.538 31.8997 104.627 31.814 104.601 31.7247C104.575 31.6357 104.441 31.5779 104.307 31.5944L99.249 32.2275L102.024 30.4111C102.121 30.3472 102.121 30.2431 102.023 30.1792C101.925 30.1155 101.765 30.1152 101.667 30.1795L96.1406 33.7971C96.1357 33.8003 96.1339 33.8045 96.1298 33.808C96.1131 33.821 96.0973 33.8342 96.0869 33.8501C96.0743 33.8702 96.0679 33.8914 96.0675 33.9126C96.0675 33.9129 96.0675 33.9132 96.0675 33.9132V37.5912L92.7474 35.7157L91.9946 31.2947C91.9793 31.2042 91.8587 31.14 91.717 31.1497C91.5792 31.1597 91.4799 31.2408 91.4953 31.3309L92.1884 35.3997L88.181 33.1361C88.0762 33.0768 87.9173 33.0842 87.8265 33.1529C87.7358 33.2212 87.7471 33.325 87.8523 33.3842L92.3414 35.9202C92.3419 35.9205 92.3423 35.9208 92.3428 35.9211L96.068 38.0253V59.5441L80.6078 47.4226L81.5032 40.6294C81.5154 40.539 81.4125 40.4597 81.2743 40.452C81.1294 40.4408 81.0142 40.5112 81.0025 40.6014L80.1509 47.0642L73.5061 41.8546C73.4171 41.785 73.2587 41.775 73.1521 41.8333C73.0451 41.8914 73.0306 41.9948 73.1196 42.0644L76.2731 44.5367L70.2031 44.395C70.0686 44.3906 69.948 44.4625 69.943 44.5529C69.9381 44.6437 70.0464 44.7195 70.1851 44.7227L76.7043 44.8748L96.0661 60.0546C96.0666 60.0549 96.0675 60.0551 96.068 60.0554V70.5466L81.5055 63.3518L81.1867 61.3047L83.1301 58.6953C83.1906 58.6137 83.1387 58.5156 83.0141 58.4761C82.8881 58.4363 82.7391 58.4705 82.6781 58.5518L81.0901 60.6838L80.6458 57.8304C80.6318 57.7405 80.5166 57.6774 80.3703 57.6839C80.2326 57.693 80.1319 57.7735 80.1459 57.8637L80.9582 63.0813L79.6099 62.4152C79.609 62.4146 79.6077 62.4143 79.6068 62.4137L75.1095 60.1919C74.9984 60.1368 74.8408 60.1512 74.7578 60.2237C74.6738 60.2959 74.6954 60.3988 74.8065 60.4533L78.7213 62.3875L71.723 62.5452C71.5839 62.5481 71.4755 62.6242 71.4805 62.7146C71.485 62.8033 71.5966 62.8732 71.7316 62.8732C71.7347 62.8732 71.7374 62.8732 71.7406 62.8729L79.3571 62.7014L96.0689 70.9581V86.7323C96.0689 86.8231 96.1813 86.8961 96.3204 86.8961C96.4594 86.8961 96.5719 86.8228 96.5719 86.7323V64.7576L112.068 53.2658L128.688 51.6991C128.825 51.6862 128.921 51.6031 128.901 51.5135C128.881 51.4236 128.75 51.3599 128.616 51.3747Z" fill="#32287C"/>
<path opacity="0.21" d="M69.2108 33.9292C63.0622 38.3961 59.3343 44.3797 59.794 50.3768C59.9972 53.0269 61.1048 55.7757 63.94 57.6772C66.7752 59.5787 71.6463 60.3381 75.0292 58.8666C77.8491 57.64 78.9526 55.2891 79.3337 53.0914C79.9934 49.2896 79.1071 45.3814 80.4422 41.656C81.7833 37.9146 85.4213 34.546 90.3697 32.4645C92.2454 31.6755 94.4231 30.9794 95.3772 29.6629C96.4008 28.2512 95.2774 25.8458 92.8789 25.2746C90.6049 24.7332 86.8369 26.1443 84.7896 26.7285C78.9197 28.4039 73.5035 30.8105 69.2108 33.9292Z" fill="white"/>
<path d="M3.19072 106.853C3.19072 106.853 1.4174 103.349 8.68538 101.113C15.953 98.8771 21.8589 101.739 22.2446 102.175C22.6304 102.61 28.2517 109.024 25.8602 110.59C23.4688 112.156 15.474 110.367 12.0122 108.922C11.0743 108.531 4.13025 107.843 3.19072 106.853Z" fill="white"/>
<path d="M22.2444 102.175C21.8586 101.739 15.9527 98.8772 8.68511 101.113C7.66659 101.426 6.83155 101.765 6.13818 102.115C7.18303 101.929 8.24795 101.8 9.3162 101.747C11.2709 101.652 13.463 101.826 14.9642 102.773C16.4015 103.68 17.0535 105.243 16.3961 106.513C15.7888 107.686 14.3724 108.566 12.6656 109.179C16.3919 110.565 23.6081 112.065 25.8595 110.59C28.2514 109.024 22.6301 102.61 22.2444 102.175Z" fill="#B6E1F3"/>
<path d="M88.2636 123.988C88.9168 125.238 87.9648 126.613 86.1375 127.06C84.3103 127.507 82.2992 126.856 81.6459 125.606C80.9927 124.356 81.9448 122.98 83.772 122.533C85.5996 122.086 87.6104 122.737 88.2636 123.988Z" fill="#171551"/>
<path d="M87.4929 124.176C87.9075 124.969 87.3032 125.843 86.143 126.127C84.9828 126.41 83.706 125.997 83.2914 125.203C82.8768 124.409 83.4811 123.536 84.6413 123.252C85.8015 122.969 87.0783 123.382 87.4929 124.176Z" fill="#111144"/>
<path d="M86.4032 124.442C86.6026 124.824 86.3121 125.244 85.7537 125.381C85.1954 125.518 84.581 125.319 84.3816 124.937C84.1819 124.555 84.4727 124.134 85.0311 123.998C85.5895 123.862 86.2039 124.061 86.4032 124.442Z" fill="#0A0A2D"/>
<path d="M27.5381 109.357C27.5381 109.357 28.5854 112.145 31.9536 112.077L38.0819 109.594L32.0105 105.296L27.5381 109.357Z" fill="#38318C"/>
<path d="M39.9601 105.848C40.8586 107.428 39.7143 109.208 37.4044 109.822C35.0944 110.437 32.4932 109.655 31.5946 108.074C30.696 106.494 31.8403 104.714 34.1503 104.1C36.4607 103.485 39.0615 104.268 39.9601 105.848Z" fill="#171551"/>
<path d="M36.3307 108.763C37.9045 108.763 39.1802 107.89 39.1802 106.814C39.1802 105.737 37.9045 104.864 36.3307 104.864C34.757 104.864 33.4812 105.737 33.4812 106.814C33.4812 107.89 34.757 108.763 36.3307 108.763Z" fill="#111144"/>
<path d="M37.6086 106.474C37.8832 106.957 37.5338 107.5 36.8279 107.688C36.122 107.876 35.3275 107.637 35.0529 107.154C34.7783 106.671 35.1277 106.128 35.8336 105.94C36.5395 105.752 37.334 105.991 37.6086 106.474Z" fill="#0A0A2D"/>
<path d="M49.6289 123.623C49.6289 123.623 50.2124 126.294 53.7017 126.23C57.1915 126.166 68.2778 124.315 77.1231 126.231C77.1231 126.231 82.0979 127.7 83.2388 126.805C84.3798 125.91 82.5191 123.123 80.9736 122.887C79.4281 122.651 59.2269 118.049 59.2269 118.049L49.6289 123.623Z" fill="white"/>
<path d="M80.9743 122.887C79.4287 122.651 59.228 118.049 59.228 118.049L55.011 120.671C58.5493 121.043 62.3145 121.309 65.4959 122.359C67.6127 123.058 69.1553 124.221 70.6219 125.433C72.8278 125.539 75.0383 125.779 77.1238 126.231C77.1238 126.231 82.0985 127.7 83.2395 126.805C84.3809 125.91 82.5198 123.123 80.9743 122.887Z" fill="#B6E1F3"/>
<path d="M14.478 97.1232C14.478 97.1232 16.8523 93.5847 24.738 95.4989C32.6237 97.4132 34.0652 102.518 33.8959 103.04C33.7263 103.562 31.1827 111.219 27.7058 111.219C24.2294 111.219 21.0932 106.342 18.9721 103.075C18.5036 102.354 14.1386 98.3412 14.478 97.1232Z" fill="white"/>
<path d="M24.7376 95.4989C18.8129 94.0608 15.9997 95.7002 14.9666 96.6046C17.3797 96.4084 19.8627 96.6595 22.1372 97.2562C26.9326 98.5145 30.2728 101.21 30.0546 104.823C29.9205 107.046 28.6834 109.261 26.7508 111.099C27.0655 111.177 27.3836 111.219 27.705 111.219C31.1814 111.219 33.7254 103.562 33.8951 103.04C34.0652 102.518 32.6237 97.4131 24.7376 95.4989Z" fill="#B6E1F3"/>
<path d="M24.4358 109.995C24.3923 109.995 24.3488 109.983 24.3179 109.958C22.1851 108.289 20.2772 105.35 18.8842 103.204L18.8287 103.119C18.705 102.928 18.2832 102.482 17.7495 101.919C16.283 100.37 14.0662 98.0285 14.3241 97.103C14.3596 97.0421 16.8623 93.4732 24.7906 95.3977C24.8721 95.4175 24.9147 95.4789 24.8859 95.5344C24.857 95.5905 24.768 95.6193 24.6857 95.5999C17.024 93.7397 14.6434 97.133 14.6204 97.1676C14.3977 97.9839 16.6608 100.374 18.0128 101.802C18.5541 102.374 18.9816 102.826 19.1154 103.031L19.171 103.117C20.556 105.25 22.453 108.172 24.554 109.817C24.6109 109.862 24.6046 109.929 24.539 109.968C24.5093 109.986 24.4725 109.995 24.4358 109.995Z" fill="#32287C"/>
<path d="M45.9819 122.315C45.9819 122.315 49.333 124.374 52.524 123.516C55.7153 122.658 57.4527 121.371 57.4527 121.371L48.7153 119.818L45.9819 122.315Z" fill="#38318C"/>
<path d="M58.8825 117.332C59.911 119.301 58.4119 121.468 55.5339 122.172C52.656 122.875 49.4889 121.85 48.4603 119.881C47.4317 117.912 48.9309 115.746 51.8088 115.042C54.6868 114.338 57.8539 115.363 58.8825 117.332Z" fill="#171551"/>
<path d="M57.6694 117.629C58.3226 118.879 57.3705 120.255 55.5433 120.702C53.7161 121.148 51.7049 120.497 51.0517 119.247C50.3984 117.997 51.3505 116.621 53.1777 116.175C55.0054 115.727 57.0161 116.379 57.6694 117.629Z" fill="#111144"/>
<path d="M55.9531 118.049C56.2674 118.65 55.8093 119.312 54.93 119.527C54.0506 119.742 53.0831 119.429 52.7688 118.827C52.4545 118.226 52.9126 117.564 53.7919 117.349C54.6712 117.134 55.6388 117.447 55.9531 118.049Z" fill="#0A0A2D"/>
<path d="M28.9219 111.737C28.9219 111.737 36.8114 106.519 41.1947 106.719C41.1947 106.719 45.2128 107.919 48.7193 111.967C52.2258 116.015 48.3541 127.059 43.6058 123.461C38.8572 119.863 28.4108 112.806 28.9219 111.737Z" fill="white"/>
<path d="M48.7193 111.967C45.2127 107.919 41.1951 106.719 41.1951 106.719C39.884 106.659 38.259 107.086 36.6257 107.711C39.9847 110.126 44.1499 112.034 46.0749 115.229C47.8909 118.244 47.0149 121.355 44.842 124.085C48.9817 125.156 51.9152 115.656 48.7193 111.967Z" fill="#B6E1F3"/>
<path d="M45.7036 100.824C45.7036 100.824 45.2255 103.549 48.253 104.285L54.953 103.528L51.7299 98.2732L45.7036 100.824Z" fill="#38318C"/>
<path d="M54.2349 103.57C56.5981 103.57 58.5138 102.26 58.5138 100.643C58.5138 99.0265 56.5981 97.716 54.2349 97.716C51.8718 97.716 49.9561 99.0265 49.9561 100.643C49.9561 102.26 51.8718 103.57 54.2349 103.57Z" fill="#171551"/>
<path d="M54.8015 102.502C56.3021 102.502 57.5185 101.67 57.5185 100.643C57.5185 99.6166 56.3021 98.7844 54.8015 98.7844C53.3009 98.7844 52.0845 99.6166 52.0845 100.643C52.0845 101.67 53.3009 102.502 54.8015 102.502Z" fill="#111144"/>
<path d="M54.8012 101.537C55.5232 101.537 56.1085 101.137 56.1085 100.643C56.1085 100.149 55.5232 99.7488 54.8012 99.7488C54.0792 99.7488 53.4939 100.149 53.4939 100.643C53.4939 101.137 54.0792 101.537 54.8012 101.537Z" fill="#0A0A2D"/>
<path d="M44.333 94.4456C44.5415 93.9696 44.8132 93.5064 45.089 93.0467C45.3197 92.6615 45.6662 91.8126 45.6662 90.1835C45.6662 87.7398 45.7636 85.2743 49.757 85.6074C53.7504 85.9405 57.3543 89.3624 58.1338 91.7495C58.9128 94.1366 59.1076 97.6682 54.3351 99.4008C54.3351 99.4008 44.9841 103.532 44.2051 101.067C43.5159 98.8859 43.1323 97.1873 44.333 94.4456Z" fill="white"/>
<path d="M58.1344 91.7498C57.355 89.3627 53.7511 85.9408 49.7577 85.6077C49.5048 85.5866 49.2678 85.5772 49.0455 85.5777C52.379 88.854 55.7409 93.1439 52.8095 96.9795C51.1268 99.181 47.9973 100.536 44.7349 101.642C46.8877 102.69 54.3358 99.4012 54.3358 99.4012C59.1083 97.6685 58.9135 94.1369 58.1344 91.7498Z" fill="#B6E1F3"/>
<path d="M43.6487 96.7633C43.6428 96.7633 43.637 96.763 43.6307 96.7627C43.545 96.7561 43.4827 96.703 43.4928 96.6441C43.6085 95.9404 43.8342 95.2113 44.1832 94.4151C44.3938 93.9339 44.6634 93.4741 44.9447 93.0061C45.1557 92.6541 45.5097 91.819 45.5097 90.1835C45.5097 88.6813 45.5097 86.812 46.9119 85.9625C47.5957 85.5482 48.5331 85.3967 49.7765 85.5014C53.9028 85.8453 57.5142 89.3589 58.2874 91.726C58.3062 91.7838 58.2527 91.8413 58.1683 91.8541C58.086 91.8667 58.0003 91.831 57.9811 91.7729C57.2284 89.467 53.7285 86.0469 49.7385 85.7141C48.5887 85.6183 47.7324 85.7518 47.1201 86.1232C45.8232 86.9086 45.8232 88.7245 45.8232 90.1835C45.8232 91.8555 45.4542 92.7207 45.2343 93.0876C44.9564 93.5502 44.6897 94.0048 44.4833 94.4763C44.1397 95.2602 43.9174 95.977 43.8037 96.6678C43.7954 96.7227 43.7276 96.7633 43.6487 96.7633Z" fill="#32287C"/>
<path d="M72.0971 118.087C73.5653 116.636 73.5494 114.731 71.8714 113.543C70.7889 113.563 69.5899 113.709 68.6971 114.16C66.8452 115.097 62.0795 119.053 61.0024 119.956C64.6949 120.758 69.7186 120.438 72.0971 118.087Z" fill="#0A0A2D"/>
<path d="M58.6267 119.194C58.6267 119.194 61.9778 121.253 65.1687 120.395C68.3601 119.537 70.0975 118.25 70.0975 118.25L61.36 116.697L58.6267 119.194Z" fill="#38318C"/>
<path d="M71.5273 114.211C72.5558 116.18 71.0567 118.347 68.1787 119.05C65.3008 119.754 62.1336 118.729 61.1051 116.76C60.0765 114.791 61.5757 112.624 64.4536 111.921C67.3316 111.217 70.4987 112.243 71.5273 114.211Z" fill="#171551"/>
<path d="M70.3268 116.105C70.958 114.85 69.9822 113.482 68.1473 113.05C66.3123 112.618 64.3131 113.286 63.6818 114.541C63.0505 115.796 64.0263 117.164 65.8613 117.596C67.6963 118.028 69.6955 117.36 70.3268 116.105Z" fill="#111144"/>
<path d="M68.5978 114.928C68.9121 115.529 68.4541 116.191 67.5747 116.406C66.6954 116.621 65.7278 116.308 65.4136 115.706C65.0993 115.105 65.5573 114.443 66.4367 114.228C67.316 114.013 68.2836 114.326 68.5978 114.928Z" fill="#0A0A2D"/>
<path d="M61.2107 103.171C61.2107 103.171 59.8959 102.441 58.0695 102.681C56.2431 102.921 46.2351 103.621 46.1619 104.021C46.0888 104.42 47.6231 106.52 48.8648 108.019C50.1065 109.518 52.4444 112.716 54.4167 115.715C56.389 118.713 56.4621 119.413 58.2885 119.463C60.1149 119.513 62.964 117.064 64.7904 113.566C66.6168 110.068 65.0094 106.669 61.2107 103.171Z" fill="white"/>
<path d="M61.211 103.171C61.211 103.171 59.8961 102.441 58.0697 102.681C57.7421 102.724 57.1486 102.782 56.3997 102.85C56.7039 105.983 60.2949 108.523 60.5866 111.72C60.8273 114.357 59.2567 116.999 56.8761 119.108C57.2389 119.347 57.6589 119.446 58.2888 119.463C60.1152 119.513 62.9643 117.064 64.7907 113.566C66.6171 110.068 65.0097 106.669 61.211 103.171Z" fill="#B6E1F3"/>
<path d="M91.9538 120.605C90.7259 119.934 74.5717 113.718 74.5717 113.718C74.5717 113.718 73.3266 113.517 71.8705 113.543C73.5481 114.731 73.5644 116.636 72.0962 118.087C69.7177 120.438 64.5227 120.605 60.78 120.142C60.8365 120.095 60.752 120.165 60.78 120.142C60.78 120.142 62.2955 122.046 66.3157 121.898C70.3358 121.751 82.6534 123.323 84.7874 123.814C86.921 124.305 91.4443 125.877 92.8085 124.993C94.1722 124.109 93.1817 121.275 91.9538 120.605Z" fill="white"/>
<path d="M60.7806 120.142C60.7822 120.141 60.7794 120.143 60.7806 120.142C60.7818 120.141 60.7794 120.143 60.7806 120.142Z" fill="#D2D2D2"/>
<path d="M91.9541 120.605C90.7262 119.934 74.572 113.718 74.572 113.718C74.572 113.718 73.327 113.517 71.8708 113.543C72.9299 114.293 73.3253 115.328 73.1046 116.355C74.7145 116.869 76.245 117.536 77.8161 118.089C79.846 118.803 81.9018 119.504 83.8428 120.328C85.2984 120.947 86.8837 121.612 87.9147 122.572C88.6599 123.267 88.6349 124.008 88.344 124.745C90.1733 125.193 92.0193 125.504 92.8084 124.993C94.1726 124.109 93.1821 121.275 91.9541 120.605Z" fill="#B6E1F3"/>
<path d="M60.7799 120.142C60.7815 120.141 60.7787 120.143 60.7799 120.142C60.7811 120.141 60.7787 120.143 60.7799 120.142Z" fill="#B6E1F3"/>
<path d="M76.021 95.147L70.2254 96.7576C70.2254 96.7576 68.8525 98.4685 70.4707 100.381L77.1398 100.786L76.021 95.147Z" fill="#32287C"/>
<path d="M77.6346 100.786C79.9977 100.786 81.9135 99.475 81.9135 97.8583C81.9135 96.2417 79.9977 94.9311 77.6346 94.9311C75.2714 94.9311 73.3557 96.2417 73.3557 97.8583C73.3557 99.475 75.2714 100.786 77.6346 100.786Z" fill="#171551"/>
<path d="M80.9179 97.8583C80.9179 98.8848 79.7017 99.7171 78.2009 99.7171C76.7005 99.7171 75.4839 98.8851 75.4839 97.8583C75.4839 96.8319 76.7001 95.9996 78.2009 95.9996C79.7013 95.9996 80.9179 96.8316 80.9179 97.8583Z" fill="#111144"/>
<path d="M79.5082 97.8584C79.5082 98.3521 78.9231 98.7527 78.2009 98.7527C77.4791 98.7527 76.8936 98.3524 76.8936 97.8584C76.8936 97.3646 77.4787 96.964 78.2009 96.964C78.9227 96.964 79.5082 97.3643 79.5082 97.8584Z" fill="#0A0A2D"/>
<path d="M78.6135 96.3576C78.6135 96.3576 73.9493 96.53 72.1676 96.9763C70.1824 97.4735 69.5901 96.8971 69.7051 96.3564C69.914 95.3743 75.9503 84.7971 79.991 84.86C84.0321 84.9229 86.1364 89.5093 85.4518 92.148C84.7664 94.787 83.8482 96.546 78.6135 96.3576Z" fill="white"/>
<path d="M80.2163 84.8713C80.989 85.7353 81.6193 86.6491 81.8019 87.6615C82.1112 89.3782 81.1767 91.2626 79.6918 92.6385C77.3254 94.8306 73.5275 95.903 69.6921 96.4603C69.672 96.9664 70.309 97.4416 72.1676 96.9761C73.9493 96.5298 78.6135 96.3574 78.6135 96.3574C83.8482 96.5458 84.7668 94.7865 85.4518 92.1478C86.1234 89.5589 84.109 85.0983 80.2163 84.8713Z" fill="#B6E1F3"/>
<path d="M86.7807 116.461C88.5444 115.947 90.2596 115.161 90.9375 113.881C91.4955 112.828 91.6179 111.458 90.7549 110.458C89.9725 110.454 88.1795 110.499 86.7769 110.939L77.9379 115.924C77.9379 115.924 77.1166 116.683 77.4013 117.184C80.5233 117.536 83.9107 117.296 86.7807 116.461Z" fill="#0A0A2D"/>
<path d="M75.8157 114.236C75.8157 114.236 77.7771 116.718 80.9158 116.651C84.0541 116.584 86.1325 115.84 86.1325 115.84L79.2975 112.659L75.8157 114.236Z" fill="#32287C"/>
<path d="M89.0621 113.433C89.6893 111.567 87.9865 109.707 85.2589 109.278C82.5313 108.849 79.8117 110.013 79.1845 111.879C78.5573 113.745 80.26 115.606 82.9876 116.035C85.7153 116.464 88.4349 115.299 89.0621 113.433Z" fill="#171551"/>
<path d="M84.7878 114.86C86.5649 114.86 88.0055 113.875 88.0055 112.659C88.0055 111.443 86.5649 110.458 84.7878 110.458C83.0107 110.458 81.5701 111.443 81.5701 112.659C81.5701 113.875 83.0107 114.86 84.7878 114.86Z" fill="#111144"/>
<path d="M86.3359 112.659C86.3359 113.244 85.6425 113.718 84.7878 113.718C83.9327 113.718 83.2397 113.244 83.2397 112.659C83.2397 112.074 83.9331 111.6 84.7878 111.6C85.6429 111.6 86.3359 112.074 86.3359 112.659Z" fill="#0A0A2D"/>
<path d="M104.784 120.573C104.245 118.625 101.913 111.729 91.1513 110.465C91.1513 110.465 89.9417 110.365 88.4138 110.598C89.4118 110.808 90.0408 111.225 90.5097 111.846C91.3402 112.945 89.9601 114.098 88.7372 114.735C85.7289 116.3 81.0994 117.002 77.3492 116.697C77.1085 117.028 76.9505 117.299 78.081 117.625C79.543 118.046 91.4706 120.099 98.7812 123.047C98.7812 123.047 102.244 125.048 103.475 123.784C104.707 122.521 105.322 122.521 104.784 120.573Z" fill="white"/>
<path d="M90.5105 111.846C90.8741 112.327 90.814 112.818 90.5293 113.272C93.3759 114.084 96.0319 115.119 98.2458 116.711C101.042 118.721 102.774 121.119 103.511 123.749C104.718 122.523 105.317 122.501 104.784 120.573C104.245 118.625 101.913 111.729 91.1517 110.465C91.1517 110.465 89.7315 110.309 88.2202 110.623C89.2183 110.834 90.0412 111.225 90.5105 111.846Z" fill="#B6E1F3"/>
<path d="M102.284 124.31C100.743 124.31 98.7689 123.18 98.6807 123.129C95.2143 121.733 90.2366 120.343 83.4848 118.89C83.402 118.873 83.3561 118.813 83.382 118.756C83.4079 118.699 83.4957 118.668 83.5784 118.686C90.3536 120.144 95.353 121.54 98.8612 122.955C98.9047 122.977 101.074 124.223 102.512 124.085C102.87 124.05 103.143 123.932 103.345 123.725C103.579 123.484 103.79 123.291 103.976 123.12C104.761 122.398 105.054 122.128 104.63 120.593C104.198 119.03 103.482 117.588 102.504 116.306C102.463 116.253 102.494 116.189 102.57 116.161C102.647 116.133 102.741 116.154 102.782 116.206C103.775 117.508 104.5 118.97 104.937 120.553C105.387 122.18 105.024 122.515 104.227 123.247C104.044 123.417 103.835 123.608 103.606 123.844C103.355 124.101 103.001 124.254 102.555 124.297C102.467 124.306 102.376 124.31 102.284 124.31Z" fill="#32287C"/>
<path d="M84.2374 103.067C84.2374 103.067 83.7087 100.536 82.5193 100.129C81.3298 99.7219 74.392 99.1343 73.2686 99.7219C72.1452 100.309 71.815 100.536 70.8897 100.084C69.9643 99.6315 69.6806 99.7671 69.6902 100.309C69.7002 100.852 72.5414 106.276 73.0701 110.435C73.5988 114.594 75.6471 114.458 75.6471 114.458C75.6471 114.458 78.6868 115.046 81.9245 111.655C85.1628 108.265 85.579 108.175 84.2374 103.067Z" fill="white"/>
<path d="M84.2377 103.067C84.2377 103.067 83.709 100.536 82.5195 100.129C82.0146 99.9561 80.4733 99.7511 78.7806 99.617C79.2558 100.869 79.6721 102.132 79.9667 103.41C80.3471 105.059 80.7621 106.899 80.2915 108.555C79.6282 110.89 76.7599 112.127 73.8347 113.09C74.6217 114.524 75.6469 114.458 75.6469 114.458C75.6469 114.458 78.6866 115.046 81.9244 111.655C85.163 108.265 85.5793 108.175 84.2377 103.067Z" fill="#B6E1F3"/>
<path d="M69.705 96.4636C69.6975 96.4636 69.6899 96.4634 69.682 96.4625C69.5963 96.4539 69.537 96.3996 69.5495 96.341C69.7301 95.4918 75.7467 84.7525 79.9558 84.7525C79.9688 84.7525 79.9813 84.7525 79.9939 84.7528C81.2243 84.772 82.3816 85.206 83.3416 86.008C85.3285 87.6677 86.0527 90.4428 85.6051 92.1669C85.5901 92.2249 85.5111 92.265 85.4233 92.2538C85.3381 92.2435 85.2812 92.1881 85.2963 92.1294C85.7313 90.4531 85.0284 87.7558 83.0987 86.1435C82.1855 85.381 81.1386 84.985 79.9863 84.9673C79.975 84.967 79.9638 84.967 79.9525 84.967C76.0314 84.967 70.0494 95.4775 69.8588 96.3719C69.8483 96.425 69.7815 96.4636 69.705 96.4636Z" fill="#32287C"/>
</g>
<defs>
<linearGradient id="paint0_linear_472_259" x1="100.5" y1="0" x2="100.5" y2="134" gradientUnits="userSpaceOnUse">
<stop stop-color="#6FCC3E"/>
<stop offset="1" stop-color="#B6E1F3"/>
</linearGradient>
<clipPath id="clip0_472_259">
<rect width="202" height="134" rx="10" fill="white"/>
</clipPath>
</defs>
</svg>
