<?xml version="1.0" encoding="UTF-8"?>
<svg xmlns="http://www.w3.org/2000/svg" viewBox="0 0 500 368.47">
  <defs>
    <style>
      .cls-1, .cls-2 {
        opacity: .7;
      }

      .cls-3 {
        fill: #407bff;
      }

      .cls-3, .cls-4, .cls-5, .cls-6, .cls-7, .cls-8, .cls-9, .cls-10, .cls-11, .cls-12, .cls-13, .cls-2, .cls-14, .cls-15, .cls-16 {
        stroke-width: 0px;
      }

      .cls-4, .cls-5, .cls-9 {
        isolation: isolate;
      }

      .cls-4, .cls-15 {
        opacity: .2;
      }

      .cls-5 {
        opacity: .3;
      }

      .cls-17 {
        opacity: .9;
      }

      .cls-6 {
        opacity: .5;
      }

      .cls-6, .cls-8, .cls-2, .cls-15 {
        fill: #fff;
      }

      .cls-7 {
        fill: #e4f44c;
      }

      .cls-9 {
        opacity: .1;
      }

      .cls-10 {
        fill: #ffb573;
      }

      .cls-11 {
        fill: #f3f7a9;
      }

      .cls-12 {
        fill: #e19641;
      }

      .cls-13 {
        fill: #263238;
      }

      .cls-14 {
        fill: #ed893e;
      }

      .cls-16 {
        fill: #dc2538;
      }
    </style>
  </defs>
  <g id="Background_Simple" data-name="Background Simple">
    <g>
      <g class="cls-17">
        <path class="cls-11" d="M317.4,201.79c17.58,7.95,39.17,4.79,55.22-6.07,16.05-10.86,26.73-28.63,31.18-47.46,4.44-18.83,3.03-38.67-1.61-57.41-5.46-22.06-15.52-43.23-30.98-59.84-15.46-16.61-36.51-29.02-59.19-30.64-58.87-4.2-100.54,27.46-100.12,96.34.23,37.57-76.84-2.21-118.36,35.57-51.7,47.05-39.15,121.47-15.7,163.9,21.91,39.65,65.74,56.35,91.47,60.65,23.24,3.89,69.39,8.12,102.41-29.17,24.41-27.56,25.4-101.04,25.31-106.77-.09-5.73,1.34-11.73,5.22-15.97s9.94-5.48,15.15-3.12Z"/>
      </g>
      <g class="cls-17">
        <path class="cls-11" d="M317.4,201.79c17.58,7.95,39.17,4.79,55.22-6.07,16.05-10.86,26.73-28.63,31.18-47.46,4.44-18.83,3.03-38.67-1.61-57.41-5.46-22.06-15.52-43.23-30.98-59.84-15.46-16.61-36.51-29.02-59.19-30.64-58.87-4.2-100.54,27.46-100.12,96.34.23,37.57-76.84-2.21-118.36,35.57-51.7,47.05-39.15,121.47-15.7,163.9,21.91,39.65,65.74,56.35,91.47,60.65,23.24,3.89,69.39,8.12,102.41-29.17,24.41-27.56,25.4-101.04,25.31-106.77-.09-5.73,1.34-11.73,5.22-15.97s9.94-5.48,15.15-3.12Z"/>
      </g>
    </g>
  </g>
  <g id="Inner_Self" data-name="Inner Self">
    <g>
      <g>
        <g>
          <g>
            <path class="cls-12" d="M268.93,139.06c-3.6-2.32-4.99-7.77-5.39-13.47-.31-4.77.07-9.67.52-13.04.11-1.1.28-2.16.47-3.16.17-1.06.39-2.03.63-2.97l-32.6-13.45c3.58,5.4,6.31,22.68,5.55,28.24-.84,6.24-1.08,14.95-4.32,17.26l35.14.59Z"/>
            <g class="cls-1">
              <path class="cls-8" d="M268.93,139.06c-3.6-2.32-4.99-7.77-5.39-13.47-.31-4.77.07-9.67.52-13.04.11-1.1.28-2.16.47-3.16.17-1.06.39-2.03.63-2.97l-32.6-13.45c3.58,5.4,6.31,22.68,5.55,28.24-.84,6.24-1.08,14.95-4.32,17.26l35.14.59Z"/>
            </g>
            <path class="cls-10" d="M233.79,138.46c-7.01,5-4.03,12.86,1.69,19.27,2.37,2.66,4.75,4.95,7.05,6.92,10.89,9.32,28.05,5.37,33.09-8.06,2.23-5.95,1.46-12.33-6.68-17.54l-35.14-.59Z"/>
            <path class="cls-4" d="M263.54,125.59c-.31-4.77.07-9.67.52-13.04.11-1.1.28-2.16.47-3.16l-25.22-4.84c5.29,5.28,12.7,16,24.23,21.04Z"/>
            <path class="cls-12" d="M296.8,67.12c-.8,5.42-8.23,14.23-7.88,13.7.35-.53.35-1.23.31-1.87-.17-2.44-.77-4.85-1.78-7.06-.62,3.03-1.59,9.29-4.58,9.34-1.19-2.24-2.64-4.27-2.44-6.82-.69,2.6-1.32,5.22-2.01,7.83-5.8-3.57-9.47-11.81-8.27-18.69.29-1.67.83-3.3,1.71-4.73,1.01-1.63,2.44-2.93,3.87-4.19,3.79-3.32,5.33-4.86,10.31-4.86,10.9,0,11.55,11.94,10.75,17.35Z"/>
            <path class="cls-5" d="M296.8,67.12c-.8,5.42-8.23,14.23-7.88,13.7.35-.53.35-1.23.31-1.87-.17-2.44-.77-4.85-1.78-7.06-.62,3.03-1.59,9.29-4.58,9.34-1.19-2.24-2.64-4.27-2.44-6.82-.69,2.6-1.32,5.22-2.01,7.83-5.8-3.57-9.47-11.81-8.27-18.69.29-1.67.83-3.3,1.71-4.73,1.01-1.63,2.44-2.93,3.87-4.19,3.79-3.32,5.33-4.86,10.31-4.86,10.9,0,11.55,11.94,10.75,17.35Z"/>
            <path class="cls-12" d="M291.17,93.66c-4.05,22.07-30.47,33.7-47.9,17.89-10.07-9.1-11.67-19.97-13.51-36.91-.29-2.57-.58-5.27-.91-8.15-.54-4.48-.08-9.01,1.35-13.27.59-1.81,1.36-3.52,2.28-5.11,6.91-12.42,21.87-18.54,35.83-13.84,21.87,7.37,26.54,39.53,22.87,59.39Z"/>
            <path class="cls-2" d="M291.17,93.66c-4.05,22.07-30.47,33.7-47.9,17.89-10.07-9.1-11.67-19.97-13.51-36.91-.29-2.57-.58-5.27-.91-8.15-.54-4.48-.08-9.01,1.35-13.27.59-1.81,1.36-3.52,2.28-5.11,6.91-12.42,21.87-18.54,35.83-13.84,21.87,7.37,26.54,39.53,22.87,59.39Z"/>
            <path class="cls-12" d="M263.89,67.14c1.15-.08,2.17,1.33,2.26,3.1.1,1.77-.61,3.27-1.92,3.34-1.31.07-2.32-1.31-2.42-3.1-.07-1.87.92-3.26,2.07-3.33Z"/>
            <path class="cls-5" d="M263.89,67.14c1.15-.08,2.17,1.33,2.26,3.1.1,1.77-.61,3.27-1.92,3.34-1.31.07-2.32-1.31-2.42-3.1-.07-1.87.92-3.26,2.07-3.33Z"/>
            <path class="cls-12" d="M283.69,66.96c1.15-.08,2.17,1.3,2.26,3.07.1,1.77-.74,3.27-1.92,3.34-1.18.07-2.19-1.3-2.29-3.07-.07-1.77.79-3.26,1.94-3.34Z"/>
            <path class="cls-5" d="M283.69,66.96c1.15-.08,2.17,1.3,2.26,3.07.1,1.77-.74,3.27-1.92,3.34-1.18.07-2.19-1.3-2.29-3.07-.07-1.77.79-3.26,1.94-3.34Z"/>
            <path class="cls-12" d="M275.36,87.75c3.02.31,8.47-1.51,10.64-3.64-4.12-4.09-8.73-8.68-11.57-13.75l.93,17.39Z"/>
            <path class="cls-6" d="M275.36,87.75c3.02.31,8.47-1.51,10.64-3.64-4.12-4.09-8.73-8.68-11.57-13.75l.93,17.39Z"/>
            <path class="cls-12" d="M260.58,60.18c2.63-.5,5.34.29,7.3,2.11h0c.06.09.13.18.21.25.44.38,1.1.33,1.48-.11.38-.44.33-1.1-.11-1.48-2.4-2.35-5.78-3.39-9.09-2.8-.57.09-.95.61-.88,1.18.02.18.1.35.21.49.22.25.54.38.88.36Z"/>
            <path class="cls-5" d="M260.58,60.18c2.63-.5,5.34.29,7.3,2.11h0c.06.09.13.18.21.25.44.38,1.1.33,1.48-.11.38-.44.33-1.1-.11-1.48-2.4-2.35-5.78-3.39-9.09-2.8-.57.09-.95.61-.88,1.18.02.18.1.35.21.49.22.25.54.38.88.36Z"/>
            <path class="cls-12" d="M290.92,58.06s0-.01,0-.02c0-.58-.47-1.05-1.05-1.04-3.35-.08-6.53,1.48-8.51,4.19,0,0-.01.02-.02.03-.3.48-.16,1.11.32,1.41.02.02.05.03.07.05.47.28,1.08.13,1.37-.34,1.61-2.11,4.13-3.31,6.79-3.24.35,0,.68-.16.88-.45.1-.18.16-.38.17-.58Z"/>
            <path class="cls-5" d="M290.92,58.06s0-.01,0-.02c0-.58-.47-1.05-1.05-1.04-3.35-.08-6.53,1.48-8.51,4.19,0,0-.01.02-.02.03-.3.48-.16,1.11.32,1.41.02.02.05.03.07.05.47.28,1.08.13,1.37-.34,1.61-2.11,4.13-3.31,6.79-3.24.35,0,.68-.16.88-.45.1-.18.16-.38.17-.58Z"/>
            <path class="cls-12" d="M241.27,106.82c-2.66-.5-5.21-1.61-7.38-3.23-.03,2.93-1.97,7.95-1.97,7.95-9.31-3.07-16.99-21.71-18.01-27.89-5.19,9.63-4.73,4.09-5.14,0-.58-5.89-.73-11.98,1.28-17.54,2.01-5.56,6.59-10.52,12.43-11.48,2.02-.33,4.51.92,5.61,2.65,1.1,1.73,1.55,3.78,1.93,5.79,2.71,14.61,2.59,31.67,11.25,43.75Z"/>
            <path class="cls-5" d="M241.27,106.82c-2.66-.5-5.21-1.61-7.38-3.23-.03,2.93-1.97,7.95-1.97,7.95-9.31-3.07-16.99-21.71-18.01-27.89-5.19,9.63-4.73,4.09-5.14,0-.58-5.89-.73-11.98,1.28-17.54,2.01-5.56,6.59-10.52,12.43-11.48,2.02-.33,4.51.92,5.61,2.65,1.1,1.73,1.55,3.78,1.93,5.79,2.71,14.61,2.59,31.67,11.25,43.75Z"/>
            <path class="cls-12" d="M228.06,73.33c7.13.16,11.49,9.15,12.24,15.3.89,6.85-3.71,12.48-10.32,9.45-4.98-2.31-8.82-6.53-10.65-11.7-2.2-6.36,1.6-13.2,8.73-13.04Z"/>
            <path class="cls-2" d="M228.06,73.33c7.13.16,11.49,9.15,12.24,15.3.89,6.85-3.71,12.48-10.32,9.45-4.98-2.31-8.82-6.53-10.65-11.7-2.2-6.36,1.6-13.2,8.73-13.04Z"/>
            <path class="cls-12" d="M242.34,52.35c3.76,3.98,5.56,9.74,4.74,15.16-.82,5.42-8.5,14.23-8.14,13.69.36-.53.36-1.23.32-1.87-.17-2.44-.8-4.85-1.84-7.06-.64,3.03-1.63,9.29-4.73,9.34-1.23-2.24-2.74-4.28-2.53-6.82-.71,2.6-1.36,5.22-2.08,7.83-6-3.58-9.81-11.82-8.56-18.7.3-1.67.85-3.3,1.77-4.72,1.05-1.63,2.52-2.93,4-4.19,3.92-3.32,9.1-6.63,13.84-4.65.69.29,3.4,1.27,3.22,1.99Z"/>
            <path class="cls-5" d="M242.34,52.35c3.76,3.98,5.56,9.74,4.74,15.16-.82,5.42-8.5,14.23-8.14,13.69.36-.53.36-1.23.32-1.87-.17-2.44-.8-4.85-1.84-7.06-.64,3.03-1.63,9.29-4.73,9.34-1.23-2.24-2.74-4.28-2.53-6.82-.71,2.6-1.36,5.22-2.08,7.83-6-3.58-9.81-11.82-8.56-18.7.3-1.67.85-3.3,1.77-4.72,1.05-1.63,2.52-2.93,4-4.19,3.92-3.32,9.1-6.63,13.84-4.65.69.29,3.4,1.27,3.22,1.99Z"/>
          </g>
          <g>
            <path class="cls-12" d="M280.98,93.82s-6.12-2.48-24.13-4.63c1.03,6.54,4.97,9.3,14.22,10.3,9.25,1,9.91-5.67,9.91-5.67Z"/>
            <path class="cls-12" d="M280.18,93.58c-.56,1.46-1.84,2.52-3.38,2.78-5.32-.64-10.56-1.81-15.65-3.48-1.76-.4-3.13-1.78-3.52-3.54,7.63.72,15.18,2.14,22.55,4.24Z"/>
            <path class="cls-12" d="M276.43,95.82c-4.54-1.83-9.33-2.95-14.21-3.32-1.37.15-2.68.67-3.77,1.5,1.98,3.24,5.96,4.85,12.58,5.59,2.47.43,5.02-.03,7.18-1.31-.47-.89-1.07-1.72-1.77-2.45Z"/>
          </g>
        </g>
        <path class="cls-10" d="M292.75,136.97c-.6,7.13-3.59,14.12-7.86,20.02-.32.44-.64.87-.97,1.29-9.72,12.3-27.19,16.12-41.72,9.65-4.59-2.04-9.03-4.37-13.18-7.17-8.24-5.55-15.35-13.25-18.7-22.29l25.55-3.29,17.47-2.25,11.94,1.22,27.48,2.8Z"/>
      </g>
      <g>
        <path class="cls-3" d="M166.42,153.34c-1.01,75.02-56.35,140.03-62.06,214.84h274.71c-27.31-58.5-44.42-121.24-50.6-185.51l-4.25-44.21h-140.59s-17.1,7.54-17.2,14.88Z"/>
        <path class="cls-16" d="M166.42,153.34c-1.01,75.02-56.35,140.03-62.06,214.84h274.71c-27.31-58.5-44.42-121.24-50.6-185.51l-4.25-44.21h-140.59s-17.1,7.54-17.2,14.88Z"/>
        <path class="cls-15" d="M138.54,368.07s-1.6-77.23,24.01-157.13c25.61-79.9-6.52,23.96-1.59,116.54,1.42,26.69,8.42,41,8.42,41l-30.83-.41Z"/>
        <path class="cls-15" d="M353.86,368.47s-33.57-77.83-39.6-180.56c0,0-8.22,90.91,20.14,180.27l19.46.3Z"/>
        <g>
          <g>
            <g>
              <path class="cls-3" d="M344.89,125.65c.14-.07.27-.12.42-.17-.05.02-.1.05-.16.07-.09.03-.18.07-.26.1Z"/>
              <path class="cls-3" d="M347.1,124.84c-.22.08-.45.16-.7.25-.19.06-.38.14-.59.22-.03,0-.06.02-.09.03-.14.05-.26.1-.41.15.57-.23,1.17-.44,1.79-.65Z"/>
            </g>
            <path class="cls-3" d="M418.82,128.82c0,27.44-49.24,44.71-71.21,51.05-20.84,7.04-33.34,8.04-33.34,8.04-.76-7.25-16.49-49.8-16.49-49.8,0,0,9.4-3.96,16.14-3.4.06,0,.12,0,.18.02,7.89.65,15.77-1.2,22.61-5.18,2.81-1.63,5.57-2.86,7.74-3.72.16-.06.3-.12.45-.18.09-.03.18-.07.26-.1.2-.08.38-.15.57-.21.03,0,.06-.02.09-.03.21-.08.4-.15.59-.22.25-.1.49-.18.7-.25.32-.11.61-.2.83-.27.1-.03.19-.06.25-.08.1-.03.19-.06.25-.08.09-.03.16-.05.2-.06.05,0,.07-.02.07-.02,1.8-.53,3.76-.98,5.91-1.36,7.34-1.3,13.17.1,17.34,2.01,2.12.97,4.61.98,6.58-.27,1.01-.64,1.42-1.32.47-1.87l-46.74-53.46,14.25-7.83s72.31,38.19,72.31,67.27Z"/>
            <path class="cls-3" d="M418.82,128.82c0,27.44-49.24,44.71-71.21,51.05-20.84,7.04-33.34,8.04-33.34,8.04-.76-7.25-16.49-49.8-16.49-49.8,0,0,9.4-3.96,16.14-3.4.06,0,.12,0,.18.02,7.89.65,15.77-1.2,22.61-5.18,2.81-1.63,5.57-2.86,7.74-3.72.16-.06.3-.12.45-.18.09-.03.18-.07.26-.1.2-.08.38-.15.57-.21.03,0,.06-.02.09-.03.21-.08.4-.15.59-.22.25-.1.49-.18.7-.25.32-.11.61-.2.83-.27.1-.03.19-.06.25-.08.1-.03.19-.06.25-.08.09-.03.16-.05.2-.06.05,0,.07-.02.07-.02,1.8-.53,3.76-.98,5.91-1.36,7.34-1.3,13.17.1,17.34,2.01,2.12.97,4.61.98,6.58-.27,1.01-.64,1.42-1.32.47-1.87l-46.74-53.46,14.25-7.83s72.31,38.19,72.31,67.27Z"/>
            <path class="cls-12" d="M418.82,128.82c0,27.44-49.24,44.71-71.21,51.05-20.84,7.04-33.34,8.04-33.34,8.04-.76-7.25-16.49-49.8-16.49-49.8,0,0,9.4-3.96,16.14-3.4.06,0,.12,0,.18.02,7.89.65,15.77-1.2,22.61-5.18,2.81-1.63,5.57-2.86,7.74-3.72.16-.06.3-.12.45-.18.09-.03.18-.07.26-.1.2-.08.38-.15.57-.21.03,0,.06-.02.09-.03.21-.08.4-.15.59-.22.25-.1.49-.18.7-.25.32-.11.61-.2.83-.27.1-.03.19-.06.25-.08.1-.03.19-.06.25-.08.09-.03.16-.05.2-.06.05,0,.07-.02.07-.02,1.8-.53,3.76-.98,5.91-1.36,7.34-1.3,13.17.1,17.34,2.01,2.12.97,4.61.98,6.58-.27,1.01-.64,1.42-1.32.47-1.87l-46.74-53.46,14.25-7.83s72.31,38.19,72.31,67.27Z"/>
          </g>
          <path class="cls-15" d="M336.11,70.74l-19.92-7.89-12.01-16.03,17.25-3.82,16.3,8.44,9.78,10.64c1.98,2.15,1.06,5.62-1.72,6.51l-6.98,2.23c-.88.28-1.83.25-2.69-.09Z"/>
          <path class="cls-2" d="M336.11,70.74l-19.92-7.89-12.01-16.03,17.25-3.82,16.3,8.44,9.78,10.64c1.98,2.15,1.06,5.62-1.72,6.51l-6.98,2.23c-.88.28-1.83.25-2.69-.09Z"/>
        </g>
        <g>
          <g>
            <g>
              <g>
                <path class="cls-4" d="M323.07,166.05l2.01,20.23s29.5-6.85,46.17-14.47l-13.4.72c-11.4.62-21.89-1.2-32.21-6.07l-2.56-.41Z"/>
                <path class="cls-3" d="M326.6,185.8c-.29,64.39-12.12,70.47-11.56,125.89,0,0-111.49.46-115.27.56-8.98-74.58-18.18-78.05-15.75-135.27-1.17-18.81,9.5-35.35,20.23-37.51l49.08-6.52,47.22,4.97c12.01,1.75,22.85,11.21,26.04,47.88Z"/>
                <path class="cls-12" d="M326.6,185.8c-.29,64.39-12.12,70.47-11.56,125.89,0,0-111.49.46-115.27.56-8.98-74.58-18.18-78.05-15.75-135.27-1.17-18.81,9.5-35.35,20.23-37.51l49.08-6.52,47.22,4.97c12.01,1.75,22.85,11.21,26.04,47.88Z"/>
                <path class="cls-12" d="M246.08,60.06c-2.95-6.61-6.98-9.79-4.68-9.44,6.27.97,10.09-4.5,14.69-1.4,2.24,2.56-.34,7.31-.44,7.06,2.3,1.09,5.17.23,7.06-1.45,1.89-1.69,2.55-4.62,3.48-6.96.71,2.29.6,5.52-.18,7.79,1.65,1.31,5.05-1.15,6.6-2.58,1.55-1.43,2.64-3.82,3.35-5.8.58,2.3,1.05,4.64-.61,7.41,2.34.13,5.42-.59,6.95-2.34,1.54-1.75,2.47-4.48,2-6.74.53,1.18.61,6.04-.44,6.81,4.02-1.31,7.71-6.32,7.5-10.48-.21-4.16-2.91-7.99-6.53-10.15-1.79-1.07-3.78-1.77-5.65-2.69-2.89-1.42-21.26-15.12-48.21.5-16.73,9.7-13.47,29.01-11.48,31.1,2.47,2.59,6.36,3.46,9.95,3.1s17.42-1.98,16.64-3.73Z"/>
                <path class="cls-5" d="M246.08,60.06c-2.95-6.61-6.98-9.79-4.68-9.44,6.27.97,10.09-4.5,14.69-1.4,2.24,2.56-.34,7.31-.44,7.06,2.3,1.09,5.17.23,7.06-1.45,1.89-1.69,2.55-4.62,3.48-6.96.71,2.29.6,5.52-.18,7.79,1.65,1.31,5.05-1.15,6.6-2.58,1.55-1.43,2.64-3.82,3.35-5.8.58,2.3,1.05,4.64-.61,7.41,2.34.13,5.42-.59,6.95-2.34,1.54-1.75,2.47-4.48,2-6.74.53,1.18.61,6.04-.44,6.81,4.02-1.31,7.71-6.32,7.5-10.48-.21-4.16-2.91-7.99-6.53-10.15-1.79-1.07-3.78-1.77-5.65-2.69-2.89-1.42-21.26-15.12-48.21.5-16.73,9.7-13.47,29.01-11.48,31.1,2.47,2.59,6.36,3.46,9.95,3.1s17.42-1.98,16.64-3.73Z"/>
              </g>
              <g>
                <path class="cls-12" d="M280.98,93.82s-6.12-2.48-24.13-4.63c1.03,6.54,4.97,9.3,14.22,10.3,9.25,1,9.91-5.67,9.91-5.67Z"/>
                <path class="cls-5" d="M280.98,93.82s-6.12-2.48-24.13-4.63c1.03,6.54,4.97,9.3,14.22,10.3,9.25,1,9.91-5.67,9.91-5.67Z"/>
                <path class="cls-8" d="M280.18,93.58c-.56,1.46-1.84,2.52-3.38,2.78-5.32-.64-10.56-1.81-15.65-3.48-1.76-.4-3.13-1.78-3.52-3.54,7.63.72,15.18,2.14,22.55,4.24Z"/>
                <path class="cls-8" d="M276.43,95.82c-4.54-1.83-9.33-2.95-14.21-3.32-1.37.15-2.68.67-3.77,1.5,1.98,3.24,5.96,4.85,12.58,5.59,2.47.43,5.02-.03,7.18-1.31-.47-.89-1.07-1.72-1.77-2.45Z"/>
              </g>
            </g>
            <g>
              <path class="cls-3" d="M193.98,283.84s23.58-12.5,23.44-11.13c-.13,1.36.49,27.82.49,27.82l-25.71-.59,1.77-16.1Z"/>
              <path class="cls-3" d="M217.43,272.71s21.71.71,21.59,3.13-2.46,22.62-2.46,22.62l-18.64,2.07-.49-27.82Z"/>
            </g>
            <g class="cls-1">
              <path class="cls-8" d="M239.01,275.83c-.12,2.42-2.45,22.63-2.45,22.63l-18.64,2.07-25.71-.59,1.77-16.1s23.58-12.5,23.45-11.13c0,0,21.71.71,21.58,3.12Z"/>
            </g>
            <path class="cls-3" d="M292.75,136.97c-.6,7.13-3.59,14.12-7.86,20.02-.32.44-.64.87-.97,1.29-9.72,12.3-27.19,16.12-41.72,9.65-4.59-2.04-9.03-4.37-13.18-7.17-8.24-5.55-15.35-13.25-18.7-22.29l25.55-3.29,17.47-2.25,11.94,1.22,27.48,2.8Z"/>
            <path class="cls-2" d="M292.75,136.97c-.6,7.13-3.59,14.12-7.86,20.02-.32.44-.64.87-.97,1.29-9.72,12.3-27.19,16.12-41.72,9.65-4.59-2.04-9.03-4.37-13.18-7.17-8.24-5.55-15.35-13.25-18.7-22.29l25.55-3.29,17.47-2.25,11.94,1.22,27.48,2.8Z"/>
            <path class="cls-4" d="M184.18,201.91s-.18,16.72,2.97,33.54l8.35-52.12-11.32,18.58Z"/>
            <path class="cls-3" d="M138.92,239.62l55.85,39.46-2.56,23.21s-83.81-19.27-96.51-45.42c-5.92-12.21.75-27.12,11.07-40.92.02-.02.03-.04.03-.05,12.27-20.07,23.42-32.02,31.82-39.05,8.15-6.82,15.54-14.58,21.25-23.56,14.48-22.72,47-13.52,47-13.52-7.41,17.34-7.49,50.32-7.49,50.32,0,0-7.27,5.48-15.21,11.82-.09,5.35-3.33,11.9-9.62,19.29-8.29,9.76-32.82,15.33-35.65,18.41Z"/>
            <path class="cls-12" d="M138.92,239.62l55.85,39.46-2.56,23.21s-83.81-19.27-96.51-45.42c-5.92-12.21.75-27.12,11.07-40.92.02-.02.03-.04.03-.05,12.27-20.07,23.42-32.02,31.82-39.05,8.15-6.82,15.54-14.58,21.25-23.56,14.48-22.72,47-13.52,47-13.52-7.41,17.34-7.49,50.32-7.49,50.32,0,0-7.27,5.48-15.21,11.82-.09,5.35-3.33,11.9-9.62,19.29-8.29,9.76-32.82,15.33-35.65,18.41Z"/>
          </g>
          <path class="cls-3" d="M181.11,133.06c16.77,14.21,38.59,26.67,59.29,34.06,0-6.78-2.16-20.45-6.03-28.94-1.09-2.38-2.47-4.77-4.7-6.14s-5.5-1.35-7.16.67c-6.34-4.48-16.77-4.69-22.92.05-4.76-1.66-11.52-4.28-16.48-3.38s-11.07,7.5-10.33,12.49c4.71-2.5,11.77-3.74,14.59-3.74-1.32-1.66,0,0-6.26-5.07Z"/>
          <path class="cls-16" d="M181.11,133.06c16.77,14.21,38.59,26.67,59.29,34.06,0-6.78-2.16-20.45-6.03-28.94-1.09-2.38-2.47-4.77-4.7-6.14s-5.5-1.35-7.16.67c-6.34-4.48-16.77-4.69-22.92.05-4.76-1.66-11.52-4.28-16.48-3.38s-11.07,7.5-10.33,12.49c4.71-2.5,11.77-3.74,14.59-3.74-1.32-1.66,0,0-6.26-5.07Z"/>
          <path class="cls-3" d="M309.43,134.77c-5.56-2.62-12.7-2.66-18.24-.02-3.92-2.88-9.95-3.48-13.96-.74-1.26-1.53-3.19-2.48-5.16-2.56-1.98-.07-3.28,1.3-4.65,2.73,2.88,1.45,4.35,4.69,5.36,7.75,2.57,7.74,3.66,15.97,3.18,24.11,13.86-6.74,25.56-18.06,33.48-31.28Z"/>
          <path class="cls-16" d="M309.43,134.77c-5.56-2.62-12.7-2.66-18.24-.02-3.92-2.88-9.95-3.48-13.96-.74-1.26-1.53-3.19-2.48-5.16-2.56-1.98-.07-3.28,1.3-4.65,2.73,2.88,1.45,4.35,4.69,5.36,7.75,2.57,7.74,3.66,15.97,3.18,24.11,13.86-6.74,25.56-18.06,33.48-31.28Z"/>
          <g>
            <path class="cls-6" d="M306.73,212.69c0,15.19-21.62,42.34-48.29,42.34s-48.29-27.15-48.29-42.34,21.62-27.51,48.29-27.51,48.29,12.32,48.29,27.51Z"/>
            <g>
              <path class="cls-3" d="M300.24,214c0,12.52-17.81,34.88-39.78,34.88s-39.78-22.36-39.78-34.88,17.81-22.66,39.78-22.66,39.78,10.15,39.78,22.66Z"/>
              <path class="cls-7" d="M300.24,214c0,12.52-17.81,34.88-39.78,34.88s-39.78-22.36-39.78-34.88,17.81-22.66,39.78-22.66,39.78,10.15,39.78,22.66Z"/>
            </g>
          </g>
        </g>
        <rect class="cls-8" x="199.77" y="312.25" width="115.29" height="18.81"/>
        <polygon class="cls-3" points="199.77 331.06 188.74 368.18 318.79 368.18 315.07 331.06 199.77 331.06"/>
        <polygon class="cls-12" points="199.77 331.06 188.74 368.18 318.79 368.18 315.07 331.06 199.77 331.06"/>
        <g>
          <rect class="cls-13" x="250.75" y="311.04" width="34.47" height="20.61"/>
          <rect class="cls-2" x="250.75" y="311.04" width="34.47" height="20.61"/>
          <polygon class="cls-2" points="265.18 311.04 255.03 331.66 262.55 331.66 273.02 311.04 265.18 311.04"/>
          <polygon class="cls-2" points="276.24 311.04 266.09 331.66 271.46 331.66 281.93 311.04 276.24 311.04"/>
        </g>
      </g>
    </g>
    <path class="cls-15" d="M296.8,67.07c-.42,2.83-2.63,6.57-4.61,9.43.31,6.1-.08,12.01-1.02,17.11-2.64,14.35-14.73,24.28-27.66,25.13-.1,2.18-.12,4.5.03,6.8.22,3.09.73,6.1,1.72,8.58h.02l27.47,2.8c-.59,7.13-3.58,14.12-7.85,20.03-.32.43-.65.86-.98,1.28-9.72,12.31-27.19,16.13-41.72,9.66-4.59-2.04-9.03-4.37-13.18-7.17-8.24-5.54-15.35-13.24-18.7-22.28l25.55-3.29h.02c1.32-3.74,1.62-9.5,2.22-13.99.42-3.07-.22-9.71-1.48-15.94-.96-.48-1.88-1.04-2.73-1.68-.03,2.93-1.97,7.96-1.97,7.96-9.32-3.07-16.99-21.71-18.02-27.89-5.19,9.63-4.73,4.09-5.13.01-.58-5.89-.73-11.99,1.28-17.55,1.47-4.06,4.32-7.79,8.02-9.89-.96-6.78.38-19.39,12.88-26.64,26.96-15.62,45.32-1.92,48.21-.5,1.88.92,3.86,1.62,5.66,2.69,3.61,2.17,6.32,5.99,6.53,10.15.13,2.72-1.39,5.78-3.57,7.95,9.22,1.21,9.77,12.13,9.01,17.24Z"/>
    <path class="cls-15" d="M277.61,48.41c-.11-.19-.22-.39-.34-.58.11-.76.11-1.52-.04-2.23.22.49.36,1.61.38,2.81Z"/>
  </g>
  <g id="_Character" data-name=" Character">
    <g>
      <g>
        <path class="cls-10" d="M202.14,338.3c-3.14,1-5.99,1.71-8.59,2.18,0,0-.03,0-.05,0-.45.08-.89.15-1.32.22-1.41.21-2.72.34-3.96.41-19.36.98-19.85-15.17-20.33-23.39-.52-9.07-.23-20.85.82-33.02,1.33-15.26,3.87-31.13,7.57-43,5.33-17.12,13.97-18.99,21.35-19.13h0c1.42-.04,2.81,0,4.11,0,0,0-.94,4.85-1.39,9.53l-2.92,20.73-4.05,28.79v.02l-.63,4.49-.04.25-2.2,15.58-.5,3.59c-.23,2.39-.41,5.76,2.21,7.69.34.26.74.5,1.2.69,1.7.76,4.21,1.07,7.86.64l.37,10.22.07,1.85.12,3.18.21,5.78.1,2.7Z"/>
        <path class="cls-3" d="M158.15,278.87c5.54,6.34,10.01,5.56,17.66,6.76,7.64,1.2,14.26.79,22.03.08,1.57-21.53,4.22-43.01,4-64.52-6.28.47-13.01.21-18.15,3.33-6.86,4.17-7.32,14.88-11.94,22.43-5.46,8.92-12.45,16.23-19.39,23.44,2.5,4.4,2.61,4.82,5.8,8.47Z"/>
        <path class="cls-7" d="M158.15,278.87c5.54,6.34,10.01,5.56,17.66,6.76,7.64,1.2,14.26.79,22.03.08,1.57-21.53,4.22-43.01,4-64.52-6.28.47-13.01.21-18.15,3.33-6.86,4.17-7.32,14.88-11.94,22.43-5.46,8.92-12.45,16.23-19.39,23.44,2.5,4.4,2.61,4.82,5.8,8.47Z"/>
        <polygon class="cls-4" points="197.44 252.84 186.76 286.39 200.24 286.39 197.44 252.84"/>
        <path class="cls-3" d="M300.62,291.09c-1.23,5.51-2.7,10.89-4.2,17.76v.02c-.32,1.47-.65,3.02-.96,4.64-.45,2.27-.89,4.69-1.32,7.33h0c-.49,2.98-.96,6.21-1.41,9.77-.4,3.08-.77,6.41-1.12,10.02h0c-.15,1.59-.31,3.21-.45,4.9-.28,3.31-.55,6.84-.78,10.61-.25,3.85-.47,7.95-.67,12.33-3.26-.08-99.6,0-99.6,0,.53-6.41,1.01-12.44,1.43-18.26.23-3.23.46-6.4.65-9.52,0-.03,0-.05,0-.07.06-.96.13-1.9.18-2.84.14-2.38.28-4.73.4-7.07.29-5.6.51-11.14.65-16.79,0-.24.02-.48.02-.72.08-3.48.14-7.01.15-10.61.05-5.2,0-10.57-.11-16.21,0-.1,0-.21,0-.31-.02-1.46-.05-2.94-.09-4.43v-.02c-.13-4.6-.29-9.41-.5-14.45h0c-.27-6.31-.62-12.98-1.05-20.15-.52-8.45.07-19.68,5.8-24.46h0c.57-.49,1.19-.89,1.86-1.23.94-.48,1.97-.8,3.13-.97l30.25-4.71,10.55-1.64,15.54,3.05,34.1,6.69c.41.08.82.18,1.21.31,2.32.69,4.13,1.99,5.51,3.84,3.51,4.7,4.24,13,3.55,24.16.81,19.21-.54,29.29-2.7,39.03Z"/>
        <path class="cls-7" d="M300.62,291.09c-1.23,5.51-2.7,10.89-4.2,17.76v.02c-.32,1.47-.65,3.02-.96,4.64-.45,2.27-.89,4.69-1.32,7.33h0c-.49,2.98-.96,6.21-1.41,9.77-.4,3.08-.77,6.41-1.12,10.02h0c-.15,1.59-.31,3.21-.45,4.9-.28,3.31-.55,6.84-.78,10.61-.25,3.85-.47,7.95-.67,12.33-3.26-.08-99.6,0-99.6,0,.53-6.41,1.01-12.44,1.43-18.26.23-3.23.46-6.4.65-9.52,0-.03,0-.05,0-.07.06-.96.13-1.9.18-2.84.14-2.38.28-4.73.4-7.07.29-5.6.51-11.14.65-16.79,0-.24.02-.48.02-.72.08-3.48.14-7.01.15-10.61.05-5.2,0-10.57-.11-16.21,0-.1,0-.21,0-.31-.02-1.46-.05-2.94-.09-4.43v-.02c-.13-4.6-.29-9.41-.5-14.45h0c-.27-6.31-.62-12.98-1.05-20.15-.52-8.45.07-19.68,5.8-24.46h0c.57-.49,1.19-.89,1.86-1.23.94-.48,1.97-.8,3.13-.97l30.25-4.71,10.55-1.64,15.54,3.05,34.1,6.69c.41.08.82.18,1.21.31,2.32.69,4.13,1.99,5.51,3.84,3.51,4.7,4.24,13,3.55,24.16.81,19.21-.54,29.29-2.7,39.03Z"/>
        <path class="cls-10" d="M260.31,218.79c6.06,4.32,3.48,11.11-1.46,16.66-10.29,11.55-20.96,15.14-20.96,15.14-.16-.07-26.73-19.27-7.95-31.28,3.11-2.01,4.32-6.71,4.66-11.64.27-4.12-.06-8.36-.45-11.27-.09-.95-.24-1.87-.4-2.73-.14-.92-.33-1.76-.55-2.57l28.17-11.63c-3.1,4.66-5.45,19.6-4.8,24.41.73,5.39.93,12.92,3.74,14.92Z"/>
        <path class="cls-4" d="M234.6,207.66c.27-4.12-.06-8.36-.45-11.27-.09-.95-.24-1.87-.4-2.73l21.79-4.18c-4.57,4.56-10.98,13.83-20.93,18.18Z"/>
        <path class="cls-13" d="M205.07,158.32c.71,4.68,7.34,12.29,7.03,11.83-.31-.46-.31-1.06-.27-1.62.15-2.11.69-4.19,1.59-6.1.56,2.61,1.41,8.03,4.08,8.07,1.06-1.93,2.37-3.7,2.19-5.89.62,2.25,1.18,4.51,1.8,6.76,5.19-3.09,8.47-10.21,7.4-16.16-.26-1.44-.74-2.85-1.53-4.08-.9-1.41-2.18-2.53-3.46-3.62-3.38-2.87-7.69-5.22-11.96-4.02-8.18,2.3-7.59,10.14-6.87,14.82Z"/>
        <path class="cls-10" d="M210.73,180.07c3.5,19.07,26.33,29.12,41.4,15.46,8.7-7.87,10.09-17.26,11.67-31.9.25-2.22.5-4.55.78-7.04.46-3.87.06-7.78-1.16-11.46-.51-1.57-1.18-3.04-1.97-4.42-5.97-10.74-18.9-16.02-30.96-11.96-18.89,6.37-22.93,34.16-19.76,51.32Z"/>
        <path class="cls-13" d="M229.25,153.02c-.13-.06-.25-.15-.34-.26-.29-.39-.22-.95.17-1.24.01,0,.02-.02.04-.03,2.28-1.73,5.26-2.24,7.99-1.36.45.19.67.7.48,1.15,0,0,0,.02-.01.03-.19.46-.71.68-1.17.5-2.16-.72-4.54-.31-6.34,1.09-.23.18-.54.22-.82.11Z"/>
        <path class="cls-13" d="M219.59,154.35c-.2-.22-.49-.34-.79-.32-2.32.29-4.64-.52-6.27-2.2-.32-.39-.89-.44-1.28-.12,0,0,0,0,0,0-.37.32-.43.87-.13,1.26h0c2.01,2.15,4.93,3.2,7.84,2.81.5-.04.87-.47.84-.97-.03-.17-.1-.33-.21-.47Z"/>
        <path class="cls-14" d="M222.97,174.52c-2.15.22-6.03-1.07-7.57-2.59,2.93-2.91,6.21-6.18,8.23-9.78l-.66,12.37Z"/>
        <path class="cls-13" d="M216.18,163.24c-1.7,0-3.09-1.13-3.89-1.97-.19-.2-.18-.52.02-.71.2-.19.52-.18.71.02,1.11,1.17,2.85,2.33,4.82,1.17.24-.14.54-.06.68.18.14.24.06.55-.18.68-.76.44-1.48.62-2.16.62Z"/>
        <path class="cls-13" d="M233.58,179.14c-2.84,2.19-6.44,3.13-9.99,2.61-.25-.03-.43-.24-.42-.49.01-.24.22-.42.45-.41,0,0,.01,0,.02,0,3.88.54,7.8-.74,10.6-3.48.16-.17.43-.18.61-.02.01.01.02.02.04.04.16.19.15.47-.02.64-.41.39-.84.76-1.29,1.11Z"/>
        <path class="cls-13" d="M253.85,191.45c2.3-.43,4.5-1.39,6.37-2.79.03,2.53,1.7,6.87,1.7,6.87,8.05-2.65,14.68-18.76,15.57-24.1,4.48,8.32,4.09,3.54,4.44,0,.5-5.09.63-10.35-1.11-15.16-1.74-4.81-5.7-9.09-10.74-9.92-1.75-.29-3.9.79-4.85,2.29-.95,1.5-1.34,3.27-1.67,5-2.34,12.62-2.24,27.37-9.72,37.8Z"/>
        <path class="cls-10" d="M265.27,162.5c-6.16.13-9.93,7.91-10.58,13.22-.77,5.92,3.2,10.78,8.92,8.16,4.3-2,7.62-5.64,9.2-10.11,1.9-5.5-1.38-11.41-7.54-11.27Z"/>
        <path class="cls-4" d="M282.36,260.6s-7.48,33.86-2.29,54.29c5.18,20.43,15.55,30.73,15.55,30.73l1.85-85.02h-15.11Z"/>
        <path class="cls-4" d="M295.62,345.61v.02c-1.44.34-2.95.33-4.46-.1-.28,3.31-.55,6.84-.78,10.61-5.96,3.19-32.48-6.18-55.76-15.53-5.13-2.06-10.1-4.13-14.65-6.06-1.61-.68-3.16-1.34-4.66-1.98-3.09-1.32-5.91-2.55-8.37-3.63-2-.87-3.76-1.65-5.22-2.31-3.05-1.35-4.8-2.15-4.8-2.15l4.73.31,37.39,2.39,9.65.62,1.94.12,11.95.77,8.16.52.42.03,7.91.51,6.45.41,7.2.46,2.89.19s.16,1.98.21,5.35v.13c.04,2.46,0,5.65-.21,9.34Z"/>
        <path class="cls-10" d="M311,291.23c-1.48,15.64-3.66,31.09-5.46,41.23-1.25,7.06-5.24,12.03-9.92,13.17-1.44.34-2.95.33-4.46-.1-.22-.06-.43-.13-.65-.21l-35.8-9.24-.31-.08-3.84-.99.06-7.1v-.58s.03-2.8.03-2.8l.08-8.88,4.84.26,23.65,1.26c.5.14.99.15,1.47.05,2.05-.39,3.75-2.78,3.96-5.95l.46-6.86,1.01-15.13,1.93-28.71,1.77-26.58c.3-4.48,1.25-8.18,1.34-8.51v-.02h.02c1.75,0,5.06.53,8.58,2.41,5.57,2.98,11.61,9.37,12.6,22.43.81,10.85.05,25.95-1.37,40.89Z"/>
        <path class="cls-10" d="M268.05,338.66l-52.54-10.13c-1.43-.45-2.95-.55-4.42-.3l-14.81,2.55c-3.23.56-6.52-.6-8.69-3.06l-7-7.93c-3.55-4.03-3.06-10.2,1.09-13.61l2.51-2.06c3.36-2.76,8.16-2.87,11.64-.28h0c1.71,1.27,3.8,1.93,5.93,1.86l.88-.03c4.05-.12,7.73,2.35,9.15,6.15l.81,2.18,42.84,1.65,12.62,23Z"/>
        <path class="cls-9" d="M205.07,315.28c2.51-.49,5.02-.89,7.52-1.3l-.81-2.16c-1.42-3.8-5.1-6.28-9.15-6.15l-.88.03c-2.13.06-4.22-.59-5.93-1.86-3.48-2.59-8.28-2.48-11.64.28l-2.51,2.06c-3.42,2.81-4.35,7.5-2.59,11.31,4.8.44,21.99-1.42,25.97-2.2Z"/>
        <path class="cls-4" d="M284.52,327.89s0,0,0,0c-.89.44-2.78,1.07-5.43,1.85h0c-3.49,1.01-8.3,2.26-13.9,3.66-3.34.83-6.97,1.7-10.76,2.6-.02,0-.03,0-.05,0-6.28,1.5-13.03,3.06-19.74,4.6-17.59,4.02-34.95,7.83-43.08,9.61.23-3.23.46-6.4.65-9.52-1.41.21-2.72.34-3.96.41l.04-.24.32-2.21,3.8-.87,9.67-2.2,13.26-3.02,9.72-2.21,14.01-3.19,11.61-2.64,8.58-1.96,6.43-1.46s11.73,1.22,17.37,3.19c2.91,1.01,4.21,2.23,1.48,3.58Z"/>
        <path class="cls-10" d="M174.16,313.57l80.64-1.49c1.49-.12,2.94-.6,4.21-1.38l12.77-7.91c2.79-1.73,6.27-1.88,9.2-.42l9.47,4.73c4.8,2.4,6.66,8.31,4.09,13.03l-1.55,2.85c-2.08,3.81-6.49,5.72-10.69,4.62h0c-2.06-.54-15.04,1.57-17.78-1.42l-1.58-1.73-64.15,15.1c-4.55,1.07-9.23,1.5-13.89,1.27h0l-10.74-27.24Z"/>
        <path class="cls-3" d="M332.4,286.65c-2.18,1.59-4.73,2.63-7.39,3.07-17.39,2.88-28.39,1.42-42.4-1.01-2.47-23.25-1.85-41.25,2.61-54.2,1.49-4.32,5.74-10.61,10.31-10.42,19.37.81,22.67,20.3,24.87,29.28,4.86,19.82,11.99,33.29,11.99,33.29Z"/>
        <path class="cls-7" d="M332.4,286.65c-2.18,1.59-4.73,2.63-7.39,3.07-17.39,2.88-28.39,1.42-42.4-1.01-2.47-23.25-1.85-41.25,2.61-54.2,1.49-4.32,5.74-10.61,10.31-10.42,19.37.81,22.67,20.3,24.87,29.28,4.86,19.82,11.99,33.29,11.99,33.29Z"/>
        <path class="cls-13" d="M249.61,153.26c2.38-6.17,5.88-9.25,3.82-8.83-5.6,1.14-9.28-3.7-13.29-.67-1.91,2.43.61,6.68.69,6.44-2.02,1.09-4.64.43-6.42-1.04s-2.49-4.12-3.43-6.22c-.55,2.12-.31,5.08.49,7.12-1.44,1.27-4.6-.85-6.05-2.09-1.46-1.24-2.53-3.39-3.26-5.16-.43,2.12-.75,4.29.86,6.75-2.11.22-4.9-.32-6.36-1.85-1.46-1.54-2.41-4-2.08-6.09-.43,1.1-.3,5.55.68,6.21-3.68-1.04-7.21-5.46-7.19-9.28.02-3.82,2.29-7.43,5.46-9.56,1.57-1.05,3.33-1.78,4.98-2.7,2.55-1.42,18.52-14.72,43.45-1.54,15.48,8.18,13.34,25.99,11.64,27.98-2.12,2.47-5.59,3.43-8.84,3.25s-15.78-1.09-15.15-2.72Z"/>
        <path class="cls-13" d="M252.93,144.38c-3.25,3.44-4.81,8.42-4.1,13.1.71,4.68,7.34,12.29,7.03,11.83-.31-.46-.31-1.06-.27-1.62.15-2.11.69-4.19,1.59-6.1.56,2.61,1.41,8.03,4.08,8.07,1.06-1.93,2.37-3.7,2.19-5.89.62,2.25,1.18,4.51,1.8,6.76,5.19-3.09,8.47-10.21,7.4-16.16-.26-1.44-.74-2.85-1.53-4.08-.9-1.41-2.18-2.53-3.46-3.62-3.38-2.87-7.87-5.73-11.96-4.02-.59.25-2.94,1.1-2.78,1.72Z"/>
      </g>
      <path class="cls-13" d="M236.27,159.57c0,1.56-.84,2.81-1.84,2.84-1,.03-1.81-1.2-1.9-2.8-.08-1.6.84-2.81,1.84-2.84s1.9,1.27,1.9,2.8Z"/>
    </g>
  </g>
  <g id="Glow">
    <g>
      <g>
        <g>
          <path class="cls-7" d="M82.31,303.89c.16-.06.59-3.13,1.05-6.84.96-7.73,5.54-13.71,11.32-14.89l4.17-.85s-6.54,0-9.27-1.91c-5.78-4.05-7.11-16.01-7.11-16.01,0,0-1.62,11.96-7.4,16.01-2.73,1.91-9.27,1.91-9.27,1.91l4.17.85c5.78,1.18,10.36,7.16,11.32,14.89.46,3.71.89,6.78,1.05,6.84Z"/>
          <g class="cls-1">
            <path class="cls-7" d="M82.31,303.89c.16-.06.59-3.13,1.05-6.84.96-7.73,5.54-13.71,11.32-14.89l4.17-.85s-6.54,0-9.27-1.91c-5.78-4.05-7.11-16.01-7.11-16.01,0,0-1.62,11.96-7.4,16.01-2.73,1.91-9.27,1.91-9.27,1.91l4.17.85c5.78,1.18,10.36,7.16,11.32,14.89.46,3.71.89,6.78,1.05,6.84Z"/>
          </g>
        </g>
        <g>
          <path class="cls-7" d="M367.96,217.18c.14-.05.51-2.7.9-5.9.82-6.66,4.77-11.81,9.75-12.83l3.59-.73s-5.64,0-7.99-1.65c-4.99-3.49-6.13-13.8-6.13-13.8,0,0-1.4,10.31-6.38,13.8-2.35,1.65-7.99,1.65-7.99,1.65l3.59.73c4.98,1.02,8.93,6.17,9.75,12.83.4,3.2.76,5.84.9,5.9Z"/>
          <g class="cls-1">
            <path class="cls-7" d="M367.96,217.18c.14-.05.51-2.7.9-5.9.82-6.66,4.77-11.81,9.75-12.83l3.59-.73s-5.64,0-7.99-1.65c-4.99-3.49-6.13-13.8-6.13-13.8,0,0-1.4,10.31-6.38,13.8-2.35,1.65-7.99,1.65-7.99,1.65l3.59.73c4.98,1.02,8.93,6.17,9.75,12.83.4,3.2.76,5.84.9,5.9Z"/>
          </g>
        </g>
        <g>
          <path class="cls-7" d="M167.64,111.13c.2-.08.74-3.96,1.32-8.66,1.21-9.79,7.01-17.36,14.33-18.85l5.28-1.08s-8.29,0-11.74-2.42c-7.32-5.13-9.01-20.27-9.01-20.27,0,0-2.05,15.14-9.38,20.27-3.45,2.42-11.74,2.42-11.74,2.42l5.28,1.08c7.31,1.49,13.12,9.06,14.33,18.85.58,4.7,1.12,8.58,1.32,8.66Z"/>
          <g class="cls-1">
            <path class="cls-7" d="M167.64,111.13c.2-.08.74-3.96,1.32-8.66,1.21-9.79,7.01-17.36,14.33-18.85l5.28-1.08s-8.29,0-11.74-2.42c-7.32-5.13-9.01-20.27-9.01-20.27,0,0-2.05,15.14-9.38,20.27-3.45,2.42-11.74,2.42-11.74,2.42l5.28,1.08c7.31,1.49,13.12,9.06,14.33,18.85.58,4.7,1.12,8.58,1.32,8.66Z"/>
          </g>
        </g>
        <g>
          <path class="cls-7" d="M397.34,327.79c.2-.08.74-3.96,1.32-8.66,1.21-9.79,7.01-17.36,14.33-18.85l5.28-1.08s-8.29,0-11.74-2.42c-7.32-5.13-9.01-20.27-9.01-20.27,0,0-2.05,15.14-9.38,20.27-3.45,2.42-11.74,2.42-11.74,2.42l5.28,1.08c7.31,1.49,13.12,9.06,14.33,18.85.58,4.7,1.12,8.58,1.32,8.66Z"/>
          <g class="cls-1">
            <path class="cls-7" d="M397.34,327.79c.2-.08.74-3.96,1.32-8.66,1.21-9.79,7.01-17.36,14.33-18.85l5.28-1.08s-8.29,0-11.74-2.42c-7.32-5.13-9.01-20.27-9.01-20.27,0,0-2.05,15.14-9.38,20.27-3.45,2.42-11.74,2.42-11.74,2.42l5.28,1.08c7.31,1.49,13.12,9.06,14.33,18.85.58,4.7,1.12,8.58,1.32,8.66Z"/>
          </g>
        </g>
        <g>
          <path class="cls-7" d="M313.16,113.5c.1-.04.38-2,.67-4.38.61-4.95,3.54-8.77,7.24-9.53l2.67-.54s-4.19,0-5.93-1.22c-3.7-2.59-4.55-10.24-4.55-10.24,0,0-1.04,7.65-4.74,10.24-1.75,1.22-5.93,1.22-5.93,1.22l2.67.54c3.7.75,6.63,4.58,7.24,9.53.29,2.38.57,4.34.67,4.38Z"/>
          <g class="cls-1">
            <path class="cls-7" d="M313.16,113.5c.1-.04.38-2,.67-4.38.61-4.95,3.54-8.77,7.24-9.53l2.67-.54s-4.19,0-5.93-1.22c-3.7-2.59-4.55-10.24-4.55-10.24,0,0-1.04,7.65-4.74,10.24-1.75,1.22-5.93,1.22-5.93,1.22l2.67.54c3.7.75,6.63,4.58,7.24,9.53.29,2.38.57,4.34.67,4.38Z"/>
          </g>
        </g>
        <g>
          <path class="cls-7" d="M84.16,175c.1-.04.38-2,.67-4.38.61-4.95,3.54-8.77,7.24-9.53l2.67-.54s-4.19,0-5.93-1.22c-3.7-2.59-4.55-10.24-4.55-10.24,0,0-1.04,7.65-4.74,10.24-1.75,1.22-5.93,1.22-5.93,1.22l2.67.54c3.7.75,6.63,4.58,7.24,9.53.29,2.38.57,4.34.67,4.38Z"/>
          <g class="cls-1">
            <path class="cls-7" d="M84.16,175c.1-.04.38-2,.67-4.38.61-4.95,3.54-8.77,7.24-9.53l2.67-.54s-4.19,0-5.93-1.22c-3.7-2.59-4.55-10.24-4.55-10.24,0,0-1.04,7.65-4.74,10.24-1.75,1.22-5.93,1.22-5.93,1.22l2.67.54c3.7.75,6.63,4.58,7.24,9.53.29,2.38.57,4.34.67,4.38Z"/>
          </g>
        </g>
      </g>
      <path class="cls-12" d="M242.52,280.91c4.85-2.4,9.71-4.8,14.56-7.2-.44-1.03-1.14-2.43-2.23-3.91-4.67-6.32-11.84-7.83-13.61-8.15-2.19-.39-8.04-1.1-14.23,2.12-7.07,3.68-9.78,9.98-10.49,11.83-.46,1.19-3.67,9.97,1.17,18.86,3.59,6.58,9.4,9.2,10.88,9.82,1.33.56,6.84,2.71,13.61,1.12,1.31-.31,4.44-1.17,7.76-3.52,1.1-.78,4.23-3.14,6.64-7.37,1.77-3.1,2.35-5.82,2.51-6.64.33-1.69.4-3.15.39-4.24-7.51.02-15.03.04-22.54.06,3.53,1.97,7.07,3.94,10.6,5.91-.33.84-.76,1.73-1.34,2.62-2.71,4.22-6.87,6.02-8.98,6.75-.26-.12-.63-.28-1.06-.5-1.52-.76-4.48-2.25-6.75-4.85-.76-.88-3.39-3.97-3.68-8.65-.07-1.17-.22-4.09,1.51-7.14.47-.83,1.8-3.12,4.63-4.58,3.65-1.88,7.17-1.02,8.09-.78,3.8.99,5.9,3.58,6.53,4.41-1.32,1.34-2.64,2.68-3.96,4.02Z"/>
    </g>
  </g>
</svg>