<?xml version="1.0" encoding="UTF-8"?>
<svg id="Camada_1" data-name="Camada 1" xmlns="http://www.w3.org/2000/svg" viewBox="0 0 2380.64 542.4">
  <defs>
    <style>
      .cls-1 {
        fill: #e64050;
        stroke-width: 0px;
      }
    </style>
  </defs>
  <path class="cls-1" d="M1942.92,0h12.48c1.35.94,2.88.28,4.31.48,1.77,0,3.54,0,5.31,0,1.3,0,2.6,0,3.9,0,31.66-.43,61.68,7.32,91.01,18.4,24.22,9.15,47.67,20.2,71.76,29.66,28.44,11.16,57.75,18.75,88.27,20.93,36.18,2.59,71.72-1.53,106.63-11.3,16.34-4.57,32.17-10.59,47.87-16.97,2.04-.83,4.15-2.05,6.18.08v501.12H1.04c-1.5-2-.94-4.32-.94-6.51-.02-164.47-.03-328.94-.02-493.4,0-.58.02-1.16.06-1.74.2-2.41,1.92-3.57,3.85-4.46C38.76,20.23,74.64,7.56,112.74,2.23c9.97-1.39,20.11-1.4,30.19-1.75,1.3,0,2.61,0,3.91,0,1.78,0,3.56,0,5.34,0,1.45-.2,2.99.46,4.35-.48h12.48c1.64.98,3.44.25,5.14.48,1.79,0,3.59,0,5.38,0,1.31,0,2.61,0,3.92,0,30.44-.23,59.46,6.7,87.81,17.25,26.98,10.05,52.92,22.59,79.86,32.71,25.09,9.42,50.85,15.91,77.65,18.42,54.95,5.15,107.2-5.31,157.49-26.84,22.48-9.63,44.6-20.07,68.03-27.32,17.28-5.35,34.73-10.01,52.68-12.36,10.29-1.35,20.71-1.42,31.08-1.86,1.3,0,2.6,0,3.9,0,1.78,0,3.57,0,5.35,0,1.45-.2,2.99.46,4.36-.48h12.48c1.64.98,3.44.26,5.14.48,1.79,0,3.59,0,5.38,0,1.31,0,2.61,0,3.92,0,30.42-.32,59.38,6.72,87.7,17.2,26.4,9.78,51.79,22,78.1,32.01,25.81,9.82,52.27,16.89,79.93,19.19,8.44.7,16.93,1.6,25.32,1.5,16.75-.19,33.49-1.44,50.08-4.16,35.48-5.8,68.87-17.79,101.39-32.86,32.33-14.98,66.03-26.02,101.45-31.07,10.12-1.44,20.41-1.41,30.64-1.83,1.3,0,2.6,0,3.9,0,1.78,0,3.57,0,5.35,0,1.45-.2,2.99.46,4.36-.48h13.44c1.35.94,2.88.28,4.31.48,1.77,0,3.54,0,5.31,0,1.3,0,2.59,0,3.89,0,33.28-.45,64.64,8.16,95.32,20.08,25.34,9.85,49.87,21.65,75.42,30.95,24.13,8.79,48.82,14.97,74.5,17.33,55.1,5.06,107.55-5.15,157.96-26.99,22.3-9.66,44.33-19.92,67.6-27.15,17.28-5.37,34.73-10.01,52.69-12.36,10.3-1.35,20.73-1.43,31.11-1.86,1.31,0,2.62,0,3.93,0,1.81,0,3.61,0,5.42,0,1.73-.23,3.54.51,5.2-.48Z"/>
</svg>