<?xml version="1.0" encoding="UTF-8"?>
<svg xmlns="http://www.w3.org/2000/svg" viewBox="0 0 423.03 459.74">
  <defs>
    <style>
      .cls-1, .cls-2, .cls-3, .cls-4, .cls-5, .cls-6, .cls-7, .cls-8, .cls-9, .cls-10, .cls-11, .cls-12, .cls-13, .cls-14, .cls-15, .cls-16, .cls-17, .cls-18, .cls-19, .cls-20, .cls-21, .cls-22, .cls-23, .cls-24, .cls-25, .cls-26, .cls-27, .cls-28, .cls-29, .cls-30, .cls-31, .cls-32 {
        stroke-width: 0px;
      }

      .cls-1, .cls-4, .cls-6 {
        fill: #9fd838;
      }

      .cls-2 {
        isolation: isolate;
        opacity: .2;
      }

      .cls-33, .cls-6, .cls-12 {
        opacity: .5;
      }

      .cls-3, .cls-32 {
        fill: #e6e6e6;
      }

      .cls-4 {
        opacity: .4;
      }

      .cls-5, .cls-10, .cls-30 {
        opacity: .3;
      }

      .cls-5, .cls-20 {
        fill: #57995e;
      }

      .cls-7 {
        fill: #487c70;
      }

      .cls-8 {
        opacity: .9;
      }

      .cls-8, .cls-12, .cls-17, .cls-26, .cls-30 {
        fill: #fff;
      }

      .cls-11 {
        fill: #e0e0e0;
      }

      .cls-13 {
        fill: #f5f5f5;
      }

      .cls-14 {
        fill: #f0f0f0;
      }

      .cls-15 {
        fill: #a02724;
      }

      .cls-16 {
        fill: #de5753;
      }

      .cls-18 {
        fill: #2e353a;
      }

      .cls-19 {
        fill: #6eb03d;
      }

      .cls-21 {
        fill: #fafafa;
      }

      .cls-22 {
        fill: #421b36;
      }

      .cls-23 {
        fill: #878787;
      }

      .cls-24 {
        fill: #263238;
      }

      .cls-34 {
        opacity: .1;
      }

      .cls-25 {
        fill: #c3c3c3;
      }

      .cls-26, .cls-32 {
        opacity: .7;
      }

      .cls-27 {
        fill: #ffc3bd;
      }

      .cls-28 {
        fill: #ed847e;
      }

      .cls-29 {
        fill: #ebebeb;
      }

      .cls-31 {
        fill: #b55b52;
      }
    </style>
  </defs>
  <g id="Background_Simple" data-name="Background Simple">
    <g>
      <circle class="cls-6" cx="211.83" cy="192.18" r="132.59"/>
      <circle class="cls-8" cx="211.83" cy="192.18" r="132.59"/>
    </g>
  </g>
  <g id="Background_Complete" data-name="Background Complete">
    <rect class="cls-29" x="378.6" y="375.02" width="33.12" height=".25"/>
    <rect class="cls-29" x="284.35" y="377.73" width="8.69" height=".25"/>
    <rect class="cls-29" x="358.41" y="365.73" width="19.19" height=".25"/>
    <rect class="cls-29" x="14.28" y="367.41" width="43.19" height=".25"/>
    <rect class="cls-29" x="66.38" y="367.41" width="6.33" height=".25"/>
    <rect class="cls-29" x="93.3" y="371.63" width="93.68" height=".25"/>
    <path class="cls-29" d="M198.84,314.32H5.74c-3.15,0-5.71-2.56-5.71-5.71V37.18c0-3.15,2.56-5.71,5.71-5.71h193.1c3.15,0,5.71,2.56,5.71,5.71v271.43c0,3.15-2.56,5.71-5.71,5.71ZM5.74,31.73c-3.01,0-5.46,2.45-5.46,5.46v271.43c0,3.01,2.45,5.46,5.46,5.46h193.1c3.01,0,5.46-2.45,5.46-5.46V37.18c0-3.01-2.45-5.46-5.46-5.46H5.74Z"/>
    <path class="cls-29" d="M415.14,314.32h-193.1c-3.15,0-5.71-2.56-5.71-5.71V37.18c0-3.15,2.56-5.71,5.71-5.71h193.1c3.15,0,5.71,2.56,5.71,5.71v271.43c0,3.15-2.56,5.71-5.71,5.71ZM222.04,31.73c-3.01,0-5.46,2.45-5.46,5.46v271.43c0,3.01,2.45,5.46,5.46,5.46h193.1c3.01,0,5.46-2.45,5.46-5.46V37.18c0-3.01-2.45-5.46-5.46-5.46h-193.1Z"/>
    <g>
      <circle class="cls-11" cx="47.51" cy="79.75" r="32.56" transform="translate(-42.48 56.95) rotate(-45)"/>
      <g>
        <path class="cls-14" d="M11.59,78.58c0,18.47,14.97,33.43,33.43,33.43s33.43-14.97,33.43-33.43-14.97-33.43-33.43-33.43S11.59,60.12,11.59,78.58ZM39.43,53.82c-1.25.41-2.49.35-3.4-.07.52,2.33-1.77,4.4-3.93,5.58-2.8,1.53-5.96,2.16-6.57-.34-.36-1.51.77-3.64,3.63-5.59,1.55-1.05,4.03-1.84,5.57-1.24-.23-1.38,1.02-2.94,2.97-3.58,2.08-.69,4.15-.07,4.63,1.37.48,1.45-.82,3.18-2.89,3.87ZM55.68,65.32c-1.36,2.18-4.24,2.83-6.41,1.46-2.18-1.36-2.84-4.24-1.47-6.41,1.37-2.18,4.24-2.83,6.42-1.47,2.17,1.37,2.83,4.24,1.46,6.42ZM40.04,103.45c0-1.97,1.6-3.57,3.57-3.57s3.57,1.6,3.57,3.57-1.59,3.57-3.57,3.57-3.57-1.6-3.57-3.57ZM39.09,91.19c0-2.26,1.83-4.09,4.09-4.09.06,0,.12,0,.17,0-.66-3.58-.03-7.42,2.06-10.75,3.76-5.99,11.04-8.43,17.47-6.33.92-2.18,3.08-3.72,5.6-3.72,3.35,0,6.06,2.71,6.06,6.07,0,2.18-1.16,4.1-2.89,5.16,2.32,4.57,2.25,10.22-.67,14.87-2.06,3.28-5.17,5.5-8.62,6.48.27.46.42.99.42,1.56,0,1.71-1.38,3.1-3.09,3.1s-3.09-1.39-3.09-3.1c0-.36.06-.72.18-1.04-2.27-.22-4.54-.95-6.61-2.25-1.5-.94-2.77-2.1-3.81-3.41-.75.93-1.9,1.53-3.19,1.53-2.26,0-4.09-1.83-4.09-4.09ZM30.11,67.36c-.15-1.68,1.1-3.17,2.79-3.32.72-.06,1.41.13,1.97.51.1-2.29,1.9-4.21,4.25-4.41,2.56-.22,4.81,1.68,5.03,4.24.22,2.56-1.67,4.81-4.24,5.03-1.48.13-2.86-.45-3.8-1.46-.34,1.18-1.38,2.09-2.68,2.2-1.68.15-3.17-1.1-3.31-2.79ZM25.69,95.44c0-1.28,1.04-2.32,2.32-2.32s2.32,1.04,2.32,2.32-1.04,2.32-2.32,2.32-2.32-1.04-2.32-2.32ZM21.18,69.29c-.14-1.69,1.1-3.17,2.79-3.32,1.69-.14,3.17,1.1,3.32,2.79.15,1.69-1.1,3.17-2.79,3.32-1.68.14-3.17-1.1-3.32-2.79Z"/>
        <g>
          <g>
            <path class="cls-3" d="M25.69,95.44c0,1.28,1.04,2.32,2.32,2.32s2.32-1.04,2.32-2.32-1.04-2.32-2.32-2.32-2.32,1.04-2.32,2.32Z"/>
            <path class="cls-21" d="M25.35,95.44c0-1.46,1.19-2.66,2.66-2.66s2.66,1.19,2.66,2.66-1.19,2.66-2.66,2.66-2.66-1.19-2.66-2.66ZM26.03,95.44c0,1.09.89,1.98,1.98,1.98s1.98-.89,1.98-1.98-.89-1.98-1.98-1.98-1.98.89-1.98,1.98Z"/>
          </g>
          <g>
            <path class="cls-3" d="M40.04,103.45c0,1.97,1.6,3.57,3.57,3.57s3.57-1.6,3.57-3.57-1.59-3.57-3.57-3.57-3.57,1.6-3.57,3.57Z"/>
            <path class="cls-21" d="M39.7,103.45c0-2.15,1.75-3.9,3.9-3.9s3.9,1.75,3.9,3.9-1.75,3.9-3.9,3.9-3.9-1.75-3.9-3.9ZM40.37,103.45c0,1.78,1.45,3.23,3.23,3.23s3.23-1.45,3.23-3.23-1.45-3.23-3.23-3.23-3.23,1.45-3.23,3.23Z"/>
          </g>
          <g>
            <path class="cls-3" d="M49.27,66.78c2.18,1.37,5.05.71,6.41-1.46,1.37-2.18.71-5.05-1.46-6.42-2.18-1.36-5.05-.71-6.42,1.47-1.37,2.18-.71,5.05,1.47,6.41Z"/>
            <path class="cls-21" d="M49.09,67.07c-1.13-.71-1.92-1.81-2.21-3.11-.3-1.3-.07-2.63.64-3.76,1.46-2.33,4.55-3.03,6.88-1.57,2.33,1.47,3.03,4.55,1.57,6.88-.71,1.13-1.81,1.91-3.11,2.21-.37.09-.75.13-1.12.13-.93,0-1.84-.26-2.65-.77ZM48.08,60.55c-.61.98-.81,2.13-.55,3.25.26,1.12.94,2.08,1.91,2.69,0,0,0,0,0,0,.98.61,2.13.81,3.26.55,1.12-.26,2.08-.94,2.69-1.91,1.27-2.01.66-4.68-1.36-5.95-.71-.45-1.5-.66-2.29-.66-1.44,0-2.85.72-3.67,2.02Z"/>
          </g>
          <g>
            <path class="cls-3" d="M30.11,67.36c.14,1.69,1.63,2.93,3.31,2.79,1.3-.11,2.34-1.02,2.68-2.2.94,1.01,2.32,1.59,3.8,1.46,2.56-.22,4.45-2.47,4.24-5.03-.22-2.56-2.48-4.46-5.03-4.24-2.35.2-4.15,2.12-4.25,4.41-.56-.37-1.24-.57-1.97-.51-1.69.15-2.93,1.63-2.79,3.32Z"/>
            <path class="cls-21" d="M30.97,69.7c-.69-.58-1.12-1.4-1.2-2.31-.08-.9.2-1.78.78-2.48.58-.69,1.4-1.12,2.31-1.2.59-.04,1.18.06,1.71.3.34-2.24,2.2-4.01,4.5-4.21,2.74-.24,5.16,1.8,5.4,4.54.24,2.74-1.8,5.16-4.54,5.4-1.36.12-2.68-.32-3.7-1.2-.51,1.08-1.57,1.84-2.79,1.94-.1,0-.2.01-.3.01-.8,0-1.56-.28-2.18-.8ZM36.35,67.72c.91.98,2.2,1.47,3.53,1.36,2.37-.2,4.13-2.3,3.93-4.67-.1-1.15-.64-2.19-1.52-2.93-.88-.74-2-1.1-3.15-1-2.15.18-3.84,1.94-3.94,4.09,0,.12-.08.23-.18.28-.11.06-.24.05-.34-.02-.51-.34-1.13-.5-1.75-.45-.73.06-1.38.41-1.85.96-.47.56-.69,1.26-.63,1.99h0c.06.73.4,1.38.96,1.85.56.47,1.26.69,1.99.63,1.12-.1,2.08-.88,2.39-1.96.03-.12.13-.21.25-.23.03,0,.05,0,.08,0,.09,0,.18.04.25.11Z"/>
          </g>
          <g>
            <path class="cls-3" d="M21.18,69.29c.15,1.68,1.63,2.93,3.32,2.79,1.69-.15,2.93-1.63,2.79-3.32-.14-1.68-1.63-2.93-3.32-2.79-1.68.15-2.93,1.63-2.79,3.32Z"/>
            <path class="cls-21" d="M20.84,69.32h0c-.16-1.87,1.23-3.52,3.09-3.68,1.87-.16,3.52,1.23,3.68,3.09.16,1.87-1.22,3.52-3.09,3.68-.1,0-.19.01-.29.01-1.74,0-3.23-1.34-3.39-3.1ZM23.99,66.31c-1.49.13-2.61,1.46-2.48,2.95.13,1.5,1.45,2.6,2.95,2.48,1.5-.13,2.61-1.46,2.48-2.95-.12-1.42-1.32-2.49-2.72-2.49-.08,0-.16,0-.23,0ZM21.17,69.29h0,0Z"/>
          </g>
          <path class="cls-21" d="M27.02,90.64s.07,0,.11-.02c.18-.06.27-.25.21-.43-1.86-5.47-.4-16.44-.39-16.55.02-.18-.1-.35-.29-.38-.18-.02-.35.1-.38.29-.06.46-1.49,11.24.42,16.85.05.14.18.23.32.23Z"/>
          <path class="cls-21" d="M23.25,93.67c.1,0,.2-.04.27-.13.11-.15.09-.36-.06-.47-2.48-1.93-4.21-4.55-5.29-8.04-.06-.18-.24-.28-.42-.22-.18.05-.28.24-.22.42,1.12,3.62,2.93,6.35,5.52,8.37.06.05.13.07.21.07Z"/>
          <path class="cls-21" d="M37.59,98.38c.18,0,.33-.14.34-.33,0-.19-.14-.34-.33-.35-1.96-.06-3.68-.47-4.78-.8-.18-.05-.37.05-.42.23-.05.18.05.37.23.42,1.14.34,2.92.76,4.95.83h.01Z"/>
          <path class="cls-21" d="M25.57,104.2c.15,0,.28-.1.32-.25l1.14-4.2c.05-.18-.06-.36-.24-.41-.18-.05-.36.06-.41.24l-1.14,4.2c-.05.18.06.36.24.41.03,0,.06.01.09.01Z"/>
          <path class="cls-21" d="M18.39,98.42s.02,0,.03,0c2.37-.19,3.99-.82,4.93-1.31.16-.09.23-.29.14-.45-.09-.16-.29-.23-.45-.14-.89.46-2.42,1.06-4.67,1.23-.19.01-.32.18-.31.36.01.18.16.31.34.31Z"/>
          <path class="cls-21" d="M31.17,92.02c.13,0,.25-.07.31-.19,1.32-2.83,6.2-12.48,6.25-12.57.08-.17.02-.37-.15-.45-.17-.08-.37-.02-.45.15-.05.1-4.94,9.75-6.26,12.59-.08.17,0,.37.16.45.05.02.09.03.14.03Z"/>
          <path class="cls-21" d="M37.52,107.26c.12,0,.23-.06.29-.17.09-.16.03-.37-.13-.46-4.07-2.27-6.47-5.93-7.31-7.4-.09-.16-.3-.22-.46-.12-.16.09-.22.3-.12.46.87,1.52,3.35,5.3,7.56,7.65.05.03.11.04.16.04Z"/>
          <path class="cls-3" d="M39.09,91.19c0,2.26,1.83,4.09,4.09,4.09,1.29,0,2.44-.6,3.19-1.53,1.04,1.31,2.31,2.47,3.81,3.41,2.07,1.3,4.33,2.03,6.61,2.25-.12.32-.18.68-.18,1.04,0,1.71,1.38,3.1,3.09,3.1s3.09-1.39,3.09-3.1c0-.57-.15-1.1-.42-1.56,3.45-.99,6.56-3.2,8.62-6.48,2.93-4.66,2.99-10.3.67-14.87,1.73-1.06,2.89-2.98,2.89-5.16,0-3.35-2.71-6.07-6.06-6.07-2.52,0-4.68,1.53-5.6,3.72-6.43-2.1-13.71.34-17.47,6.33-2.09,3.33-2.72,7.16-2.06,10.75-.06,0-.12,0-.17,0-2.26,0-4.09,1.84-4.09,4.09ZM39.09,91.19c0,2.26,1.83,4.09,4.09,4.09,1.29,0,2.44-.6,3.19-1.53,1.04,1.31,2.31,2.47,3.81,3.41,2.07,1.3,4.33,2.03,6.61,2.25-.12.32-.18.68-.18,1.04,0,1.71,1.38,3.1,3.09,3.1s3.09-1.39,3.09-3.1c0-.57-.15-1.1-.42-1.56,3.45-.99,6.56-3.2,8.62-6.48,2.93-4.66,2.99-10.3.67-14.87,1.73-1.06,2.89-2.98,2.89-5.16,0-3.35-2.71-6.07-6.06-6.07-2.52,0-4.68,1.53-5.6,3.72-6.43-2.1-13.71.34-17.47,6.33-2.09,3.33-2.72,7.16-2.06,10.75-.06,0-.12,0-.17,0-2.26,0-4.09,1.84-4.09,4.09Z"/>
          <g>
            <path class="cls-3" d="M25.53,58.99c.61,2.5,3.76,1.88,6.57.34,2.16-1.18,4.46-3.25,3.93-5.58.9.43,2.15.48,3.4.07,2.08-.69,3.37-2.42,2.89-3.87-.48-1.44-2.55-2.06-4.63-1.37-1.94.64-3.2,2.2-2.97,3.58-1.53-.6-4.02.19-5.57,1.24-2.86,1.95-3.99,4.08-3.63,5.59Z"/>
            <path class="cls-21" d="M26.55,60.76c-.69-.31-1.14-.88-1.34-1.69h0c-.43-1.79,1.01-4.07,3.77-5.95,1.47-1,3.75-1.76,5.39-1.42.07-1.41,1.36-2.83,3.22-3.44,1.07-.36,2.17-.4,3.12-.12.98.29,1.67.9,1.94,1.7.54,1.62-.86,3.54-3.11,4.29-1.07.35-2.17.39-3.09.12.14,2.76-3.12,4.78-4.18,5.36-.87.47-2.75,1.39-4.4,1.39-.47,0-.92-.07-1.32-.25ZM36.18,53.45c.86.4,2.03.43,3.15.06,1.9-.63,3.1-2.18,2.68-3.44-.2-.59-.73-1.04-1.49-1.27-.81-.24-1.77-.2-2.71.11-1.74.58-2.95,1.98-2.74,3.2.02.12-.03.24-.12.32-.09.08-.22.1-.33.05-1.39-.54-3.76.19-5.26,1.2-3.01,2.05-3.78,4.05-3.49,5.23h0c.15.61.46,1.01.96,1.23,1.07.47,2.98.06,5.12-1.11,1.03-.56,4.35-2.61,3.77-5.21-.03-.13.02-.26.12-.34.06-.05.14-.07.21-.07.05,0,.1.01.14.03ZM25.53,58.99h0,0Z"/>
          </g>
        </g>
        <path class="cls-21" d="M56.27,100.46c0-.26.03-.51.08-.75-2.24-.27-4.43-1.05-6.35-2.25-1.39-.87-2.61-1.94-3.64-3.18-.83.86-1.97,1.34-3.17,1.34-2.44,0-4.43-1.99-4.43-4.43s1.87-4.31,4.2-4.42c-.13-.8-.19-1.6-.19-2.4,0-2.88.81-5.71,2.37-8.19,3.72-5.93,10.91-8.59,17.57-6.56,1.06-2.22,3.3-3.64,5.78-3.64,3.53,0,6.4,2.87,6.4,6.4,0,2.14-1.04,4.09-2.79,5.28,1.02,2.12,1.53,4.42,1.53,6.71,0,2.87-.79,5.73-2.35,8.22-1.95,3.11-4.94,5.41-8.43,6.51.18.42.28.89.28,1.35,0,1.89-1.54,3.43-3.43,3.43s-3.43-1.54-3.43-3.43ZM62.08,99.07l-.22-.37.42-.12c3.5-1,6.49-3.25,8.43-6.34,1.49-2.38,2.25-5.12,2.25-7.86,0-2.29-.53-4.59-1.59-6.68l-.14-.28.26-.16c1.71-1.05,2.73-2.87,2.73-4.88,0-3.16-2.57-5.73-5.72-5.73-2.31,0-4.39,1.38-5.29,3.51l-.12.29-.29-.1c-6.44-2.11-13.47.44-17.08,6.19-1.49,2.37-2.26,5.08-2.26,7.83,0,.89.08,1.78.24,2.67l.07.4h-.58c-2.07,0-3.76,1.68-3.76,3.75s1.68,3.76,3.76,3.76c1.14,0,2.21-.51,2.92-1.4l.27-.33.26.33c1.03,1.31,2.29,2.43,3.72,3.34,1.95,1.22,4.18,1.98,6.46,2.2l.43.04-.15.41c-.1.29-.16.61-.16.93,0,1.52,1.24,2.76,2.75,2.76s2.75-1.24,2.75-2.76c0-.49-.13-.97-.38-1.39Z"/>
      </g>
      <path class="cls-14" d="M57.09,85.1c-.44-.29-.73-.72-.84-1.24-.22-1.05.46-2.09,1.52-2.31.51-.1,1.03,0,1.47.28.44.29.74.73.84,1.24.11.51,0,1.03-.28,1.47-.29.44-.73.74-1.24.84-.14.03-.27.04-.41.04-.38,0-.74-.11-1.07-.32Z"/>
    </g>
    <g>
      <g>
        <path class="cls-3" d="M408.49,192c0,47.19-38.1,85.59-84.94,85.59s-84.94-38.39-84.94-85.59,38.1-85.59,84.94-85.59c28.89,0,55.42,14.53,71.19,38.9l-6.25,3.91,16.3,4.7,2.78-16.63-5.83,3.65c-17.28-26.82-46.44-42.82-78.19-42.82-51.38,0-93.18,42.12-93.18,93.89s41.8,93.89,93.18,93.89,93.18-42.12,93.18-93.89h-8.24Z"/>
        <path class="cls-32" d="M408.49,192c0,47.19-38.1,85.59-84.94,85.59s-84.94-38.39-84.94-85.59,38.1-85.59,84.94-85.59c28.89,0,55.42,14.53,71.19,38.9l-6.25,3.91,16.3,4.7,2.78-16.63-5.83,3.65c-17.28-26.82-46.44-42.82-78.19-42.82-51.38,0-93.18,42.12-93.18,93.89s41.8,93.89,93.18,93.89,93.18-42.12,93.18-93.89h-8.24Z"/>
      </g>
      <g>
        <g>
          <path class="cls-23" d="M336.1,174.27v-11.28l-5.77-.55c-.78-3.78-2.27-7.3-4.3-10.42l3.7-4.51-7.92-7.98-4.47,3.73c-3.1-2.05-6.59-3.55-10.34-4.33l-.54-5.81h-11.2l-.54,5.81c-3.75.78-7.24,2.28-10.34,4.33l-4.47-3.73-7.92,7.98,3.7,4.51c-2.03,3.12-3.52,6.64-4.3,10.42l-5.77.55v11.28l5.77.55c.78,3.78,2.27,7.3,4.3,10.42l-3.7,4.51,7.92,7.98,4.47-3.73c3.1,2.05,6.59,3.55,10.34,4.33l.54,5.81h11.2l.54-5.81c3.75-.78,7.24-2.28,10.34-4.33l4.47,3.73,7.92-7.98-3.7-4.51c2.03-3.12,3.52-6.64,4.3-10.42l5.77-.55ZM300.86,183.91c-8.37,0-15.16-6.84-15.16-15.28s6.79-15.28,15.16-15.28,15.16,6.84,15.16,15.28-6.79,15.28-15.16,15.28Z"/>
          <path class="cls-25" d="M381.49,206.12v-8.84l-4.52-.43c-.61-2.96-1.78-5.72-3.37-8.17l2.9-3.53-6.2-6.25-3.51,2.92c-2.43-1.61-5.16-2.78-8.11-3.4l-.43-4.55h-8.78l-.43,4.55c-2.94.61-5.68,1.79-8.11,3.4l-3.51-2.92-6.21,6.25,2.9,3.53c-1.59,2.45-2.76,5.2-3.37,8.17l-4.52.43v8.84l4.52.43c.61,2.96,1.78,5.72,3.37,8.17l-2.9,3.53,6.21,6.25,3.51-2.92c2.43,1.61,5.16,2.78,8.11,3.4l.43,4.55h8.78l.43-4.55c2.94-.61,5.68-1.79,8.11-3.4l3.51,2.92,6.2-6.25-2.9-3.53c1.59-2.45,2.76-5.2,3.37-8.17l4.52-.43ZM353.87,213.67c-6.56,0-11.88-5.36-11.88-11.97s5.32-11.97,11.88-11.97,11.88,5.36,11.88,11.97-5.32,11.97-11.88,11.97Z"/>
          <path class="cls-3" d="M336.1,231.23v-7.43l-3.8-.36c-.51-2.49-1.49-4.8-2.83-6.86l2.44-2.97-5.21-5.25-2.94,2.46c-2.04-1.35-4.34-2.34-6.81-2.85l-.36-3.82h-7.37l-.36,3.82c-2.47.52-4.77,1.5-6.81,2.85l-2.94-2.46-5.21,5.25,2.44,2.97c-1.34,2.06-2.32,4.37-2.83,6.86l-3.8.36v7.43s3.8.36,3.8.36c.51,2.49,1.49,4.8,2.83,6.86l-2.44,2.97,5.21,5.25,2.94-2.46c2.04,1.35,4.34,2.34,6.81,2.85l.36,3.82h7.37l.36-3.82c2.47-.52,4.77-1.5,6.81-2.85l2.94,2.46,5.21-5.25-2.44-2.97c1.34-2.06,2.32-4.37,2.83-6.86l3.8-.36ZM312.9,237.57c-5.51,0-9.98-4.5-9.98-10.05s4.47-10.05,9.98-10.05,9.98,4.5,9.98,10.05-4.47,10.05-9.98,10.05Z"/>
        </g>
        <g>
          <path class="cls-26" d="M336.1,174.27v-11.28l-5.77-.55c-.78-3.78-2.27-7.3-4.3-10.42l3.7-4.51-7.92-7.98-4.47,3.73c-3.1-2.05-6.59-3.55-10.34-4.33l-.54-5.81h-11.2l-.54,5.81c-3.75.78-7.24,2.28-10.34,4.33l-4.47-3.73-7.92,7.98,3.7,4.51c-2.03,3.12-3.52,6.64-4.3,10.42l-5.77.55v11.28l5.77.55c.78,3.78,2.27,7.3,4.3,10.42l-3.7,4.51,7.92,7.98,4.47-3.73c3.1,2.05,6.59,3.55,10.34,4.33l.54,5.81h11.2l.54-5.81c3.75-.78,7.24-2.28,10.34-4.33l4.47,3.73,7.92-7.98-3.7-4.51c2.03-3.12,3.52-6.64,4.3-10.42l5.77-.55ZM300.86,183.91c-8.37,0-15.16-6.84-15.16-15.28s6.79-15.28,15.16-15.28,15.16,6.84,15.16,15.28-6.79,15.28-15.16,15.28Z"/>
          <path class="cls-12" d="M381.49,206.12v-8.84l-4.52-.43c-.61-2.96-1.78-5.72-3.37-8.17l2.9-3.53-6.2-6.25-3.51,2.92c-2.43-1.61-5.16-2.78-8.11-3.4l-.43-4.55h-8.78l-.43,4.55c-2.94.61-5.68,1.79-8.11,3.4l-3.51-2.92-6.21,6.25,2.9,3.53c-1.59,2.45-2.76,5.2-3.37,8.17l-4.52.43v8.84l4.52.43c.61,2.96,1.78,5.72,3.37,8.17l-2.9,3.53,6.21,6.25,3.51-2.92c2.43,1.61,5.16,2.78,8.11,3.4l.43,4.55h8.78l.43-4.55c2.94-.61,5.68-1.79,8.11-3.4l3.51,2.92,6.2-6.25-2.9-3.53c1.59-2.45,2.76-5.2,3.37-8.17l4.52-.43ZM353.87,213.67c-6.56,0-11.88-5.36-11.88-11.97s5.32-11.97,11.88-11.97,11.88,5.36,11.88,11.97-5.32,11.97-11.88,11.97Z"/>
          <path class="cls-30" d="M336.1,231.23v-7.43l-3.8-.36c-.51-2.49-1.49-4.8-2.83-6.86l2.44-2.97-5.21-5.25-2.94,2.46c-2.04-1.35-4.34-2.34-6.81-2.85l-.36-3.82h-7.37l-.36,3.82c-2.47.52-4.77,1.5-6.81,2.85l-2.94-2.46-5.21,5.25,2.44,2.97c-1.34,2.06-2.32,4.37-2.83,6.86l-3.8.36v7.43s3.8.36,3.8.36c.51,2.49,1.49,4.8,2.83,6.86l-2.44,2.97,5.21,5.25,2.94-2.46c2.04,1.35,4.34,2.34,6.81,2.85l.36,3.82h7.37l.36-3.82c2.47-.52,4.77-1.5,6.81-2.85l2.94,2.46,5.21-5.25-2.44-2.97c1.34-2.06,2.32-4.37,2.83-6.86l3.8-.36ZM312.9,237.57c-5.51,0-9.98-4.5-9.98-10.05s4.47-10.05,9.98-10.05,9.98,4.5,9.98,10.05-4.47,10.05-9.98,10.05Z"/>
        </g>
      </g>
    </g>
  </g>
  <g id="Shadow">
    <ellipse id="_Path_" data-name="&amp;lt;Path&amp;gt;" class="cls-13" cx="211.83" cy="398.22" rx="193.89" ry="11.32"/>
  </g>
  <g id="Circles">
    <g>
      <path class="cls-24" d="M206.59,188.81s-.09.1-.13.15h-.17c.1-.06.19-.11.3-.15Z"/>
      <path class="cls-24" d="M224.26,203.11s-.06-.02-.08-.04c0,0,0-.02.01-.03.02.02.04.05.06.07Z"/>
      <g>
        <g>
          <circle class="cls-1" cx="310.71" cy="93.67" r="53.49"/>
          <circle class="cls-1" cx="311" cy="93.67" r="8.91" transform="translate(24.85 247.34) rotate(-45)"/>
        </g>
        <path class="cls-6" d="M310.7,40.18c-29.54,0-53.49,23.95-53.49,53.49s23.95,53.49,53.49,53.49,53.5-23.95,53.5-53.49-23.95-53.49-53.5-53.49ZM317.51,100.19c-9.53,7.27-20.32-3.52-13.05-13.05,9.53-7.27,20.32,3.52,13.05,13.05Z"/>
      </g>
      <g>
        <circle class="cls-1" cx="78.45" cy="194.32" r="8.28" transform="translate(-114.43 112.39) rotate(-45)"/>
        <circle class="cls-4" cx="78.45" cy="194.32" r="8.28" transform="translate(-114.43 112.39) rotate(-45)"/>
      </g>
      <path class="cls-1" d="M119.25,176.53c-3.21-.5-13.31.4-13.31.4l-2.27-2.88s6.79-11.45,5.13-13.65c-1.66-2.2-13.59-9.18-15.58-8.31-1.99.86-7.97,9.28-7.97,9.28l-4.18-.55s-1.63-11.59-6.34-11.37c-4.71.23-13.95,3.28-15.8,4.47-1.85,1.19.93,12.53.93,12.53l-3.05,2.44-1.31-.63s-9.06-5.66-11.65-3.72c-2.59,1.94-8.74,14.56-8.25,16.18.49,1.62,9.94,8.41,9.94,8.41l-.71,3.24s-10.68,3.24-11.16,6.31c-.49,3.07,1.46,15.69,4.69,16.02,3.24.32,13.27-1.13,13.27-1.13l2.43,2.75s-6.15,11.81-4.37,13.91c1.78,2.1,14.07,8.41,16.02,7.44,1.94-.97,7.44-9.71,7.44-9.71l4.21.32s2.26,11.49,6.96,11c4.69-.49,13.75-4.04,15.53-5.34,1.78-1.29-1.62-12.46-1.62-12.46l3.07-2.75s9.06,5.5,12.46,3.24c3.4-2.26,8.9-12.94,8.09-14.56-.81-1.62-9.06-8.41-9.06-8.41l.04-.86c2.87-.8,9.73-2.95,10.24-5.35.65-3.04-.59-15.75-3.8-16.25ZM78.4,208.68c-8.07,0-14.62-6.54-14.62-14.62s6.54-14.62,14.62-14.62,14.62,6.54,14.62,14.62-6.54,14.62-14.62,14.62Z"/>
      <circle class="cls-11" cx="391.62" cy="311.57" r=".67"/>
      <g>
        <g>
          <path class="cls-19" d="M351.7,51.83c-5.91-5.68-13.01-10.16-20.53-12.96l.35-.94c7.65,2.84,14.87,7.4,20.87,13.17l-.69.72Z"/>
          <path class="cls-19" d="M326.46,37.35c-.95-.26-1.93-.51-2.91-.72l.22-.98c.99.22,1.99.47,2.96.73l-.27.96Z"/>
        </g>
        <g>
          <path class="cls-19" d="M59.52,276.65c-1.52-3.31-3.94-6.03-7-7.88l.52-.86c3.23,1.95,5.79,4.82,7.39,8.32l-.91.42Z"/>
          <path class="cls-19" d="M49.45,267.31c-.99-.36-2.02-.63-3.08-.82l.17-.98c1.11.2,2.21.49,3.25.87l-.34.94Z"/>
        </g>
        <path class="cls-19" d="M10.84,379l-.41-.91c14.32-7.72,27.8-10.21,42.73-14.34l.27.96c-14.88,4.12-26.98,6.49-42.59,14.29Z"/>
        <path class="cls-19" d="M.52,384.66l-.52-.86c1.53-.92,3.09-1.82,4.64-2.68l.48.88c-1.54.85-3.09,1.75-4.6,2.66Z"/>
      </g>
      <path class="cls-1" d="M42.09,303.06c-9.55,0-17.33-7.77-17.33-17.33s7.77-17.33,17.33-17.33,17.33,7.77,17.33,17.33-7.77,17.33-17.33,17.33ZM42.09,269.9c-8.73,0-15.83,7.1-15.83,15.83s7.1,15.83,15.83,15.83,15.83-7.1,15.83-15.83-7.1-15.83-15.83-15.83Z"/>
      <path class="cls-19" d="M212.13,445.66c-56.18,0-109.01-4.48-148.75-12.6-40.08-8.2-62.15-19.25-62.15-31.12s22.07-22.93,62.15-31.12c39.74-8.13,92.57-12.6,148.75-12.6s109.01,4.48,148.75,12.6c40.08,8.2,62.15,19.25,62.15,31.12s-22.07,22.93-62.15,31.12c-39.74,8.13-92.57,12.6-148.75,12.6ZM212.13,359.71c-56.09,0-108.81,4.46-148.45,12.57-38.74,7.92-60.95,18.73-60.95,29.65s22.22,21.73,60.95,29.65c39.65,8.11,92.37,12.57,148.45,12.57s108.81-4.46,148.45-12.57c38.74-7.92,60.95-18.73,60.95-29.65s-22.22-21.73-60.95-29.65c-39.65-8.11-92.37-12.57-148.45-12.57Z"/>
    </g>
    <g>
      <path class="cls-7" d="M112.91,138.44v-43.81h15.27v7.16c1.03-1.98,2.93-3.88,5.61-5.61,2.76-1.81,5.69-2.67,8.8-2.67.78,0,1.47.09,1.9.17v14.75c-1.81-.43-3.54-.69-5.17-.69-5.17,0-9.4,2.16-11.12,5.26v25.44h-15.27Z"/>
      <path class="cls-7" d="M156.28,133.35c-4.74-4.23-7.07-9.83-7.07-16.82,0-6.47,2.16-11.99,6.38-16.39,4.23-4.4,9.83-6.64,16.82-6.64,6.21,0,11.3,2.16,15.18,6.47,3.97,4.23,5.95,9.75,5.95,16.47v3.79h-29.32c1.29,4.57,6.47,6.81,12.76,6.81,4.74,0,9.49-1.29,14.06-3.79v11.73c-4.14,3.02-9.92,4.57-17.42,4.57-6.81,0-12.59-2.07-17.33-6.21ZM178.62,112.13c-.09-4.4-3.19-7.42-6.9-7.42-4.05,0-6.99,2.85-7.59,7.42h14.49Z"/>
      <path class="cls-7" d="M205.96,133.35c-4.74-4.23-7.07-9.83-7.07-16.82,0-6.47,2.16-11.99,6.38-16.39,4.23-4.4,9.83-6.64,16.82-6.64,6.21,0,11.3,2.16,15.18,6.47,3.97,4.23,5.95,9.75,5.95,16.47v3.79h-29.32c1.29,4.57,6.47,6.81,12.76,6.81,4.74,0,9.49-1.29,14.06-3.79v11.73c-4.14,3.02-9.92,4.57-17.42,4.57-6.81,0-12.59-2.07-17.33-6.21ZM228.29,112.13c-.09-4.4-3.19-7.42-6.9-7.42-4.05,0-6.99,2.85-7.59,7.42h14.49Z"/>
      <path class="cls-7" d="M266.58,138.44h-15.27v-43.81h15.27v4.92c3.79-4.05,8.19-6.04,13.28-6.04,9.75,0,15.61,6.99,15.61,18.02v26.91h-15.27v-24.06c0-5.17-2.76-7.24-6.3-7.24-3.02,0-5.43,1.29-7.33,3.88v27.43Z"/>
      <path class="cls-19" d="M306.08,138.44v-60.37h15.52v60.37h-15.52Z"/>
      <path class="cls-19" d="M348.25,138.44v-46.74h-18.11v-13.63h51.83v13.63h-18.2v46.74h-15.52Z"/>
    </g>
    <path class="cls-22" d="M92.29,214c-6.24-4.63-13.5-7.74-21.15-9.06-.57-.1-.93.4-.71.92,4.16,9.59,8.32,19.19,12.48,28.78.12-.31.25-.61.37-.92-12.1,3.28-24.2,6.57-36.3,9.85-.63.17-.56,1,0,1.21,10.72,3.87,22.02,5.95,33.41,6.16-.15-.36-.29-.71-.44-1.07-6.69,6.36-12.74,13.37-18.08,20.9-.27.39.09.95.54.94,7.71-.25,15.32-1.79,22.51-4.59.74-.29.42-1.5-.33-1.21-7.09,2.76-14.57,4.3-22.18,4.55.18.31.36.63.54.94,5.28-7.45,11.27-14.36,17.88-20.65.4-.38.09-1.06-.44-1.07-11.29-.21-22.46-2.28-33.07-6.11v1.21l36.3-9.85c.43-.12.53-.56.37-.92-4.16-9.59-8.32-19.19-12.48-28.78-.24.31-.47.61-.71.92,7.57,1.31,14.69,4.36,20.85,8.94.65.48,1.27-.6.63-1.08h0Z"/>
    <path class="cls-22" d="M333,296.74c6.57-5.34,13.73-9.9,21.34-13.6-.31-.24-.61-.47-.92-.71-3.04,9.05-7.6,17.55-13.49,25.07-.25.32-.25.97.28,1.04,10.63,1.52,21.26,3.04,31.89,4.56-.05-.38-.1-.76-.15-1.14-8.77,6.13-18.78,10.25-29.32,12.07-.51.09-.54.72-.28,1.04,6.7,8.19,12.63,16.98,17.75,26.25.24-.31.47-.61.71-.92-7.83-1.99-15.34-5-22.37-8.99-.7-.4-1.33.68-.63,1.08,7.11,4.04,14.74,7.11,22.67,9.12.53.14.97-.44.71-.92-5.17-9.36-11.18-18.22-17.95-26.5-.09.35-.18.7-.28,1.04,10.63-1.84,20.77-6.01,29.62-12.19.38-.27.44-1.06-.15-1.14-10.63-1.52-21.26-3.04-31.89-4.56.09.35.18.7.28,1.04,6.03-7.7,10.7-16.35,13.81-25.62.19-.56-.46-.93-.92-.71-7.71,3.75-14.95,8.38-21.6,13.79-.62.51.26,1.39.88.88h0Z"/>
    <path class="cls-7" d="M83.11,104.55c6.56-3.24,13.13-6.49,19.69-9.73-.6-1.39-1.54-3.28-3.02-5.28-6.31-8.55-16.01-10.58-18.41-11.01-2.96-.53-10.87-1.49-19.24,2.87-9.56,4.97-13.22,13.5-14.18,15.99-.62,1.61-4.97,13.48,1.58,25.5,4.85,8.89,12.71,12.44,14.71,13.28,1.8.75,9.24,3.66,18.41,1.51,1.77-.42,6-1.58,10.49-4.75,1.48-1.05,5.72-4.25,8.98-9.96,2.39-4.2,3.18-7.87,3.39-8.98.45-2.28.54-4.26.53-5.73-10.16.03-20.32.05-30.48.08,4.78,2.67,9.56,5.33,14.33,8-.45,1.13-1.03,2.33-1.81,3.55-3.66,5.71-9.29,8.14-12.15,9.13-.35-.16-.85-.38-1.43-.68-2.06-1.03-6.06-3.04-9.13-6.56-1.03-1.19-4.58-5.37-4.98-11.69-.1-1.59-.3-5.53,2.04-9.66.64-1.13,2.44-4.22,6.26-6.19,4.94-2.55,9.69-1.38,10.94-1.06,5.13,1.34,7.98,4.83,8.83,5.96-1.79,1.81-3.57,3.62-5.36,5.43Z"/>
  </g>
  <g id="Character_1" data-name="Character 1">
    <g>
      <g id="Character--inject-68">
        <path class="cls-19" d="M194.83,385.99c-.35-.29-.54-.73-.51-1.18,0-.27.15-.52.38-.66,1.19-.74,5.46,1.27,5.94,1.5.09.05.15.15.13.25-.01.1-.09.19-.19.21-1.07.25-2.16.41-3.26.46-.87.08-1.75-.12-2.49-.58ZM199.74,385.8c-1.75-.77-4.16-1.61-4.83-1.23-.09.06-.14.16-.14.27-.03.3.1.6.33.79.66.55,2.36.6,4.64.15v.02Z"/>
        <path class="cls-19" d="M200.42,386.16c-1.27-.53-3.86-2.73-3.71-3.88.04-.28.22-.62.89-.71l.19-.04c2.32-.05,2.91,4.17,2.95,4.35.02.08-.02.17-.08.22-.05.03-.1.04-.15.03l-.1.02ZM197.71,382.02c-.44.05-.48.28-.48.28-.13.72,1.67,2.42,2.95,3.17-.22-1.04-.89-3.49-2.38-3.45h-.1Z"/>
        <polygon class="cls-31" points="199.79 361.49 189.66 364.63 200.63 385.77 210.75 382.63 199.79 361.49"/>
        <path class="cls-24" d="M198.16,385.38c-2.08,2.83-2.3,5.35-9.79,8.82-1.66.78-.37,4.89,3.88,3.93s8.21-2.18,11.28-2.88c5-1.13,6.96-1.32,10.94-2.15.08-.02.16-.04.24-.07.83-.32,1.24-1.24.93-2.07l-3.63-8.62c-.16-.39-.58-.6-.99-.51l-11.35,2.56c-.6.15-1.13.5-1.5.99Z"/>
        <polygon class="cls-2" points="199.8 361.49 205.46 372.4 195.76 376.38 189.67 364.63 199.8 361.49"/>
        <g>
          <path class="cls-20" d="M205.88,368.41l-13.79,5.09s-28.9-33.53-44.76-63.92c-4.19-8.01-6.54-20.53-7.77-34.11v-.02c-1.33-14.62-1.37-30.47-1.03-43.25.39-14.69,1.28-25.32,1.28-25.32,0,0,10.78-4.47,21.32-8.16,31.92,38.34-8.86,68.41,6.48,101.45,14.05,30.31,38.27,68.24,38.27,68.24Z"/>
          <path class="cls-5" d="M205.88,368.41l-13.79,5.09s-28.9-33.53-44.76-63.92c-4.19-8.01-6.54-20.53-7.77-34.11v-.02c-1.33-14.62-1.37-30.47-1.03-43.25.39-14.69,1.28-25.32,1.28-25.32,0,0,10.78-4.47,21.32-8.16,31.92,38.34-8.86,68.41,6.48,101.45,14.05,30.31,38.27,68.24,38.27,68.24Z"/>
        </g>
        <polygon class="cls-7" points="186.93 368.92 205.38 363.72 207.29 368.42 190.94 374.92 186.93 368.92"/>
        <g>
          <path class="cls-31" d="M123.74,142.89c-.74-.49-1.39-1.08-1.99-1.72-1.62-1.73-17.2-27.38-18.08-27.98-1.76-1.2-3.06,1.01-4.46,2.62-.23.26-.46.55-.48.89-.01.24.08.47.18.69,3.66,8.56,7.33,17.13,10.99,25.69,1.53,3.57,3.26,7.4,6.66,9.29,8.28,4.61,27.69,1.94,32.37.04,2.78-1.13,5.55-2.68,7.11-5.23,1.56-2.56,1.43-6.34-.97-8.13-4.11-3.07-26.42,7.09-31.33,3.85Z"/>
          <g>
            <path class="cls-31" d="M103.67,113.19l-4.41-8.28-7.99,6.97s4.51,7.06,10.66,4.83l1.74-3.52Z"/>
            <polygon class="cls-31" points="94.06 103.68 86.58 107.35 91.28 111.89 99.27 104.92 94.06 103.68"/>
          </g>
          <path class="cls-24" d="M104.9,106.68l-22.42,2.82c-.12.01-.23,0-.35-.02l-1.93-.52,1.58-.99c.1-.07.22-.11.34-.13l22.4-3.46c.47-.07.92.24,1.02.7l.11.53c.11.51-.25,1.01-.77,1.08Z"/>
          <polygon class="cls-31" points="96.88 108.29 91.65 106.33 89.67 107.86 93.8 111.26 96.88 108.29"/>
          <g class="cls-34">
            <path class="cls-9" d="M156.04,147.17c-1.56,2.56-4.34,4.11-7.12,5.23-4.67,1.9-24.09,4.57-32.36-.03-3.4-1.89-5.13-5.72-6.66-9.29-3.66-8.57-7.33-17.13-10.99-25.7-.04-.09-.08-.19-.11-.28-4.34-.45-7.33-4.93-7.52-5.21l-4.7-4.54,7.49-3.67,5.17,1.23h.03s4.4,8.28,4.4,8.28c.88.6,16.47,26.24,18.08,27.97.6.65,1.26,1.24,1.99,1.73,4.91,3.24,27.23-6.92,31.33-3.85,2.4,1.79,2.53,5.57.97,8.13Z"/>
            <polygon class="cls-9" points="99.27 104.92 99.24 104.91 99.26 104.9 99.27 104.92"/>
          </g>
        </g>
        <path class="cls-24" d="M106.42,115.84c-.56.15-.81.94-.56,1.74s.79,1.33,1.34,1.17c.56-.16.78-.94.56-1.75-.17-.81-.79-1.31-1.34-1.16Z"/>
        <path class="cls-24" d="M104.54,116.13l1.99-.62c-.28,1.38-1.99.62-1.99.62Z"/>
        <path class="cls-15" d="M108.97,123.7c-.93.51-2.04.59-3.03.21.83-1.89,1.41-3.88,1.71-5.93l1.32,5.72Z"/>
        <path class="cls-24" d="M104.74,111.75c-.14-.23-.07-.52.16-.66,1.3-.93,2.96-1.19,4.48-.69.2.11.3.34.24.56-.07.26-.34.42-.6.35-1.22-.37-2.54-.15-3.57.59-.06.05-.14.07-.22.08-.19.03-.39-.06-.49-.22Z"/>
        <path class="cls-31" d="M123.68,130.14c2.09,4.4,3.23,9.33-3.18,12.44,0,0-5.23,7.53,7.09,4.75,11.24-2.52,14.2-9.37,14.2-9.37-5-3.06-7.99-13.07-7.99-19.34l-10.13,11.52Z"/>
        <path class="cls-2" d="M107.49,155.45c.78,3.91,2,9.54,3.97,17.3,1.69-1.82,3.09-3.88,4.15-6.13,3.69-7.81-2.97-11.75-8.12-11.17Z"/>
        <path class="cls-31" d="M131.14,100.51c-4.87-5.8-13.52-6.56-19.32-1.69-8.6,6.84-5.98,21.87-1.44,30.08,5.03,9.12,17.79,8.37,23.25-1.46,3.62-6.56,2.52-10.72.46-20.76-.45-2.27-1.46-4.39-2.95-6.16Z"/>
        <path class="cls-24" d="M107.32,154.57c1.54,8.04,6.76,22.52,13.62,51.8l41.95-5.52c-2.23-15.3-5.05-26.33-3.55-55.06,0-.18.01-.35.01-.53-.01-5.21-4.25-9.43-9.46-9.42-13.07.3-25.92,3.37-37.72,9-3.64,1.76-5.63,5.75-4.85,9.71Z"/>
        <path class="cls-31" d="M113.93,114.05c-1.8,2.2-1.26,5.88-.33,7.71,1.03,2.05,3.24,2.17,4.39-.63.84-2,1.04-4.2.58-6.32-.61-2.33-2.83-2.97-4.63-.77Z"/>
        <path class="cls-2" d="M142.61,295.79c-.85-7.47-1.95-14.22-3.05-20.32v-.02c-1.33-14.62-1.37-30.47-1.03-43.25.02-.01.03-.03.04-.04l.33-.08c1.52-.72,3.23-.04,5.12,2.39,14.38,7.67,3.29,42.51-1.41,61.32Z"/>
        <path class="cls-19" d="M108.91,390.96c-.36-.28-.56-.71-.54-1.16,0-.27.13-.53.36-.68,1.2-.78,5.51,1.11,6,1.33.09.04.15.14.14.24,0,.11-.08.2-.19.22-1.06.28-2.13.46-3.22.55-.88.13-1.79-.05-2.56-.5ZM109,389.57c-.09.06-.14.16-.13.26-.02.3.11.59.35.78.68.49,2.38.5,4.64,0-1.77-.72-4.2-1.5-4.86-1.04Z"/>
        <path class="cls-1" d="M114.55,390.88c-1.29-.5-3.91-2.6-3.79-3.78.03-.27.21-.62.86-.72h.21c2.32-.11,3.05,4.08,3.05,4.26.01.09-.02.17-.09.23-.04.03-.09.05-.14.05l-.1-.04ZM111.7,386.88c-.45.07-.45.29-.45.29-.08.71,1.72,2.37,3.05,3.07-.27-1.04-.96-3.46-2.46-3.38h-.14Z"/>
        <polygon class="cls-31" points="121.38 367.72 111.2 367.69 116.01 392.12 126.2 392.14 121.38 367.72"/>
        <path class="cls-24" d="M113.17,390.55c-2.68,2.31-5.8,4.71-13.88,6.46-1.8.39-1.46,4.69,2.88,4.69s10.85-.33,14.01-.33c5.11,0,7.08.24,11.13.31.09,0,.17,0,.26-.02.88-.13,1.49-.94,1.36-1.82l-1.56-9.21c-.07-.41-.43-.71-.84-.71h-11.65c-.63,0-1.23.23-1.72.63Z"/>
        <polygon class="cls-2" points="121.39 367.73 123.87 380.33 113.87 381.27 111.21 367.7 121.39 367.73"/>
        <g>
          <path class="cls-20" d="M152.29,202.41c10.6,47.97-43.01,65.73-38.64,100.52,4.01,31.92,11.02,74.4,11.02,74.4l-15.02,1.16s-11.46-41.32-17.48-73.45c-5.79-30.91,29.39-98.65,29.39-98.65,0,0,19.25-2.71,30.72-3.98Z"/>
          <path class="cls-5" d="M152.29,202.41c10.6,47.97-43.01,65.73-38.64,100.52,4.01,31.92,11.02,74.4,11.02,74.4l-15.02,1.16s-11.46-41.32-17.48-73.45c-5.79-30.91,29.39-98.65,29.39-98.65,0,0,19.25-2.71,30.72-3.98Z"/>
        </g>
        <polygon class="cls-7" points="106.11 372.34 126.55 372.41 126.4 377.43 107.49 379.18 106.11 372.34"/>
        <path class="cls-17" d="M162.71,198.01l-42.68,5.69c-.42.05-.78.31-.78.56v3.62c0,.23.28.33.67.33l44.2-5.89c.48-.07.86-.4.75-.67l-1.46-3.42c-.16-.21-.44-.3-.7-.22Z"/>
        <path class="cls-7" d="M162.71,198.01l-42.68,5.69c-.42.05-.78.31-.78.56v3.62c0,.23.28.33.67.33l44.2-5.89c.48-.07.86-.4.75-.67l-1.46-3.42c-.16-.21-.44-.3-.7-.22Z"/>
        <path class="cls-24" d="M125.8,91.66c-6.03,1.16-3.72,3.47-7,3-8.66-1.25-12.16,2.3-12.98,8.71-.86,6.7,2.25,7.66,2.79,16.14.08,1.23.92,2.33,1.82,3.17.9.83,2.31,1.23,3.39.64.79,4.12,4.76,7.75,8.94,7.42,5.13-.4.9,5.12,6.96,7.17,2.79.95,6.38-.29,8.2-2.61,6.91,4.29,17.91-.12,21.27-7.52,3.7-8.13-3.88-5.98-4.18-6.75,3.21-.92,6.78-4.63,4.22-7.79-2.5-3.09-7.66.28-9.88.55,2.28-.53,4.3-2.06,5.43-4.11.47-.86.79-1.83.7-2.8-.36-3.71-4.61-.63-9-1.95-7.66-2.3-8.25-15.64-20.67-13.26Z"/>
      </g>
      <g>
        <path class="cls-31" d="M111.11,164.22c-.22.66-.37,1.02-.57,1.47l-.56,1.24c-.39.8-.8,1.6-1.21,2.37-.83,1.55-1.72,3.06-2.65,4.52-1.86,2.91-3.93,5.69-6.18,8.32-2.25,2.61-4.66,5.08-7.22,7.39-1.32,1.11-2.59,2.27-3.98,3.29l-2.04,1.56c-.69.53-1.44.98-2.23,1.32-.27.12-.54.22-.82.31-.33.1-.67.18-1,.24-.4.06-.81.09-1.22.11-.94-.01-1.87-.21-2.73-.57-1.14-.52-2.14-1.32-2.88-2.34-.6-.76-1.06-1.6-1.39-2.51-.39-1.13-.66-2.29-.78-3.48-.19-1.85-.24-3.71-.16-5.56.16-3.36.51-6.7,1.03-10.03.99-6.46,1.86-14.11,3.61-20.4l6.04-.74c-.42,6.3-.32,15.74-.5,21.95-.07,3.11-.13,6.21.05,9.13.06,1.35.22,2.69.47,4.01.06.39.18.77.36,1.12.02.06.04-.06-.24-.43-.21-.27-.47-.5-.75-.7-.45-.31-.96-.52-1.49-.62-.26-.06-.52-.09-.79-.08-.21,0-.43.01-.64.05-.14.03-.28.09-.41.15-.14.05-.17.06-.25.1-.3.11-.29.11-.2.07l1.66-1.48c1.13-.97,2.13-2.06,3.21-3.07,2.06-2.11,4.01-4.33,5.85-6.65,1.81-2.32,3.5-4.73,5.06-7.21.78-1.24,1.53-2.49,2.21-3.76.34-.62.67-1.27.97-1.89l.46-.93.36-.78,11.55,4.51Z"/>
        <g>
          <path class="cls-31" d="M84.13,150.75l.96-9.33-10.52,1.33s-.2,8.38,6.15,9.96l3.41-1.95Z"/>
          <polygon class="cls-31" points="81.46 137.5 73.2 136.37 74.57 142.76 85.09 141.44 81.46 137.5"/>
        </g>
        <path class="cls-10" d="M121.5,162.15c-.05,5.48-6.89,16.31-7.58,17.38-3.49-12.89-6.09-21.07-7.31-26.55,1.24-1.27,2.65-2.36,4.27-3.2,2.79-1.4,10.71,3.6,10.62,12.37Z"/>
        <path class="cls-24" d="M119.7,159.55c-.57,5.74-9.16,16.73-9.16,16.73l-14.19-12.52c2.23-5.44,6.2-14.34,13.86-17.47,2.91-1.15,10.35,4.54,9.48,13.26Z"/>
      </g>
    </g>
  </g>
  <g id="Character_2" data-name="Character 2">
    <g>
      <path class="cls-24" d="M248.82,341c1.74-1.25,31.35,2.3,48.24-8.47s10.75,25.64,10.95,26.34c.12.42.76,12.56-13.71,18.75-9.98,4.26-26.89,11.3-46.72,3.63-9.75-3.77,1.24-40.25,1.24-40.25Z"/>
      <g>
        <path class="cls-24" d="M218.04,292.93c-7.98-4.23-17.91.71-19.36,9.62-.72,4.41-.32,9.04.13,13.36,1.13,10.7,3.08,21.3,5.72,31.73,2.91,11.49,4.58,20.25,9.26,34.74,4.99-.51,12.75-2.57,15.19-2.91,0,0-1.21-18.45-1.14-20.61.41-14.32-1.13-18.84-5.57-32.05,4.3,12.42,10.08,45.54,23.24,53.42,8.86,5.3,21.03,3.17,25.38-3.96,5.7-9.33,3.22-13.86-1.43-23.42-3.45-7.09-22.55-44.64-51.4-59.92Z"/>
        <g>
          <path class="cls-24" d="M219.03,383.9l10.52-2.03c.47-.11.94.16,1.09.62l5.9,13.88c.3,1.02-.28,2.1-1.3,2.4-.07.02-.14.04-.22.05-4.58.83-6.84,1.01-12.61,2.17-3.54.71-14.04,4.53-19.04,4.56-5,.03-5.28-4.92-3.2-5.38,6.7-1.44,13.36-7.6,16.02-13.59.47-.57,2.12-2.55,2.85-2.68Z"/>
          <g>
            <path class="cls-19" d="M211.24,396.73c.48.19,1.03.14,1.46-.15.75-.69,1.26-1.61,1.41-2.62t0-.03c.27-1.2.44-2.41.49-3.63v-.03s0-.05,0-.07c0-.03,0-.07,0-.1-.03-.08-.1-.14-.17-.17-.1-.04-.23-.01-.31.08-.12.13-.53.61-1.03,1.24-.22.27-.46.59-.71.92-.99,1.35-1.99,3.01-1.75,3.91.08.31.3.56.61.64ZM211.45,396.17c-.13-.04-.23-.13-.24-.26-.05-.18-.04-.36.03-.53.53-1.28,1.24-2.47,2.1-3.54.22-.28.45-.56.69-.83-.06.7-.15,1.34-.25,1.91h0c-.3,1.66-.77,2.77-1.37,3.17-.27.18-.64.22-.95.09Z"/>
            <path class="cls-19" d="M209.17,393.14c.71.31,2.03-.21,3.22-.95.29-.19.58-.39.85-.59.56-.42,1.05-.85,1.33-1.21l.05-.07v-.03s0-.05,0-.07c0-.03,0-.07,0-.1,0-.03-.01-.05-.02-.08-.06-.09-.14-.14-.25-.14-.07,0-.94-.16-1.98-.14-.99.02-2.12.2-2.89.74-.47.32-.77.85-.82,1.42-.11.78.24,1.06.51,1.21ZM209.36,392.57c-.06-.02-.25-.09-.19-.61l.08-.13v-.03c.05-.35.24-.67.52-.88.89-.45,1.87-.67,2.85-.67h.01c.36,0,.71.04,1.07.1-.21.22-.46.44-.73.65-1.25.99-3,1.84-3.62,1.56Z"/>
          </g>
        </g>
        <polygon class="cls-19" points="210.9 379.08 232.44 376.63 232.22 384.05 212.9 385.84 210.9 379.08"/>
      </g>
      <g id="Character--inject-2">
        <path class="cls-27" d="M252.7,275.86c-1.06,1.87-2.04,3.57-3.07,5.27-1.04,1.7-2.12,3.38-3.22,5.03-2.23,3.31-4.54,6.57-7.05,9.73-2.51,3.21-5.17,6.28-7.99,9.21-2.91,3.08-6.08,5.9-9.48,8.43l-.72.54-.38.2c-3.48,1.62-6.73,2.79-9.99,3.97-3.26,1.17-6.55,2.25-9.83,3.27s-6.56,1.99-9.87,2.9-6.63,1.8-10,2.55l-2.64-7.18c6.02-3.18,12.16-6.14,18.25-9.09l9.08-4.39c2.98-1.46,6.01-2.98,8.6-4.43l-1.1.71c2.58-2.29,4.99-4.75,7.21-7.38,2.31-2.72,4.57-5.51,6.68-8.52,2.11-3.01,4.21-6.02,6.22-9.12,1.04-1.55,2.03-3.13,2.99-4.66.96-1.53,1.98-3.17,2.84-4.61l13.47,7.56Z"/>
        <path class="cls-1" d="M239.48,300.67l-14.96-16.26c17.97-23.1,26.38-26.9,27.99-20.12,4.95,20.68-13.04,36.38-13.04,36.38Z"/>
        <path class="cls-2" d="M240.19,299.93l.23-.2.12-.06c2.95-2.93,11.16-12.09,12.62-24.33-2.6-1.15-5.23-1.57-7.22-.54-5.41,2.91-8.51,10.92-5.75,25.14Z"/>
        <path class="cls-27" d="M182.2,326.13c-3.32,6.28-12.62,4.88-12.62,4.88l1.86-11.12,9.09.17,1.67,6.08Z"/>
        <polygon class="cls-27" points="171.44 319.89 169.58 331.01 160.69 331.75 161.65 323.76 171.44 319.89"/>
        <path class="cls-10" d="M275.16,341.64c-1.84,1.82-4.64,2.26-7.23,2.22-3.35-.05-6.8-.81-9.49-2.81-3.3-2.45-4.14-3.8-8.46-12.21-.95,3.99,1,11.54,3.23,14.98,2.18,3.35,4.68,6.76,8.33,8.4,3,1.34,6.54,1.29,9.58.05s5.56-3.63,7.13-6.51c.56-1.02,1.01-2.16.86-3.31-.15-1.15-1.08-2.27-2.23-2.26-1.36,0-2.25,1.37-2.88,2.57l1.16-1.12Z"/>
        <path class="cls-1" d="M248,326.4c1.94-29.75-5.03-34.13-7.84-48.13-1.42-7.09,2.02-14.27,8.44-17.6,6.39-3.33,14.33-7.29,22-10.75.73-.33,1.49-.61,2.27-.83,8.68-2.46,17.71,2.59,20.17,11.27,11.34,40.63,6.32,71.13,6.32,71.13l-20.94,6.14c-1.51,9.8-24.19,20.23-30.42-11.22Z"/>
        <path class="cls-27" d="M249.56,243.87c3.08,5.1,5.58,11.85-1.3,17.02-1.12,4.05-1.1,7.97,6.78,4.22,6.32-2.81,11.29-7.97,13.86-14.39-6.23-2.85-9.28-16.4-10.26-24.26l-9.07,17.41Z"/>
        <path class="cls-2" d="M256.8,246.12c-1.35,1.6-3.16,2.78-4.86,2.83-.39-1.35-.88-2.66-1.49-3.93l6.48-9.6c.46.86.86,1.75,1.19,2.66.98,2.73.55,5.82-1.31,8.03Z"/>
        <g>
          <g>
            <path class="cls-24" d="M223.8,220.57c-4.05,6.32-1.14,7.23,2.29,9.02s5.95,6.74,5.95,6.74l3.32-3.03c1-18.75-7.52-19.05-11.57-12.74Z"/>
            <path class="cls-27" d="M233.03,213.18c-7.54,7.82-3.32,22.34,1.97,29.89,1.53,2.24,3.72,3.94,6.26,4.88,6.79,2.51,14.32-.96,16.83-7.74,2.76-6.93.44-12.39-2.68-22.06-3.13-9.65-14.84-12.79-22.39-4.97Z"/>
            <path class="cls-24" d="M230.36,223.91c2.44,2.12,8.44,4.01,11.67,4.15-4.2-2.12-7.38-6.15-8.47-10.73,1.41,2.41,11.36,3.99,15.63,3.96-2.38-1.16-4.66-2.52-6.81-4.06,1.96,1.73,5.06,1.32,7.33,2.63,1.46.84,2.44,2.3,3.36,3.71-.69-2.55-1.64-5.03-2.84-7.38,3.07,3.38,4.98,7.79,5.33,12.34-.15-1.6,3.64,6.98,4.63,5.72,1.36-1.72,2.58-15.3-.97-20.23-2.96-4.11-4.71-5.24-8.84-5.17,2.62-1.29,4.56-3.87,5.07-6.74-1.43,2.48-12.9,3.9-14.8,3.87-4.95-.09-7.66,2.84-10.74,6.68-1.18,1.48-5.36,2.68-4.78,4.62.72,2.41,3.4,5.04,5.24,6.64Z"/>
            <path class="cls-27" d="M259,221.04c-2.79.81-3.75,4.96-3.5,7.56.2,2.96,2.49,4.75,4.85,2.82,1.77-1.5,2.91-3.61,3.19-5.91.33-2.83-1.73-5.28-4.53-4.46Z"/>
            <path class="cls-28" d="M241.59,236.91s-1.85,1.8-3.73,1.33c.72-3.07.15-8.23.15-8.23l3.58,6.9Z"/>
            <path class="cls-24" d="M242.73,222.82c-1.04-.64-3.26-.34-4.36.17h0s-.02,0-.02.01c-.23.11-.51.01-.62-.22-.11-.25-.01-.54.23-.66,1.38-.65,3.93-.93,5.23-.14,0,0,0,0,.01,0,.23.14.3.44.15.67-.04.07-.1.14-.17.19-.15.07-.32.06-.46-.03Z"/>
            <path class="cls-24" d="M229.91,228.8s-.02,0-.03,0c-.24-.08-.38-.33-.31-.58.35-1.54,1.39-2.84,2.83-3.5.01,0,.02,0,.03-.01.24-.07.49.07.56.3.09.26-.05.54-.3.63-1.13.54-1.95,1.57-2.21,2.8-.04.16-.15.29-.3.35-.09.03-.18.04-.27.01Z"/>
          </g>
          <g>
            <path class="cls-18" d="M242.56,241.08c1.34.87,3.44,2.78,3.44,2.78.17-.13.34-.27.5-.41,2.23-1.87,2.49-3.62,2.12-5.01-.21-.76-.62-1.4-1.01-1.89-.44-.56-.87-.88-.87-.88-.45,1.84-2.36,3.78-3.43,4.76-.44.42-.75.65-.75.65Z"/>
            <path class="cls-17" d="M243.3,240.42l.51.4c.3.23.73.22,1.01-.03,1.62-1.45,2.59-2.77,2.75-3.91.03-.22-.06-.44-.21-.6-.35-.39-.64-.61-.64-.61-.45,1.84-2.36,3.78-3.43,4.76Z"/>
            <path class="cls-16" d="M246.5,243.44c2.23-1.87,2.49-3.62,2.12-5.01-.73.67-1.52,1.58-1.96,2.67-.35.83-.32,1.64-.15,2.34Z"/>
          </g>
          <path class="cls-24" d="M234.22,231.09c-.48.24-.55,1.05-.17,1.78.38.73,1.09,1.13,1.56.88.47-.25.55-1.05.17-1.78-.36-.72-1.09-1.12-1.56-.88Z"/>
          <path class="cls-24" d="M242.67,226.97c-.48.24-.55,1.05-.17,1.78.38.73,1.09,1.13,1.56.88.47-.25.55-1.05.17-1.78-.36-.72-1.09-1.12-1.56-.88Z"/>
        </g>
        <path class="cls-2" d="M295.24,264.74c2.55,9.11,2.92,17.01-.87,23.03-1.12,1.78-3.62,2.05-5.1.57-7.02-7.03-22.25-26.1-13.61-34.68,1.11-1.09,3.47-7.08,19.58,11.08Z"/>
        <g>
          <path class="cls-24" d="M276.56,337.72c-1.52,5.66-2.19,15.93-1.51,21.75.69,5.82,3.44,11.62,8.33,14.85,5.69,3.75,14.01,4.49,19.58.55,10.57-7.46,17.87-26.39,13.92-77.36-.39-5.06-6.61-8.07-11.54-9.3-17.63-4.38-25.55,37.47-28.79,49.51Z"/>
          <path class="cls-10" d="M295.82,372.48c3.49,1.52,5.61-4.6,6.14-8.37.91-6.39-.79-46.56-2.04-54.16-1.78-10.78-6.66-2.56-8.9,3.09-5.43,13.68-5.18,55.09,4.8,59.44Z"/>
          <path class="cls-24" d="M294.17,305.12c-2.17,6.45-2.28,13.4-2.18,20.21.25,18.36,2.32,31.81,5.2,49.95,3.78,2.52.54,1.14,5.04,1.8,4.58.67,9.62,1.24,10.21-3.27,2.69-20.39,8.12-42.96,6.83-63.49-.26-4.1-1.08-10.78-2.77-14.52-2.19-4.86-6.47-6.91-11.79-4.2-5.16,2.63-8.75,8.2-10.54,13.54Z"/>
        </g>
        <path class="cls-27" d="M281.48,252.67c7.97,2.28,29.63,20.83,30.73,22.63,13.29,11.3-.55,20.81-2.07,22.4-2.62,2.77-6.43,5.1-9.35,7.55-5.61,4.78-10.5,9.49-16.67,13.53l-4.92-5.87c4.76-5.28,16.78-20.86,18.72-23.45.87-1.11,5.51-4.9,2.11-6.29-.88-1.26-20.82-15.21-25.68-20.17l7.12-10.34Z"/>
        <path class="cls-1" d="M285.97,281.23l16.25-18.43c-16.69-17.6-25.81-14.5-27.94-14.05-20.58,4.49,11.68,32.47,11.68,32.47Z"/>
        <path class="cls-27" d="M282.29,311.47l3.87.86c3.46,3.36-1.54,12.01-1.54,12.01l-10.6-4.52,5.31-7.24c.68-.92,1.84-1.36,2.96-1.11Z"/>
        <polygon class="cls-27" points="274.02 319.82 284.66 324.32 281.41 332.48 271.27 330.33 274.02 319.82"/>
      </g>
      <path class="cls-7" d="M170.62,445.11c-.43-4.77-.87-9.53-1.3-14.3-.11-1.17-.21-2.4.24-3.49.27-.64.71-1.2.93-1.86.27-.82.18-1.71.08-2.56-.76-6.75-1.38-13.53-1.19-20.32.08-2.92.32-5.84.39-8.77.09-3.8-.09-7.59-.27-11.38-.47-9.9-.95-19.8-1.42-29.7-.57-11.87-1.14-23.77-3.04-35.5-.52-3.22-1.1-5.44-1.19-8.7-.15-5.47,1.17-11.92.7-17.38l4.59,4.38c-.46,8.84-.79,15.44,1.28,24.04.75,3.1.43,3.77.89,6.92.38,2.56,1.78,42.48,3.24,57.83.19,1.97,4.18,4.26,6.12,4.66.1,2.13-2.62,2.48-2.8,4.61l-2.74-2.15c-1.9,8.59-1.49,20.05-.23,28.75.32,2.22,1.36,5.71,2.35,7.72.88,1.79,1.86,4.09,2.53,5.73.53,1.28-1.28,2.2-2,1.03-.51-.83-.95-1.79-1.27-2.46-.47-.96-1.19-1.97-2.05-2.57-.87-.61-2.08.13-1.85,1.17.48,2.19.34,4.52.33,6.79-.01,2.43.12,4.85.4,7.26l-2.72.25Z"/>
      <g class="cls-33">
        <path class="cls-9" d="M170.62,445.11c-.43-4.77-.87-9.53-1.3-14.3-.11-1.17-.21-2.4.24-3.49.27-.64.71-1.2.93-1.86.27-.82.18-1.71.08-2.56-.76-6.75-1.38-13.53-1.19-20.32.08-2.92.32-5.84.39-8.77.09-3.8-.09-7.59-.27-11.38-.47-9.9-.95-19.8-1.42-29.7-.57-11.87-1.14-23.77-3.04-35.5-.52-3.22-1.1-5.44-1.19-8.7-.15-5.47,1.17-11.92.7-17.38l4.59,4.38c-.46,8.84-.79,15.44,1.28,24.04.75,3.1.43,3.77.89,6.92.38,2.56,1.78,42.48,3.24,57.83.19,1.97,4.18,4.26,6.12,4.66.1,2.13-2.62,2.48-2.8,4.61l-2.74-2.15c-1.9,8.59-1.49,20.05-.23,28.75.32,2.22,1.36,5.71,2.35,7.72.88,1.79,1.86,4.09,2.53,5.73.53,1.28-1.28,2.2-2,1.03-.51-.83-.95-1.79-1.27-2.46-.47-.96-1.19-1.97-2.05-2.57-.87-.61-2.08.13-1.85,1.17.48,2.19.34,4.52.33,6.79-.01,2.43.12,4.85.4,7.26l-2.72.25Z"/>
      </g>
      <path class="cls-27" d="M170.01,320.93c-1.2.82-2.4,1.63-3.59,2.45-.61.41-1.29,1.03-1.1,1.73.19.72,1.17.9,1.87.65.7-.24,1.29-.75,2.01-.94,1.28-.33,2.74.42,3.91-.21.54-.29.9-.83,1.14-1.39,1.45-3.32-2.18-3.7-4.23-2.3Z"/>
      <path class="cls-24" d="M307.39,380.33l-9.23-1.23c-.37-.06-.68.25-.72.71l-2.19,14.22c-.06,1.04.55,2.04,1.37,2.25.06.01.11.02.17.03,2.51.28,2.73.21,4.19.36,1.5.15,2.98.61,4.25,1.41,4.55,2.88,14.18,4.98,17.54,4.6,3.77-.43,4.64-5.52,1.48-8.04-5.55-2.31-11.3-6.26-14.27-11.92-.45-.52-2.01-2.32-2.58-2.38Z"/>
      <g>
        <path class="cls-19" d="M315.05,391.99c.38-.85-.35-2.64-1.12-4.13-.19-.37-.38-.72-.55-1.02-.39-.7-.73-1.24-.83-1.39-.07-.1-.19-.15-.3-.12-.08.02-.15.07-.2.15-.01.03-.02.07-.02.1,0,.03-.02.04-.02.07v.03c-.13,1.21-.15,2.44-.07,3.66t0,.03c0,1.02.35,2.01.99,2.8.38.36.91.49,1.42.38.32-.04.57-.24.7-.54ZM313.31,391.71c-.53-.49-.82-1.66-.86-3.33h0c-.02-.59,0-1.23.05-1.94.2.3.38.61.56.92.68,1.19,1.2,2.48,1.53,3.83.04.18.02.36-.06.53-.04.13-.15.21-.28.22-.33.08-.69-.01-.93-.24Z"/>
        <path class="cls-19" d="M317.65,388.18c.04-.57-.18-1.13-.59-1.52-.67-.66-1.76-1.01-2.74-1.18-1.03-.18-1.91-.17-1.98-.17-.11-.01-.2.02-.27.1-.01.03-.03.04-.03.07-.01.03-.02.07-.02.1,0,.03-.02.04-.02.07v.03s.04.08.04.08c.22.4.63.9,1.13,1.41.23.24.49.48.75.71,1.07.92,2.28,1.64,3.04,1.44.3-.1.68-.33.69-1.12ZM313.53,386.61c-.23-.25-.44-.51-.62-.76.36,0,.71.02,1.07.07h.01c.97.15,1.9.52,2.71,1.1.25.25.38.6.37.95v.03s.06.14.06.14c-.02.53-.21.56-.28.57-.65.19-2.25-.93-3.33-2.1Z"/>
      </g>
      <polygon class="cls-19" points="314.01 381.58 294.7 379.8 294.47 372.38 316.01 374.82 314.01 381.58"/>
    </g>
  </g>
</svg>