<?xml version="1.0" encoding="UTF-8"?>
<svg id="Camada_2" data-name="Camada 2" xmlns="http://www.w3.org/2000/svg" viewBox="0 0 118.23 118.86">
  <defs>
    <style>
      .cls-1 {
        fill: #46ac34;
        stroke-width: 0px;
      }
    </style>
  </defs>
  <path class="cls-1" d="M73.09,52.16c12.92-6.38,25.83-12.77,38.75-19.15-1.17-2.74-3.03-6.45-5.94-10.39C93.48,5.79,74.4,1.78,69.68.94,63.85-.11,48.29-1.99,31.82,6.58,13.01,16.36,5.8,33.14,3.91,38.05c-1.22,3.17-9.77,26.53,3.12,50.18,9.54,17.5,25.01,24.48,28.95,26.13,3.54,1.48,18.19,7.2,36.23,2.97,3.48-.82,11.81-3.11,20.64-9.35,2.92-2.07,11.26-8.36,17.67-19.6,4.71-8.26,6.25-15.48,6.68-17.67.88-4.49,1.07-8.37,1.04-11.28-19.99.05-39.99.1-59.98.15,9.4,5.25,18.81,10.49,28.21,15.74-.88,2.23-2.03,4.59-3.56,6.98-7.2,11.23-18.27,16.03-23.9,17.96-.69-.31-1.67-.76-2.82-1.34-4.05-2.03-11.92-5.98-17.96-12.92-2.04-2.34-9.01-10.58-9.8-23.01-.2-3.13-.59-10.88,4.01-19,1.25-2.22,4.8-8.3,12.32-12.17,9.72-5.01,19.08-2.72,21.53-2.08,10.1,2.64,15.71,9.51,17.37,11.73-3.51,3.56-7.03,7.13-10.54,10.69Z"/>
</svg>