<?xml version="1.0" encoding="UTF-8"?>
<svg id="Camada_1" data-name="Camada 1" xmlns="http://www.w3.org/2000/svg" viewBox="0 0 384.32 349.96">
  <defs>
    <style>
      .cls-1 {
        fill: #3ab22c;
        stroke: #fff;
        stroke-miterlimit: 10;
      }
    </style>
  </defs>
  <path class="cls-1" d="M.5,153.28c3.24-9.97,10.17-14.23,20.51-13.51,3.48.24,6.98.11,10.48.02,4.22-.11,5.3-1.31,5.09-5.44-.71-13.76,1.24-27.12,6.5-39.88,1.05-2.55.59-4.08-1.36-5.77-5.31-4.6-8.66-10.21-6.77-17.44.78-3,2.36-6.15,4.47-8.39,7.52-7.99,15.34-15.7,23.21-23.35,7.06-6.86,16.68-6.79,23.79,0,3.25,3.1,6.43,6.27,9.52,9.53,2.62,2.76,5.24,2.93,8.72,1.39,9.89-4.36,19.89-8.48,29.96-12.41,3.52-1.37,5.28-3.32,5.15-7.16-.15-4.61-.12-9.23,0-13.84.23-9.23,7.27-16.31,16.49-16.41,11.1-.13,22.2-.12,33.3,0,9.42.09,16.42,7.14,16.68,16.64.13,4.74.11,9.48,0,14.22-.07,3.38,1.59,5.17,4.62,6.39,10.37,4.17,20.71,8.44,30.99,12.84,3.05,1.31,5.48,1.06,7.79-1.3,3.05-3.12,6.15-6.2,9.26-9.26,7.76-7.62,17.36-7.63,25.15.07,7.37,7.27,14.7,14.59,21.96,21.97,7.5,7.63,7.63,17.48-.14,24.8-3.34,3.15-3.79,5.62-2.11,9.87,4.79,12.09,6.42,24.8,5.61,37.79-.23,3.65.87,5.04,4.6,5.15,4.86.15,9.73,0,14.59.06,9.62.11,16.75,7.12,16.91,16.8.13,7.98-.05,15.97.12,23.95.02,1.17.99,2.53,1.89,3.43,5.71,5.71,11.83,11.06,17.2,17.07,3.19,3.58,2.4,8.89-1.09,12.66-2.01,2.18-4.55,3.87-6.28,5.3,2.54,6.44,4.52,11.66,6.73,16.79.36.84,1.68,1.66,2.65,1.78,2.21.28,4.48.03,6.72.16,5.86.33,10.09,4.44,10.26,10.29.18,6.23.16,12.48.02,18.71-.14,6.17-4.46,10.4-10.73,10.69-2.73.13-5.47.02-7.92.02-2.42,5.53-4.76,10.73-6.91,16-.3.74.1,2.1.66,2.78,1.42,1.73,3.18,3.17,4.67,4.84,3.99,4.48,4.18,10.11.1,14.53-4.39,4.76-8.98,9.37-13.77,13.74-4.41,4.03-10.58,4.17-14.39-.42-4.35-5.24-8.27-6.14-13.93-2.3-2.7,1.83-6.21,2.45-9.7,3.75,0,2.36.04,4.83,0,7.31-.15,7.38-4.36,11.64-11.64,11.72-5.61.06-11.23.07-16.84,0-6.96-.09-11.07-4.22-11.3-11.2-.26-7.74-.28-7.71-7.3-10.45-2.32-.9-4.77-1.7-6.78-3.08-2.69-1.85-4.42-1.14-6.23,1.12-1.08,1.35-2.41,2.53-3.75,3.65-4.47,3.73-9.99,3.76-14.24-.22-4.64-4.35-9.31-8.72-13.43-13.54-1.95-2.28-2.67-5.62-4.17-9-1.8.58-4.57.92-6.59,2.32-1.56,1.08-2.9,3.44-3.08,5.35-.44,4.57-.1,9.22-.16,13.83-.14,10.28-7.21,17.3-17.55,17.36-10.48.06-20.96.06-31.43,0-10.51-.06-17.48-7.13-17.55-17.71-.03-4.37-.07-8.73.01-13.1.07-3.33-1.46-5.24-4.53-6.47-10.38-4.17-20.72-8.42-31-12.81-3.01-1.28-5.49-1.23-7.83,1.14-3.33,3.37-6.64,6.77-10.06,10.05-6.92,6.61-16.68,6.72-23.53.07-7.96-7.74-15.82-15.58-23.55-23.55-6.67-6.87-6.52-16.53.15-23.51,3.19-3.34,6.46-6.6,9.78-9.8,2.65-2.55,2.65-5.14,1.21-8.43-4.36-10.02-8.5-20.15-12.53-30.31-1.27-3.19-3.08-4.93-6.63-4.8-3.36.13-6.75-.16-10.1.06-10.27.66-17.28-3.53-20.64-13.41v-39.67ZM38.39,151.03c-6.77,0-13.47-.04-20.16.01-4.45.03-6.46,1.95-6.48,6.34-.06,10.35-.05,20.71,0,31.06.02,4.62,1.98,6.57,6.63,6.64,4.49.07,8.98-.02,13.47.03,8.06.08,13.79,4.66,16.6,12.09,3.77,9.99,7.85,19.88,12.24,29.61,3.3,7.32,2.59,14.55-2.97,20.35-3.19,3.33-6.55,6.5-9.77,9.81-3.1,3.19-3.11,5.88.04,9.06,7.28,7.36,14.61,14.67,21.96,21.96,3.11,3.08,6,3.09,9.1.09,3.32-3.21,6.5-6.55,9.81-9.77,5.6-5.44,12.95-6.3,20.02-3.16,9.98,4.44,20.1,8.62,30.29,12.55,7,2.7,11.66,8.57,11.77,16.1.07,4.74-.04,9.48.04,14.22.07,4.18,2.04,6.23,6.23,6.27,10.48.08,20.95.08,31.43,0,4.35-.03,6.31-2.1,6.39-6.52.07-3.99.01-7.98.02-11.97.01-10.33,4.17-15.73,14.15-18.79,5.09-1.56,10.09-3.44,15.35-5.25-1.11-2.62-2.44-4.7-2.85-6.95-1.11-6.04-4.21-8.29-10.45-7.49-4.69.6-8.41-1.95-10.39-6.43-.63-1.42-.88-3.01-1.08-3.71-10.04.9-19.73,2.9-29.3,2.44-39.76-1.93-68.35-21.3-85.91-57.02-.77-1.56-2.18-2.92-3.57-4.02-4.5-3.54-9.34-6.68-13.58-10.49-1.29-1.16-1.9-4.24-1.35-5.96.49-1.54,2.92-3.18,4.67-3.4,1.63-.2,3.77,1.07,5.2,2.27,17.75,14.99,38.23,21.53,61.31,19.77,5.61-.43,11.14-1.85,16.71-2.81.32-.62.65-1.24.97-1.87-1.2-.67-2.64-1.11-3.57-2.04-22.27-22.18-44.49-44.42-66.71-66.64-.79-.79-1.64-1.55-2.34-2.41-2.13-2.61-2.06-5.59.12-7.76,2.14-2.15,5.2-2.21,7.75-.1.96.79,1.8,1.72,2.68,2.6,22.14,22.14,44.28,44.27,66.42,66.41.99.99,2.04,1.94,3.23,3.07,3.82-11.06,4.75-24.19,2.81-37.13-7.65-50.78-60.56-82.33-108.83-64.95-2.23.8-3.44,2.02-4.18,4.21-4.99,14.75-6.5,29.82-2.56,44.9,2.18,8.34,6.03,16.26,9.28,24.31,1.41,3.49.79,6.56-2.1,8.1-2.78,1.48-5.67.55-7.65-2.52-.67-1.04-1.33-2.12-1.81-3.27-3.12-7.43-6.19-14.89-9.07-21.83ZM241.82,320.79c1.42-1.73,2.84-3.79,4.6-5.52,4.14-4.08,8.42-4.51,13.66-2.09,4.85,2.24,9.79,4.29,14.8,6.15,5.54,2.06,8.1,5.2,8.32,11.07.09,2.46.02,4.93.02,7.58h17.37c0-2.79-.05-5.38.01-7.97.13-5.22,2.75-8.65,7.51-10.48,5.33-2.05,10.63-4.21,15.84-6.54,4.81-2.15,9.26-1.66,13.06,2.03,1.86,1.81,3.45,3.88,5.03,5.68,4.55-4.54,8.48-8.46,12.85-12.82-1.52-1.39-3.22-2.83-4.79-4.41-4.74-4.77-5.19-8.81-2.27-14.87,2.1-4.36,3.98-8.85,5.58-13.42,2.27-6.48,5.27-8.88,12.07-8.93,2.31-.02,4.61,0,6.86,0v-17.36c-2.77,0-5.36.09-7.94-.02-5.27-.22-8.68-2.85-10.51-7.54-2.12-5.44-4.38-10.83-6.7-16.18-1.99-4.59-1.62-8.81,1.85-12.45,1.88-1.97,4.11-3.59,6.01-5.22-4.59-4.56-8.55-8.48-13.26-13.15-1.24,1.52-2.65,3.61-4.41,5.35-4.33,4.28-8.46,4.69-13.96,2.13-4.73-2.2-9.56-4.2-14.46-5.98-5.7-2.07-8.29-5.32-8.38-11.37-.03-2.44,0-4.89,0-7.34-.37-.3-.74-.61-1.1-.91-1.55.98-3.65,1.59-4.57,2.99-13.25,20.11-31.41,33.42-54.56,39.98-.89.25-2.17.66-2.44,1.34-2.68,6.54-5.33,13.1-7.71,19.75-2.08,5.82-5.42,8.5-11.63,8.62-2.34.05-4.67,0-7.17,0v17.35c2.61,0,4.97-.02,7.32,0,6.05.07,9.34,2.65,11.41,8.32,1.84,5.01,3.92,9.94,6.13,14.8,2.31,5.06,2.02,9.16-1.7,13.09-1.87,1.98-4.13,3.58-5.9,5.09,4.58,4.61,8.51,8.56,13.17,13.24ZM210.56,96.19c-7.9-3.94-15.85-6.21-24.08-7.71-3.83-.7-5.58-3.26-5.01-6.59.53-3.13,2.96-4.74,6.69-4.38,1.11.11,2.22.29,3.32.51,10.1,1.98,19.62,5.53,28.69,10.39,1.37.73,3.64.85,5.07.26,18.92-7.87,38.46-9.92,58.18-4.66,6.81,1.82,10.54.1,14.47-4.65,2.95-3.57,3.24-6.16.03-9.41-7.28-7.36-14.6-14.68-21.96-21.96-3.19-3.15-5.83-3.11-9.05.02-3.4,3.3-6.64,6.76-10.09,10.02-5.53,5.23-12.79,5.92-19.75,2.84-9.99-4.43-20.1-8.58-30.29-12.52-7.04-2.72-11.61-8.54-11.72-16.13-.07-4.74.06-9.48-.04-14.22-.09-4.18-2.09-6.18-6.28-6.2-10.48-.06-20.95-.06-31.43,0-4.37.02-6.29,2.03-6.34,6.49-.06,4.49.02,8.98-.02,13.47-.07,8.18-4.74,13.94-12.38,16.79-9.77,3.64-19.44,7.61-28.92,11.96-7.89,3.62-15.04,2.9-21.24-3.18-3.29-3.23-6.48-6.58-9.82-9.75-2.67-2.53-5.38-2.66-7.95-.14-7.84,7.68-15.59,15.45-23.28,23.28-2.37,2.41-2.29,5.19-.06,7.7,1.74,1.95,3.79,3.63,5.49,5.62,1.34,1.56,2.63,1.73,4.55,1.16,21.62-6.31,42.82-5.05,63.64,3.57,1.34.55,3.46.42,4.74-.27,10.39-5.66,21.39-9.44,33.09-11.18,3.98-.59,6.8,1.11,7.31,4.49.5,3.33-1.38,5.62-5.14,6.5-5.45,1.27-10.92,2.49-16.29,4.05-3.11.9-6.04,2.44-9.65,3.95,18.37,12.43,30.67,28.54,37.88,48.97,11.98-26.45,12.86-27.6,37.65-49.06ZM190.97,206.04c.41.4.81.81,1.22,1.21.16.17.28.43.47.49,1.07.34,2.14.66,3.23.93,10.54,2.62,21.16,3.03,31.92,1.59,51-6.81,83.58-60.93,65.59-109.17-.56-1.49-2.09-3.15-3.56-3.69-15.14-5.55-30.68-6.51-46.35-2.83-37.3,8.75-63.07,40.7-63.89,79.03-.18,8.59,1,17.03,3.82,25.63,1.31-1.23,2.32-2.13,3.27-3.08,22.24-22.22,44.46-44.45,66.7-66.68.79-.79,1.55-1.63,2.42-2.34,2.56-2.11,5.61-2.04,7.75.1,2.14,2.14,2.21,5.2.1,7.77-.79.96-1.72,1.8-2.6,2.68-22.05,22.06-44.09,44.12-66.2,66.13-1.02,1.02-2.58,1.49-3.89,2.22ZM167.38,257.91c0-12.31.11-24.62-.08-36.93-.04-2.86-3.71-4.46-6.57-3.86-8.62,1.82-17.22,4.03-25.95,4.93-11.6,1.2-23.06-.78-34.47-4.5,13.49,24.44,43.69,40.53,67.07,40.35ZM178.63,258.75c5.74-1.06,10.85-2.08,15.99-2.92,3.81-.62,5.58-2.13,5.43-6.55-.26-7.49,4.1-11.44,11.57-11.6,1.87-.04,3.76.12,5.61-.08.82-.09,2.01-.67,2.28-1.34,1.86-4.58,3.53-9.24,5.31-14.01-.52-.05-.99-.17-1.44-.14-13.35.87-26.37-.66-39.01-5.21-2.31-.83-5.68,1.83-5.7,4.63-.09,12.08-.04,24.15-.04,37.21ZM302.37,165.47c7.2,2.52,9.4,5.61,9.43,13.08,0,1.25.1,2.5-.02,3.74-.19,1.95.6,2.77,2.5,3.4,3.88,1.29,7.68,2.88,11.41,4.59,3.93,1.81,8.53-.83,8.58-5.3.1-9.35.09-18.69,0-28.04-.04-3.77-2.11-5.82-5.81-5.88-7.04-.1-14.09-.03-21.39-.03-1.39,4.29-3,9.23-4.69,14.43Z"/>
  <path class="cls-1" d="M291.56,294.93c-13.8-.62-24.54-6.58-31.85-18.42-2.35-3.81-1.9-6.96,1.02-8.85,3-1.95,6.15-.81,8.59,3.09,6.64,10.6,18.48,15.25,30.02,11.8,11.07-3.31,18.64-13.61,18.56-25.27-.08-11.75-7.94-21.85-19.42-24.96-11.61-3.14-24.11,2.35-29.78,13.11-.46.88-.8,1.83-1.26,2.71-1.62,3.07-4.62,4.28-7.48,3.04-2.79-1.2-4.08-4.38-2.72-7.54,5.61-13.04,15.43-21.1,29.51-22.95,21.08-2.78,39.06,11.21,42.14,32.17,2.87,19.47-11.06,37.95-31.34,41.53-1.95.34-3.96.37-6,.55Z"/>
</svg>