<svg width="1440" height="328" viewBox="0 0 1440 328" fill="none" xmlns="http://www.w3.org/2000/svg">
<path fill-rule="evenodd" clip-rule="evenodd" d="M8.97446e-06 225.344L26.4 194.046C52.8 162.748 106.8 100.153 159.6 87.6337C213.6 75.1146 266.4 112.672 320.4 162.749C373.2 212.825 427.2 275.421 480 256.642C532.8 237.863 586.8 137.71 639.6 137.71C693.6 137.71 746.4 237.863 800.4 250.382C853.2 262.902 907.2 187.787 960 162.749C1012.8 137.71 1066.8 162.749 1119.6 206.566C1173.6 250.382 1226.4 312.978 1280.4 325.497C1333.2 338.016 1387.2 300.459 1413.6 281.68L1440 262.902L1440 3.81849e-06L1413.6 1.51053e-06C1387.2 -7.9743e-07 1333.2 -5.51826e-06 1280.4 -1.01342e-05C1226.4 -1.4855e-05 1173.6 -1.94709e-05 1119.6 -2.41918e-05C1066.8 -2.88077e-05 1012.8 -3.35285e-05 960 -3.81444e-05C907.2 -4.27604e-05 853.2 -4.74812e-05 800.4 -5.20971e-05C746.4 -5.68179e-05 693.6 -6.14339e-05 639.6 -6.61547e-05C586.8 -7.07706e-05 532.8 -7.54915e-05 480 -8.01074e-05C427.2 -8.47233e-05 373.2 -8.94441e-05 320.4 -9.40601e-05C266.4 -9.87809e-05 213.6 -0.000103397 159.6 -0.000108118C106.8 -0.000112734 52.8 -0.000117454 26.4 -0.000119762L2.86747e-05 -0.00012207L8.97446e-06 225.344Z" fill="#F12A80"/>
</svg>
