<svg width="1440" height="378" viewBox="0 0 1440 378" fill="none" xmlns="http://www.w3.org/2000/svg">
<path fill-rule="evenodd" clip-rule="evenodd" d="M0 118.305L26.4 154.373C52.8 190.442 106.8 262.58 159.6 277.007C213.6 291.435 266.4 248.152 320.4 190.442C373.2 132.732 427.2 60.5945 480 82.2358C532.8 103.877 586.8 219.297 639.6 219.297C693.6 219.297 746.4 103.877 800.4 89.4496C853.2 75.0221 907.2 161.587 960 190.442C1012.8 219.297 1066.8 190.442 1119.6 139.946C1173.6 89.4496 1226.4 17.312 1280.4 2.88444C1333.2 -11.5431 1387.2 31.7395 1413.6 53.3808L1440 75.0221V378H1413.6C1387.2 378 1333.2 378 1280.4 378C1226.4 378 1173.6 378 1119.6 378C1066.8 378 1012.8 378 960 378C907.2 378 853.2 378 800.4 378C746.4 378 693.6 378 639.6 378C586.8 378 532.8 378 480 378C427.2 378 373.2 378 320.4 378C266.4 378 213.6 378 159.6 378C106.8 378 52.8 378 26.4 378H0V118.305Z" fill="#3146CF"/>
</svg>
