<?xml version="1.0" encoding="UTF-8"?>
<svg id="Camada_21" data-name="Camada 21" xmlns="http://www.w3.org/2000/svg" xmlns:xlink="http://www.w3.org/1999/xlink" viewBox="0 0 150.01 209.63">
  <defs>
    <style>
      .cls-1 {
        fill: #81d916;
      }

      .cls-1, .cls-2, .cls-3 {
        stroke-width: 0px;
      }

      .cls-2 {
        fill: none;
      }

      .cls-3 {
        fill: #059a5a;
      }

      .cls-4 {
        clip-path: url(#clippath);
      }
    </style>
    <clipPath id="clippath">
      <rect class="cls-2" y="0" width="150" height="150"/>
    </clipPath>
  </defs>
  <g class="cls-4">
    <g>
      <path class="cls-1" d="M84.92,115.63h-17.16v31.53h17.16v-31.53Z"/>
      <path class="cls-3" d="M66.42,133.23h19.83c.81,0,1.62.16,2.37.47s1.43.77,2.01,1.34c.58.57,1.03,1.26,1.34,2.01s.47,1.56.47,2.37v24.07h-32.23v-24.07c0-1.64.65-3.22,1.81-4.38s2.74-1.82,4.38-1.82h.02Z"/>
      <path class="cls-3" d="M84.92,129.95h-17.15c-.46,0-.83.37-.83.83v3.31c0,.46.37.82.83.82h17.15c.46,0,.83-.37.83-.82v-3.31c0-.46-.37-.83-.83-.83Z"/>
      <path class="cls-3" d="M122.37,92.27c1.56-5.14,2.35-10.49,2.35-15.86,0-28.43-21.71-51.57-48.39-51.57s-48.39,23.14-48.39,51.57c0,5.38.79,10.72,2.35,15.86h92.08Z"/>
      <path class="cls-1" d="M43.15,91.73c.92-5.67-2.93-11-8.59-11.92-5.67-.92-11,2.93-11.92,8.59-.92,5.67,2.93,11,8.59,11.92,5.67.92,11-2.93,11.92-8.59Z"/>
      <path class="cls-1" d="M130.04,91.73c.92-5.67-2.93-11-8.59-11.92s-11,2.93-11.92,8.59c-.92,5.67,2.93,11,8.59,11.92,5.67.92,11-2.93,11.92-8.59Z"/>
      <path class="cls-1" d="M76.34,123.02c23.99,0,43.44-20.87,43.44-46.62s-19.45-46.62-43.44-46.62-43.44,20.87-43.44,46.62,19.45,46.62,43.44,46.62Z"/>
      <path class="cls-3" d="M46.98,84.5c0,.42-.61.76-1.37.76s-1.37-.34-1.37-.76.61-.75,1.37-.75,1.37.34,1.37.75Z"/>
      <path class="cls-3" d="M51.28,84.5c0,.42-.61.76-1.37.76s-1.37-.34-1.37-.76.61-.75,1.37-.75,1.37.34,1.37.75Z"/>
      <path class="cls-3" d="M49.29,86.49c0,.42-.61.76-1.37.76s-1.37-.34-1.37-.76.61-.76,1.37-.76,1.37.33,1.37.76Z"/>
      <path class="cls-3" d="M53.63,86.49c0,.42-.61.76-1.37.76s-1.37-.34-1.37-.76.61-.76,1.37-.76,1.37.33,1.37.76Z"/>
      <path class="cls-3" d="M55.57,84.5c0,.42-.61.76-1.37.76s-1.37-.34-1.37-.76.61-.75,1.37-.75,1.37.34,1.37.75Z"/>
      <path class="cls-3" d="M99.85,84.5c0,.42-.61.76-1.37.76s-1.37-.34-1.37-.76.61-.75,1.37-.75,1.37.34,1.37.75Z"/>
      <path class="cls-3" d="M104.14,84.5c0,.42-.61.76-1.37.76s-1.37-.34-1.37-.76.61-.75,1.37-.75,1.37.34,1.37.75Z"/>
      <path class="cls-3" d="M102.15,86.49c0,.42-.61.76-1.37.76s-1.37-.34-1.37-.76.61-.76,1.37-.76,1.37.33,1.37.76Z"/>
      <path class="cls-3" d="M106.49,86.49c0,.42-.61.76-1.37.76s-1.37-.34-1.37-.76.61-.76,1.37-.76,1.37.33,1.37.76Z"/>
      <path class="cls-3" d="M108.44,84.5c0,.42-.61.76-1.37.76s-1.37-.34-1.37-.76.61-.75,1.37-.75,1.37.34,1.37.75Z"/>
      <path class="cls-3" d="M76.61,91.29c-5.42,0-10.91-1.59-16.48-4.77-.24-.18-.41-.44-.47-.74-.06-.3,0-.6.14-.87.15-.26.39-.46.68-.56s.6-.09.88.03c10.43,5.97,20.22,5.98,29.94.02.14-.09.29-.15.46-.18.16-.03.33-.03.49,0,.16.04.31.1.45.2.13.1.25.22.34.36s.14.3.17.46c.02.16.02.33-.03.49s-.11.31-.22.44c-.1.13-.23.24-.37.32-5.18,3.18-10.54,4.78-15.96,4.78l-.02.02Z"/>
      <path class="cls-3" d="M76.34,22.11c-8.06-.73-5.59-9.77-3.14-15.57-5.26.46-10.27,2.43-14.42,5.69-4.15,3.26-7.27,7.65-8.97,12.65s-1.91,10.38-.6,15.49,4.08,9.73,7.97,13.3,8.73,5.92,13.94,6.78c5.21.86,10.55.19,15.38-1.94,4.83-2.13,8.94-5.61,11.82-10.03s4.42-9.58,4.42-14.86c0-1.44-11.56-10.17-26.4-11.51Z"/>
      <path class="cls-3" d="M59.98,74.69c0,.74-.22,1.46-.63,2.07s-.99,1.09-1.67,1.37c-.68.28-1.43.36-2.15.21-.72-.14-1.39-.5-1.91-1.02s-.88-1.18-1.02-1.91c-.15-.72-.07-1.47.21-2.15s.76-1.26,1.37-1.68c.61-.41,1.33-.63,2.07-.63.49,0,.98.09,1.43.28s.87.46,1.21.81c.35.35.62.76.81,1.21.19.45.29.94.29,1.43h0Z"/>
      <path class="cls-3" d="M99.46,74.69c0,.74-.22,1.46-.63,2.07s-.99,1.09-1.67,1.37c-.68.28-1.43.36-2.15.21-.72-.14-1.39-.5-1.91-1.02-.52-.52-.88-1.19-1.02-1.91s-.07-1.47.21-2.15.76-1.26,1.37-1.67c.61-.41,1.33-.63,2.07-.63.99,0,1.94.39,2.64,1.09s1.09,1.65,1.09,2.64Z"/>
      <path class="cls-1" d="M68.39,145.29h-8.16v34.11h8.16v-34.11Z"/>
      <path class="cls-1" d="M84.29,179.4h8.16v-34.11h-8.16s0,34.11,0,34.11Z"/>
    </g>
  </g>
</svg>