<?xml version="1.0" encoding="UTF-8"?>
<svg id="Camada_6" data-name="Camada 6" xmlns="http://www.w3.org/2000/svg" xmlns:xlink="http://www.w3.org/1999/xlink" viewBox="0 0 150.01 209.63">
  <defs>
    <style>
      .cls-1 {
        fill: #81d916;
      }

      .cls-1, .cls-2, .cls-3 {
        stroke-width: 0px;
      }

      .cls-2 {
        fill: none;
      }

      .cls-3 {
        fill: #059a5a;
      }

      .cls-4 {
        clip-path: url(#clippath);
      }
    </style>
    <clipPath id="clippath">
      <rect class="cls-2" y="0" width="150" height="150"/>
    </clipPath>
  </defs>
  <g class="cls-4">
    <g>
      <path class="cls-3" d="M119.23,52.71v55c0,21.76-17.8,39.56-39.56,39.56h-8.24c-21.76,0-39.56-17.8-39.56-39.56v-55c.03-10.48,4.21-20.52,11.62-27.93,7.41-7.41,17.45-11.59,27.93-11.62h8.24c21.76,0,39.56,17.8,39.56,39.56Z"/>
      <path class="cls-3" d="M104.27,209.63v-33.95c0-15.12-12.37-27.49-27.49-27.49h-2.46c-15.12,0-27.49,12.37-27.49,27.49v33.95h57.44Z"/>
      <path class="cls-3" d="M95.78,152.56v-19.33c-.02-5.36-2.15-10.5-5.94-14.29-3.79-3.79-8.93-5.93-14.29-5.95-5.36.02-10.5,2.15-14.29,5.94-3.79,3.79-5.93,8.93-5.94,14.29v19.33h40.47Z"/>
      <path class="cls-1" d="M75.55,126.07c-2.28,0-4.46-.9-6.07-2.51s-2.51-3.79-2.51-6.07v-8.63c0-2.27.91-4.46,2.51-6.06,1.61-1.61,3.79-2.51,6.07-2.51,1.13,0,2.24.22,3.28.65,1.04.43,1.99,1.06,2.78,1.86.8.8,1.43,1.74,1.86,2.78.43,1.04.65,2.16.65,3.28v8.61c0,1.13-.22,2.24-.65,3.29-.43,1.04-1.06,1.99-1.86,2.79-.8.8-1.74,1.43-2.78,1.86-1.04.43-2.16.65-3.29.65Z"/>
      <path class="cls-1" d="M75.55,19.41h0c-22.3,0-40.38,18.08-40.38,40.38v8.49c0,22.3,18.08,40.38,40.38,40.38h0c22.3,0,40.38-18.08,40.38-40.38v-8.49c0-22.3-18.08-40.38-40.38-40.38Z"/>
      <path class="cls-1" d="M39.59,79.86c2.84-2.84,2.84-7.45,0-10.29-2.84-2.84-7.45-2.84-10.29,0-2.84,2.84-2.84,7.45,0,10.29,2.84,2.84,7.45,2.84,10.29,0Z"/>
      <path class="cls-1" d="M123.8,76.07c.76-3.95-1.83-7.76-5.77-8.51-3.95-.76-7.76,1.83-8.51,5.77-.76,3.95,1.83,7.76,5.77,8.51,3.95.76,7.76-1.83,8.51-5.78Z"/>
      <path class="cls-1" d="M50.16,82.7c0,.51-.74.91-1.66.91s-1.67-.41-1.67-.91.75-.91,1.67-.91,1.66.41,1.66.91Z"/>
      <path class="cls-1" d="M55.37,82.7c0,.51-.75.91-1.67.91s-1.66-.41-1.66-.91.74-.91,1.66-.91,1.67.41,1.67.91Z"/>
      <path class="cls-1" d="M52.96,85.11c0,.51-.75.91-1.67.91s-1.66-.41-1.66-.91.75-.91,1.66-.91,1.67.41,1.67.91Z"/>
      <path class="cls-1" d="M58.22,85.11c0,.51-.75.91-1.67.91s-1.67-.41-1.67-.91.75-.91,1.67-.91,1.67.41,1.67.91Z"/>
      <path class="cls-1" d="M60.59,82.7c0,.51-.74.91-1.66.91s-1.67-.41-1.67-.91.75-.91,1.67-.91,1.66.41,1.66.91Z"/>
      <path class="cls-1" d="M93.04,82.7c0,.51-.75.91-1.67.91s-1.67-.41-1.67-.91.75-.91,1.67-.91,1.67.41,1.67.91Z"/>
      <path class="cls-1" d="M98.25,82.7c0,.51-.75.91-1.66.91s-1.67-.41-1.67-.91.75-.91,1.67-.91,1.66.41,1.66.91Z"/>
      <path class="cls-1" d="M95.84,85.11c0,.51-.74.91-1.66.91s-1.67-.41-1.67-.91.75-.91,1.67-.91,1.66.41,1.66.91Z"/>
      <path class="cls-1" d="M101.09,85.11c0,.51-.75.91-1.67.91s-1.66-.41-1.66-.91.74-.91,1.66-.91,1.67.41,1.67.91Z"/>
      <path class="cls-1" d="M103.46,82.7c0,.51-.75.91-1.67.91s-1.67-.41-1.67-.91.75-.91,1.67-.91,1.67.41,1.67.91Z"/>
      <path class="cls-3" d="M56.56,76.85c1.85,0,3.36-1.5,3.36-3.36s-1.5-3.36-3.36-3.36-3.36,1.5-3.36,3.36,1.5,3.36,3.36,3.36Z"/>
      <path class="cls-3" d="M94.54,76.85c1.85,0,3.36-1.5,3.36-3.36s-1.5-3.36-3.36-3.36-3.36,1.5-3.36,3.36,1.5,3.36,3.36,3.36Z"/>
      <path class="cls-3" d="M70.12,79.1v8.3c0,1.44.58,2.82,1.6,3.84s2.4,1.59,3.84,1.6c1.44,0,2.82-.57,3.84-1.59,1.02-1.02,1.6-2.4,1.6-3.84v-8.3h-10.88Z"/>
      <path class="cls-3" d="M119.23,52.71v2.17c-8.49,6.56-18.91,10.11-29.64,10.1-11.16,0-21.99-3.85-30.64-10.9-8.66-7.05-14.62-16.87-16.88-27.8,3.7-4.13,8.22-7.43,13.28-9.69,5.06-2.26,10.54-3.43,16.08-3.43h8.24c21.76,0,39.56,17.8,39.56,39.56Z"/>
      <path class="cls-1" d="M63.55,137.63h-8.18v36.3h8.18v-36.3Z"/>
      <path class="cls-1" d="M95.78,137.63h-8.18v36.3h8.18v-36.3Z"/>
    </g>
  </g>
</svg>