<?xml version="1.0" encoding="UTF-8"?>
<svg id="Camada_7" data-name="Camada 7" xmlns="http://www.w3.org/2000/svg" xmlns:xlink="http://www.w3.org/1999/xlink" viewBox="0 0 150.01 209.63">
  <defs>
    <style>
      .cls-1 {
        fill: #3ab22c;
      }

      .cls-1, .cls-2, .cls-3 {
        stroke-width: 0px;
      }

      .cls-2 {
        fill: #0e7d70;
      }

      .cls-3 {
        fill: none;
      }

      .cls-4 {
        clip-path: url(#clippath);
      }
    </style>
    <clipPath id="clippath">
      <rect class="cls-3" y="0" width="150" height="150"/>
    </clipPath>
  </defs>
  <g class="cls-4">
    <g>
      <path class="cls-2" d="M115.4,138.25c9.38-9.38,9.38-24.57,0-33.95-9.38-9.38-24.57-9.38-33.95,0-9.38,9.38-9.38,24.57,0,33.95,9.37,9.38,24.57,9.38,33.95,0Z"/>
      <path class="cls-2" d="M75.36,125.43c-24.09,0-43.68-19.59-43.68-43.68v-20.17c0-24.09,19.59-43.68,43.68-43.68s43.69,19.59,43.69,43.68v20.17c0,24.09-19.61,43.68-43.69,43.68Z"/>
      <path class="cls-1" d="M75.36,21.2h0c-22.3,0-40.38,18.08-40.38,40.38v20.17c0,22.3,18.08,40.38,40.38,40.38h0c22.3,0,40.38-18.08,40.38-40.38v-20.17c0-22.3-18.08-40.38-40.38-40.38Z"/>
      <path class="cls-2" d="M119.06,70.54v-8.14c0-25.17-20.92-45.78-46.05-44.43-22.99,1.22-41.32,20.32-41.32,43.62v9.51c0,.07,33.93,21.28,52.68-18.84,7.67,12.7,19.37,18.45,34.5,18.3.07.09.19.09.19-.02Z"/>
      <path class="cls-2" d="M34.98,68.59c-.61-5.03.25-10.28,2.22-15.11,2.05-4.87,5.14-9.23,9.04-12.79,7.8-7.2,18.48-11.1,29.12-11.11,10.64,0,21.31,3.9,29.12,11.1,3.91,3.56,6.99,7.92,9.04,12.79,1.97,4.83,2.83,10.08,2.22,15.11-.55-4.91-2.13-9.66-4.63-13.93-2.43-4.13-5.63-7.76-9.42-10.7-7.49-5.86-16.92-8.88-26.33-8.91-9.42.02-18.84,3.04-26.34,8.9-3.8,2.93-7,6.57-9.44,10.7-2.49,4.27-4.06,9.02-4.61,13.93Z"/>
      <path class="cls-1" d="M42.25,89.33c.63-5.7-3.49-10.84-9.19-11.47-5.7-.63-10.84,3.49-11.47,9.19-.63,5.7,3.49,10.84,9.19,11.47,5.7.63,10.84-3.49,11.47-9.19Z"/>
      <path class="cls-1" d="M128.91,90.59c1.33-5.58-2.12-11.19-7.71-12.51-5.58-1.33-11.19,2.12-12.51,7.71-1.33,5.58,2.12,11.19,7.71,12.52,5.58,1.33,11.19-2.12,12.51-7.71Z"/>
      <path class="cls-2" d="M61.03,96.03c0,3.8,1.51,7.45,4.2,10.14,2.69,2.69,6.33,4.2,10.14,4.2s7.45-1.51,10.14-4.2c2.69-2.69,4.2-6.33,4.2-10.14h-28.67Z"/>
      <path class="cls-1" d="M92.3,180.98c-1.09,0-2.14-.43-2.92-1.21-.77-.77-1.21-1.82-1.21-2.92v-42.96c.03-1.07.48-2.09,1.25-2.84.77-.75,1.8-1.17,2.88-1.17s2.11.42,2.88,1.17c.77.75,1.22,1.77,1.25,2.84v42.96c0,1.09-.43,2.14-1.21,2.91-.77.77-1.82,1.21-2.91,1.21Z"/>
      <path class="cls-1" d="M57.76,180.98c-1.09,0-2.14-.43-2.91-1.21-.77-.77-1.21-1.82-1.21-2.91v-42.96c.03-1.07.48-2.09,1.25-2.84.77-.75,1.8-1.17,2.88-1.17s2.11.42,2.88,1.17c.77.75,1.22,1.77,1.25,2.84v42.96c0,1.09-.43,2.14-1.21,2.92-.77.77-1.82,1.21-2.92,1.21Z"/>
      <path class="cls-2" d="M63.94,129.02h22.84c1.24,0,2.44.49,3.32,1.37.88.88,1.37,2.07,1.37,3.32v25.58h-32.22v-25.58c0-.62.12-1.23.36-1.8.24-.57.58-1.09,1.02-1.52.44-.44.95-.78,1.52-1.02.57-.24,1.18-.36,1.8-.36Z"/>
      <path class="cls-1" d="M68.51,118.38h13.7v13.03c0,1.82-.72,3.56-2.01,4.85-1.28,1.29-3.03,2.01-4.85,2.01-1.82,0-3.56-.73-4.85-2.01-1.28-1.29-2.01-3.03-2.01-4.85v-13.03Z"/>
      <path class="cls-2" d="M54.31,90.75c-.77,0-1.5-.31-2.05-.85-.54-.54-.85-1.28-.85-2.05v-3.68c0-.77.31-1.5.85-2.05.54-.54,1.28-.85,2.05-.85.77,0,1.5.31,2.04.85.54.54.85,1.28.85,2.04v3.68c0,.77-.31,1.5-.85,2.05-.54.54-1.28.85-2.05.85Z"/>
      <path class="cls-2" d="M96.42,90.75c-.77,0-1.5-.31-2.05-.85-.54-.54-.85-1.28-.85-2.05v-3.68c0-.77.31-1.5.85-2.04.54-.54,1.28-.85,2.04-.85.77,0,1.5.31,2.05.85.54.54.85,1.28.85,2.05v3.68c0,.77-.31,1.5-.85,2.05-.54.54-1.28.85-2.05.85Z"/>
    </g>
  </g>
</svg>