<?xml version="1.0" encoding="UTF-8"?>
<svg id="Camada_8" data-name="Camada 8" xmlns="http://www.w3.org/2000/svg" xmlns:xlink="http://www.w3.org/1999/xlink" viewBox="0 0 150.01 209.63">
  <defs>
    <style>
      .cls-1 {
        fill: #81d916;
      }

      .cls-1, .cls-2, .cls-3 {
        stroke-width: 0px;
      }

      .cls-2 {
        fill: none;
      }

      .cls-3 {
        fill: #059a5a;
      }

      .cls-4 {
        clip-path: url(#clippath);
      }
    </style>
    <clipPath id="clippath">
      <rect class="cls-2" y="0" width="150" height="150"/>
    </clipPath>
  </defs>
  <g class="cls-4">
    <g>
      <path class="cls-1" d="M64.46,129.72h21.99c1.36,0,2.66.54,3.62,1.5.96.96,1.5,2.26,1.5,3.62v25.15h-32.23v-25.15c0-1.36.54-2.66,1.5-3.62s2.26-1.5,3.62-1.5Z"/>
      <path class="cls-3" d="M65.6,129.39h2.36c.13,0,.25.05.34.14.09.09.14.21.14.34v29.8h-3.3v-29.8c0-.12.05-.25.14-.33.09-.09.21-.14.33-.14Z"/>
      <path class="cls-3" d="M83.03,129.39h2.36c.13,0,.25.05.34.14.09.09.14.21.14.34v29.8h-3.3v-29.8c0-.12.05-.25.14-.33.09-.09.21-.14.33-.14Z"/>
      <path class="cls-1" d="M65.15,140.18h-5.82v21.48h5.82v-21.48Z"/>
      <path class="cls-1" d="M85.91,161.66h5.67v-21.48h-5.67v21.48Z"/>
      <path class="cls-1" d="M68.43,119.15h14.14v13.7c0,.93-.18,1.85-.54,2.71s-.87,1.64-1.53,2.29c-.66.66-1.43,1.18-2.29,1.54-.86.36-1.78.54-2.71.54-1.88,0-3.67-.74-5-2.07-1.33-1.33-2.07-3.12-2.07-5v-13.7h0Z"/>
      <path class="cls-1" d="M45.87,102.31c2.34-2.34,2.34-6.14,0-8.48-2.34-2.34-6.14-2.34-8.48,0-2.34,2.34-2.34,6.14,0,8.48,2.34,2.34,6.14,2.34,8.48,0Z"/>
      <path class="cls-1" d="M110.11,104.04c3.29-.4,5.63-3.39,5.22-6.68-.4-3.29-3.39-5.63-6.68-5.22-3.29.4-5.63,3.39-5.22,6.68.4,3.29,3.39,5.63,6.68,5.23Z"/>
      <path class="cls-1" d="M33.55,44.85c9.38,0,16.99-7.61,16.99-16.99s-7.61-16.99-16.99-16.99-16.99,7.61-16.99,16.99,7.61,16.99,16.99,16.99Z"/>
      <path class="cls-1" d="M44.11,50.36l-3.49-3.49c-1.58-1.59-2.46-3.73-2.46-5.97s.89-4.38,2.46-5.97c1.59-1.58,3.73-2.46,5.97-2.46s4.38.89,5.97,2.46l3.49,3.49c1.58,1.59,2.46,3.73,2.46,5.97s-.89,4.38-2.46,5.97c-1.59,1.58-3.73,2.46-5.97,2.46s-4.38-.89-5.97-2.46Z"/>
      <path class="cls-1" d="M117.9,44.85c9.38,0,16.99-7.61,16.99-16.99s-7.61-16.99-16.99-16.99-16.99,7.61-16.99,16.99,7.61,16.99,16.99,16.99Z"/>
      <path class="cls-1" d="M107.34,50.36l3.49-3.49c1.58-1.59,2.46-3.73,2.46-5.97s-.88-4.38-2.46-5.97c-1.59-1.58-3.73-2.46-5.97-2.46s-4.39.89-5.97,2.46l-3.49,3.49c-1.58,1.59-2.46,3.73-2.46,5.97s.89,4.38,2.46,5.97c1.59,1.58,3.73,2.46,5.97,2.46s4.38-.89,5.97-2.46Z"/>
      <path class="cls-1" d="M104.88,96.61c16.22-16.22,16.22-42.53,0-58.75-16.22-16.22-42.53-16.22-58.75,0-16.22,16.22-16.22,42.53,0,58.75,16.22,16.22,42.53,16.22,58.75,0Z"/>
      <path class="cls-3" d="M108.79,76.14c0-18.38-14.9-33.29-33.29-33.29s-33.29,14.9-33.29,33.29v16.63c0,18.38,14.9,33.29,33.29,33.29s33.29-14.9,33.29-33.29v-16.63Z"/>
      <path class="cls-1" d="M111.51,76.81c0-20.75-17.23-37.74-37.95-36.63-9.19.51-17.84,4.52-24.18,11.2-6.33,6.68-9.87,15.54-9.88,24.75,15.9-3.7,28.49-10.47,36.01-21.95,7.16,13.08,19.55,20.18,36,22.64Z"/>
      <path class="cls-1" d="M55.24,93.84c0,.42-.61.76-1.37.76s-1.37-.34-1.37-.76.61-.75,1.37-.75,1.37.34,1.37.75Z"/>
      <path class="cls-1" d="M59.54,93.84c0,.42-.61.76-1.37.76s-1.37-.34-1.37-.76.61-.75,1.37-.75,1.37.34,1.37.75Z"/>
      <path class="cls-1" d="M57.55,95.82c0,.42-.61.76-1.37.76s-1.37-.35-1.37-.76.61-.76,1.37-.76,1.37.34,1.37.76Z"/>
      <path class="cls-1" d="M61.89,95.82c0,.42-.61.76-1.37.76s-1.37-.34-1.37-.76.61-.76,1.37-.76,1.37.34,1.37.76Z"/>
      <path class="cls-1" d="M63.83,93.84c0,.42-.61.76-1.37.76s-1.37-.34-1.37-.76.61-.75,1.37-.75,1.37.34,1.37.75Z"/>
      <path class="cls-1" d="M90.59,93.84c0,.42-.61.76-1.37.76s-1.37-.34-1.37-.76.61-.75,1.37-.75,1.37.34,1.37.75Z"/>
      <path class="cls-1" d="M94.88,93.84c0,.42-.61.76-1.37.76s-1.37-.34-1.37-.76.61-.75,1.37-.75,1.37.34,1.37.75Z"/>
      <path class="cls-1" d="M92.89,95.82c0,.42-.61.76-1.37.76s-1.37-.34-1.37-.76.61-.76,1.37-.76,1.37.34,1.37.76Z"/>
      <path class="cls-1" d="M97.23,95.82c0,.42-.61.76-1.37.76s-1.37-.34-1.37-.76.61-.76,1.37-.76,1.37.34,1.37.76Z"/>
      <path class="cls-1" d="M99.18,93.84c0,.42-.61.76-1.37.76s-1.37-.34-1.37-.76.61-.75,1.37-.75,1.37.34,1.37.75Z"/>
      <path class="cls-1" d="M81.97,99.68c.58-3.57-1.84-6.94-5.41-7.53-3.57-.58-6.94,1.84-7.53,5.41-.58,3.57,1.84,6.94,5.41,7.53,3.57.58,6.94-1.84,7.53-5.41Z"/>
      <path class="cls-1" d="M64.11,87.73c-.36,0-.71-.14-.96-.4-.25-.25-.4-.6-.4-.96-.02-.74-.34-1.45-.87-1.97-.53-.52-1.25-.81-1.99-.81s-1.46.29-1.99.81c-.53.52-.85,1.22-.87,1.97,0,.36-.14.71-.4.96-.25.25-.6.4-.96.4s-.71-.14-.96-.4c-.25-.25-.4-.6-.4-.96-.02-.74.11-1.48.39-2.18.27-.69.68-1.32,1.2-1.86.52-.53,1.14-.95,1.83-1.24.69-.29,1.42-.44,2.17-.44s1.48.15,2.17.44c.69.29,1.31.71,1.83,1.24.52.53.93,1.16,1.2,1.86.27.69.4,1.43.39,2.18,0,.36-.14.71-.4.96-.25.25-.6.4-.96.4Z"/>
      <path class="cls-1" d="M93.49,87.73c-.36,0-.71-.14-.96-.4-.25-.25-.4-.6-.4-.96-.02-.74-.34-1.45-.87-1.97-.53-.52-1.25-.81-1.99-.81s-1.46.29-1.99.81c-.53.52-.85,1.22-.87,1.97,0,.36-.14.71-.4.96-.25.25-.6.4-.96.4s-.71-.14-.96-.4c-.25-.25-.4-.6-.4-.96-.02-.74.11-1.48.39-2.18.27-.69.68-1.32,1.2-1.86.52-.53,1.14-.95,1.83-1.24.69-.29,1.42-.44,2.17-.44s1.48.15,2.17.44c.69.29,1.31.71,1.83,1.24.52.53.93,1.16,1.2,1.86.27.69.4,1.43.39,2.18,0,.18-.03.36-.1.52-.07.17-.17.31-.29.44s-.28.23-.44.29c-.16.07-.34.1-.52.1Z"/>
    </g>
  </g>
</svg>