<?xml version="1.0" encoding="UTF-8"?>
<svg id="Camada_9" data-name="Camada 9" xmlns="http://www.w3.org/2000/svg" xmlns:xlink="http://www.w3.org/1999/xlink" viewBox="0 0 150.01 209.63">
  <defs>
    <style>
      .cls-1 {
        fill: #3ab22c;
      }

      .cls-1, .cls-2, .cls-3 {
        stroke-width: 0px;
      }

      .cls-2 {
        fill: #0e7d70;
      }

      .cls-3 {
        fill: none;
      }

      .cls-4 {
        clip-path: url(#clippath);
      }
    </style>
    <clipPath id="clippath">
      <rect class="cls-3" x=".01" y="0" width="150" height="150"/>
    </clipPath>
  </defs>
  <g class="cls-4">
    <g>
      <path class="cls-2" d="M78.53,36.77l-6.64.07c-4.87.04-9.56-1.85-13.04-5.26-3.48-3.41-5.47-8.05-5.54-12.92-.04-4.87,1.85-9.56,5.26-13.04C61.98,2.14,66.62.15,71.5.08l6.64-.07c4.87-.04,9.56,1.85,13.04,5.26,3.48,3.41,5.47,8.05,5.54,12.92.04,4.87-1.85,9.56-5.26,13.04-3.41,3.48-8.06,5.47-12.93,5.54Z"/>
      <path class="cls-2" d="M75.01,107.75c22.01,0,39.86-17.28,39.86-38.6s-17.85-38.6-39.86-38.6-39.86,17.28-39.86,38.6,17.85,38.6,39.86,38.6Z"/>
      <path class="cls-1" d="M40.39,89.03c0,19.12,15.5,34.62,34.62,34.62s34.62-15.5,34.62-34.62v-16.49c0-19.12-15.5-34.62-34.62-34.62s-34.62,15.5-34.62,34.62v16.49Z"/>
      <path class="cls-1" d="M50.41,90.48c.98-5.05-2.31-9.93-7.36-10.92-5.05-.98-9.93,2.31-10.92,7.36-.98,5.05,2.31,9.93,7.36,10.92,5.05.98,9.93-2.31,10.92-7.36Z"/>
      <path class="cls-1" d="M116.31,94.11c2.99-4.18,2.03-10-2.15-12.99-4.18-2.99-10-2.03-12.99,2.15-2.99,4.18-2.03,10,2.15,12.99,4.18,2.99,10,2.03,12.99-2.15Z"/>
      <path class="cls-2" d="M62.72,91.98c1.83-1.78,1.79-4.79-.1-6.73-1.88-1.94-4.89-2.07-6.72-.29-1.83,1.78-1.79,4.79.1,6.73,1.88,1.94,4.89,2.07,6.72.29Z"/>
      <path class="cls-2" d="M66.37,100.16s3.03,6.12,8.48,6.04c5.45-.08,8.79-6.08,8.79-6.08l-17.27.04Z"/>
      <path class="cls-1" d="M51.41,100.02c0,.63.13,1.25.37,1.82.24.58.6,1.1,1.05,1.53.45.43.98.78,1.57,1,.58.23,1.21.33,1.83.31,1.28-.02,2.49-.54,3.39-1.45.9-.9,1.41-2.12,1.43-3.4,0-.63-.13-1.25-.37-1.82-.24-.58-.6-1.1-1.05-1.53-.45-.44-.98-.78-1.57-1-.58-.23-1.21-.33-1.83-.31-1.28.02-2.49.54-3.39,1.45-.9.9-1.41,2.12-1.43,3.4Z"/>
      <path class="cls-2" d="M55.2,81.58l5.89-.32c.2-.01.39-.06.56-.15.18-.09.33-.21.46-.36.13-.15.22-.32.27-.51.05-.19.07-.39.05-.58-.05-.41-.25-.78-.56-1.04-.31-.26-.71-.4-1.12-.39l-5.89.32c-.2.01-.39.06-.56.15-.18.09-.33.21-.46.36-.13.15-.22.32-.27.51-.05.19-.07.39-.05.58.05.41.25.78.56,1.04.31.27.71.4,1.12.39Z"/>
      <path class="cls-2" d="M94.02,91.69c1.88-1.94,1.93-4.95.1-6.73-1.83-1.78-4.84-1.65-6.72.29-1.88,1.94-1.93,4.95-.1,6.73,1.83,1.78,4.84,1.65,6.72-.29Z"/>
      <path class="cls-1" d="M97.97,102.38c1.32-2.26.53-5.18-1.79-6.54-2.31-1.36-5.26-.63-6.58,1.63-1.32,2.26-.53,5.18,1.79,6.54,2.31,1.36,5.26.63,6.58-1.63Z"/>
      <path class="cls-2" d="M94.82,81.58l-5.89-.32c-.2-.01-.39-.06-.56-.15-.18-.09-.33-.21-.46-.36-.13-.15-.22-.32-.27-.51-.05-.19-.07-.39-.05-.58.05-.41.25-.78.56-1.04.31-.26.71-.4,1.12-.39l5.89.32c.2.01.39.06.56.15.18.09.33.21.46.36.13.15.22.32.27.51.05.19.07.39.05.58-.05.41-.25.78-.56,1.04-.31.27-.71.4-1.12.39Z"/>
      <path class="cls-2" d="M74.52,35.41c-34.05,0-35.81,29.35-35.81,29.35h72.59s-2.74-29.35-36.79-29.35Z"/>
      <path class="cls-2" d="M59.59,39.61l30.76.26c1.15,0,2.25-.44,3.07-1.25.82-.8,1.28-1.9,1.3-3.05,0-1.15-.44-2.25-1.25-3.07-.8-.82-1.9-1.28-3.05-1.3l-30.76-.26c-1.15,0-2.25.44-3.07,1.24-.82.8-1.29,1.9-1.3,3.04,0,1.15.44,2.25,1.24,3.07s1.9,1.29,3.05,1.3Z"/>
      <path class="cls-2" d="M31.64,175.95c-.87,0-1.72-.25-2.45-.73-.73-.47-1.31-1.15-1.66-1.94-.36-.79-.48-1.67-.34-2.53.13-.86.51-1.66,1.09-2.31l30.34-34.13c.79-.89,1.91-1.44,3.11-1.51,1.19-.07,2.37.34,3.26,1.13.89.79,1.44,1.91,1.51,3.11.07,1.19-.34,2.37-1.13,3.26l-30.34,34.14c-.42.48-.94.86-1.53,1.12-.58.26-1.21.4-1.85.4Z"/>
      <path class="cls-2" d="M118.38,175.95c.87,0,1.72-.25,2.45-.73.73-.47,1.31-1.15,1.66-1.94.36-.79.47-1.67.34-2.53-.13-.86-.51-1.66-1.09-2.31l-30.34-34.13c-.39-.44-.87-.8-1.4-1.06-.53-.26-1.11-.41-1.7-.44-.59-.04-1.18.05-1.74.24-.56.19-1.08.5-1.52.89-.44.39-.8.87-1.06,1.4-.26.53-.41,1.11-.44,1.7-.03.59.05,1.18.24,1.74.19.56.5,1.08.89,1.52l30.34,34.14c.42.48.94.86,1.52,1.12s1.21.4,1.85.4Z"/>
      <path class="cls-2" d="M95.46,147.96c-.12-11.54-5.98-20.91-20.45-20.91s-20.57,9.37-20.45,20.91v25.45h40.91v-25.45Z"/>
      <path class="cls-1" d="M66.96,116.46h16.11v14.71c0,1.65-.65,3.23-1.82,4.39-1.17,1.17-2.75,1.82-4.39,1.82h-3.68c-1.65,0-3.23-.65-4.39-1.82-1.17-1.16-1.82-2.75-1.82-4.39v-14.71h0Z"/>
    </g>
  </g>
</svg>