<?xml version="1.0" encoding="UTF-8"?>
<svg id="Camada_10" data-name="Camada 10" xmlns="http://www.w3.org/2000/svg" xmlns:xlink="http://www.w3.org/1999/xlink" viewBox="0 0 150.01 209.63">
  <defs>
    <style>
      .cls-1 {
        fill: #3ab22c;
      }

      .cls-1, .cls-2, .cls-3 {
        stroke-width: 0px;
      }

      .cls-2 {
        fill: #0e7d70;
      }

      .cls-3 {
        fill: none;
      }

      .cls-4 {
        clip-path: url(#clippath);
      }
    </style>
    <clipPath id="clippath">
      <rect class="cls-3" y="0" width="150" height="150"/>
    </clipPath>
  </defs>
  <g class="cls-4">
    <g>
      <path class="cls-2" d="M32.45,181.48l-6.42-4.36,34.68-51.15c.29-.42.65-.78,1.08-1.06.43-.28.9-.47,1.4-.57.5-.1,1.01-.09,1.51.01.5.1.97.3,1.4.59.42.29.78.65,1.06,1.08.28.43.47.9.57,1.4.1.5.09,1.02-.01,1.51-.1.5-.3.97-.59,1.4l-34.69,51.15Z"/>
      <path class="cls-1" d="M66.1,124.95c-.42-.29-.9-.49-1.39-.59-.5-.1-1.01-.11-1.51-.01-.5.1-.98.29-1.4.57-.43.28-.79.64-1.08,1.06l-6.62,9.91,6.52,4.21,6.53-9.76c.29-.42.49-.9.59-1.39.1-.5.11-1.02.01-1.52-.1-.5-.29-.98-.57-1.4s-.64-.79-1.06-1.08Z"/>
      <path class="cls-2" d="M117.7,181.66l6.42-4.36-34.68-51.15c-.29-.42-.65-.78-1.08-1.06-.43-.28-.9-.47-1.4-.57-.5-.1-1.02-.09-1.51.01-.5.1-.97.3-1.4.59-.85.58-1.44,1.47-1.63,2.48-.19,1.01.02,2.06.6,2.91l34.68,51.16Z"/>
      <path class="cls-1" d="M84.04,125.12c.42-.29.9-.49,1.4-.59.5-.1,1.01-.11,1.51-.01.5.1.98.29,1.4.57.43.28.79.64,1.08,1.06l6.62,9.91-6.52,4.21-6.53-9.77c-.58-.85-.79-1.9-.6-2.91.19-1.01.78-1.9,1.63-2.48Z"/>
      <path class="cls-1" d="M125.23,108.68c13.26,0,24.01-10.75,24.01-24.01s-10.75-24.01-24.01-24.01-24.01,10.75-24.01,24.01,10.75,24.01,24.01,24.01Z"/>
      <path class="cls-1" d="M24.23,108.68c13.26,0,24.01-10.75,24.01-24.01s-10.75-24.01-24.01-24.01S.22,71.41.22,84.67s10.75,24.01,24.01,24.01Z"/>
      <path class="cls-1" d="M74.73,116.25c-24.09,0-43.68-19.59-43.68-43.68v-20.17c0-24.08,19.59-43.68,43.68-43.68s43.68,19.6,43.68,43.68v20.17c0,24.09-19.6,43.68-43.68,43.68Z"/>
      <path class="cls-2" d="M83.71,104.58h-17.16v31.53h17.16v-31.53Z"/>
      <path class="cls-2" d="M74.73,12.03h0c-22.3,0-40.38,18.08-40.38,40.38v20.17c0,22.3,18.08,40.38,40.38,40.38h0c22.3,0,40.38-18.08,40.38-40.38v-20.17c0-22.3-18.08-40.38-40.38-40.38Z"/>
      <path class="cls-1" d="M118.41,61.36v-8.14c0-25.17-20.9-45.78-46.04-44.43-22.99,1.23-41.31,20.32-41.31,43.62v9.52c0,.07,33.93,21.27,52.68-18.84,7.67,12.7,19.38,18.46,34.5,18.3.06.08.17.09.17-.02Z"/>
      <path class="cls-2" d="M31.28,89.41c5.74,0,10.39-4.65,10.39-10.39s-4.65-10.39-10.39-10.39-10.39,4.65-10.39,10.39,4.65,10.39,10.39,10.39Z"/>
      <path class="cls-2" d="M118.17,89.41c5.74,0,10.39-4.65,10.39-10.39s-4.65-10.39-10.39-10.39-10.39,4.65-10.39,10.39,4.65,10.39,10.39,10.39Z"/>
      <path class="cls-1" d="M59.13,81.18c-.67.67-1.53,1.13-2.46,1.31-.93.19-1.9.09-2.77-.27-.88-.36-1.63-.98-2.15-1.77-.53-.79-.81-1.72-.81-2.67s.28-1.88.81-2.67c.53-.79,1.28-1.4,2.15-1.77.88-.36,1.84-.46,2.77-.27.93.19,1.79.64,2.46,1.31.45.45.8.97,1.04,1.56.24.58.37,1.21.37,1.84s-.12,1.25-.37,1.84c-.24.58-.6,1.11-1.04,1.56Z"/>
      <path class="cls-2" d="M60.39,86.86c.05,3.77,1.59,7.36,4.27,10,2.68,2.64,6.3,4.13,10.06,4.13s7.38-1.48,10.06-4.13c2.68-2.64,4.22-6.24,4.27-10h-28.67Z"/>
      <path class="cls-1" d="M97.11,81.18c-.67.67-1.53,1.13-2.46,1.31-.93.19-1.9.09-2.77-.27-.88-.36-1.63-.98-2.15-1.77-.53-.79-.81-1.72-.81-2.67s.28-1.88.81-2.67c.53-.79,1.28-1.4,2.15-1.77.88-.36,1.84-.46,2.77-.27.93.19,1.79.64,2.46,1.31.45.45.8.97,1.04,1.56s.37,1.21.37,1.84-.12,1.25-.37,1.84-.6,1.11-1.04,1.56Z"/>
      <path class="cls-2" d="M68.21,122.18h13.7c1.22,0,2.42.24,3.54.7,1.12.47,2.14,1.15,3,2.01.86.86,1.54,1.88,2.01,3,.47,1.12.7,2.33.7,3.54v21.01h-32.23v-21.01c0-1.22.24-2.42.71-3.54.47-1.12,1.15-2.15,2.01-3,.86-.86,1.88-1.54,3.01-2.01,1.12-.46,2.33-.7,3.55-.7Z"/>
      <path class="cls-1" d="M92.32,128.7h-34.79v5.54h34.79v-5.54Z"/>
      <path class="cls-1" d="M92.32,141.51h-34.79v5.54h34.79v-5.54Z"/>
    </g>
  </g>
</svg>