<?xml version="1.0" encoding="UTF-8"?>
<svg id="Camada_11" data-name="Camada 11" xmlns="http://www.w3.org/2000/svg" xmlns:xlink="http://www.w3.org/1999/xlink" viewBox="0 0 150.01 209.63">
  <defs>
    <style>
      .cls-1 {
        fill: #0e7d70;
      }

      .cls-1, .cls-2, .cls-3 {
        stroke-width: 0px;
      }

      .cls-2 {
        fill: #81d916;
      }

      .cls-3 {
        fill: none;
      }

      .cls-4 {
        clip-path: url(#clippath);
      }
    </style>
    <clipPath id="clippath">
      <rect class="cls-3" x=".01" y="0" width="150" height="150"/>
    </clipPath>
  </defs>
  <g class="cls-4">
    <g>
      <path class="cls-1" d="M82.12,21.27c0-9.37-7.6-16.97-16.97-16.97s-16.97,7.6-16.97,16.97v24.03c0,9.37,7.6,16.97,16.97,16.97s16.97-7.6,16.97-16.97v-24.03Z"/>
      <path class="cls-1" d="M46.42,33.28c-2.72,0-5.33,1.09-7.25,3.01-1.92,1.92-3.01,4.53-3.01,7.25v39.77c0,2.72,1.09,5.32,3.01,7.25,1.92,1.92,4.53,3.01,7.25,3.01,2.72,0,5.32-1.09,7.25-3.02,1.92-1.92,3.01-4.53,3.02-7.25v-39.76c0-2.72-1.09-5.33-3.01-7.25-1.92-1.92-4.53-3.01-7.25-3.02Z"/>
      <path class="cls-1" d="M114.35,34.92c0-12.52-10.15-22.66-22.66-22.66s-22.66,10.15-22.66,22.66v45.34c0,12.52,10.15,22.66,22.66,22.66s22.66-10.15,22.66-22.66v-45.34Z"/>
      <path class="cls-2" d="M36.16,102.92c5.17,0,9.35-4.19,9.35-9.35s-4.19-9.35-9.35-9.35-9.35,4.19-9.35,9.35,4.19,9.35,9.35,9.35Z"/>
      <path class="cls-2" d="M114.35,102.92c5.17,0,9.35-4.19,9.35-9.35s-4.19-9.35-9.35-9.35-9.35,4.19-9.35,9.35,4.19,9.35,9.35,9.35Z"/>
      <path class="cls-2" d="M83.34,116.58h-15.44v28.38h15.44v-28.38Z"/>
      <path class="cls-1" d="M69.38,132.42h12.34c2.21,0,4.33.88,5.89,2.44,1.56,1.56,2.44,3.68,2.44,5.89v18.91h-29.01v-18.91c0-2.21.88-4.33,2.44-5.89,1.56-1.56,3.68-2.44,5.89-2.44Z"/>
      <path class="cls-2" d="M75.26,123.24c21.59,0,39.1-18.79,39.1-41.96s-17.5-41.96-39.1-41.96-39.1,18.79-39.1,41.96,17.5,41.96,39.1,41.96Z"/>
      <path class="cls-1" d="M57.46,83.83c6.23,0,11.28-5.05,11.28-11.28s-5.05-11.28-11.28-11.28-11.28,5.05-11.28,11.28,5.05,11.28,11.28,11.28Z"/>
      <path class="cls-1" d="M57.46,84.94c-2.45,0-4.85-.73-6.89-2.09-2.04-1.36-3.63-3.3-4.56-5.56-.94-2.26-1.18-4.76-.71-7.16s1.66-4.61,3.39-6.35c1.73-1.73,3.94-2.91,6.35-3.39,2.4-.48,4.9-.23,7.16.71,2.26.94,4.2,2.53,5.56,4.56,1.36,2.04,2.09,4.43,2.09,6.89,0,3.29-1.31,6.44-3.63,8.76-2.32,2.32-5.47,3.63-8.76,3.63ZM57.46,62.38c-2.01,0-3.98.6-5.65,1.71-1.67,1.12-2.97,2.71-3.74,4.56-.77,1.86-.97,3.9-.58,5.87s1.36,3.78,2.78,5.21c1.42,1.42,3.23,2.39,5.21,2.78,1.97.39,4.02.19,5.87-.58,1.86-.77,3.45-2.07,4.56-3.74,1.12-1.67,1.71-3.64,1.71-5.65,0-2.7-1.08-5.28-2.98-7.19s-4.49-2.98-7.19-2.98Z"/>
      <path class="cls-1" d="M92.64,83.83c6.23,0,11.28-5.05,11.28-11.28s-5.05-11.28-11.28-11.28-11.28,5.05-11.28,11.28,5.05,11.28,11.28,11.28Z"/>
      <path class="cls-1" d="M92.64,84.94c-2.45,0-4.85-.73-6.89-2.09-2.04-1.36-3.63-3.3-4.56-5.56-.94-2.26-1.18-4.76-.71-7.16.48-2.4,1.66-4.61,3.39-6.35,1.73-1.73,3.94-2.91,6.35-3.39,2.4-.48,4.9-.23,7.16.71,2.26.94,4.2,2.53,5.56,4.56,1.36,2.04,2.09,4.43,2.09,6.89,0,3.29-1.31,6.44-3.63,8.76-2.32,2.32-5.47,3.63-8.76,3.63ZM92.64,62.38c-2.01,0-3.98.6-5.65,1.71-1.67,1.12-2.98,2.71-3.74,4.56-.77,1.86-.97,3.9-.58,5.87.39,1.97,1.36,3.78,2.78,5.21s3.23,2.39,5.21,2.78c1.97.39,4.02.19,5.87-.58,1.86-.77,3.45-2.07,4.56-3.74,1.12-1.67,1.71-3.64,1.71-5.65,0-2.7-1.08-5.28-2.98-7.19-1.91-1.91-4.49-2.98-7.19-2.98Z"/>
      <path class="cls-1" d="M68.74,73.66c-.26,0-.51-.09-.71-.26-.2-.17-.33-.4-.38-.66-.04-.26,0-.52.13-.75.13-.23.34-.4.58-.49,4.34-1.55,8.83-1.55,13.35,0,.27.1.49.31.61.57.12.26.14.56.04.83-.09.27-.29.5-.55.63-.26.13-.55.16-.83.08-4.09-1.4-7.97-1.4-11.88,0-.12.04-.25.06-.38.05Z"/>
      <path class="cls-1" d="M58.01,75.09c-.45,0-.88-.18-1.19-.5-.32-.32-.5-.75-.5-1.19v-2.59c0-.45.18-.88.5-1.2.32-.32.75-.5,1.19-.5.45,0,.88.18,1.19.5.32.32.49.75.5,1.2v2.58c0,.22-.04.44-.13.65-.08.21-.21.39-.37.55-.16.16-.34.28-.55.37-.21.09-.43.13-.65.13Z"/>
      <path class="cls-1" d="M92.64,75.09c-.45,0-.88-.18-1.19-.5-.32-.32-.5-.75-.5-1.19v-2.59c0-.45.18-.87.5-1.19.32-.31.74-.49,1.19-.49.45,0,.88.18,1.19.5.32.32.49.75.5,1.2v2.57c0,.22-.04.44-.13.65-.08.21-.21.39-.37.55-.16.16-.34.28-.55.37-.21.09-.43.13-.65.13Z"/>
      <path class="cls-1" d="M75.5,94.68c-4.87,0-9.83-1.43-14.83-4.3-.13-.07-.24-.17-.33-.28-.09-.12-.15-.25-.19-.39-.04-.14-.05-.29-.03-.43.02-.14.07-.28.14-.41.07-.13.17-.24.28-.33.12-.09.25-.16.39-.19.14-.04.29-.05.43-.03.14.02.28.07.41.14,9.39,5.37,18.2,5.38,26.94.02.25-.15.55-.2.84-.13.14.03.28.1.39.18.12.09.22.19.29.32.08.12.13.26.15.41.02.14.02.29-.02.43-.03.14-.1.28-.18.39-.09.12-.19.22-.32.29-4.69,2.87-9.48,4.31-14.38,4.31Z"/>
      <path class="cls-2" d="M68.39,143.46h-7.34v41.03h7.34v-41.03Z"/>
      <path class="cls-2" d="M82.71,184.49h7.34v-41.03h-7.34v41.03Z"/>
    </g>
  </g>
</svg>