<?xml version="1.0" encoding="UTF-8"?>
<svg id="Camada_12" data-name="Camada 12" xmlns="http://www.w3.org/2000/svg" xmlns:xlink="http://www.w3.org/1999/xlink" viewBox="0 0 150.01 209.63">
  <defs>
    <style>
      .cls-1 {
        fill: #3ab22c;
      }

      .cls-1, .cls-2, .cls-3 {
        stroke-width: 0px;
      }

      .cls-2 {
        fill: #81d916;
      }

      .cls-3 {
        fill: none;
      }

      .cls-4 {
        clip-path: url(#clippath);
      }
    </style>
    <clipPath id="clippath">
      <rect class="cls-3" x=".01" y="0" width="150" height="150"/>
    </clipPath>
  </defs>
  <g class="cls-4">
    <g>
      <path class="cls-1" d="M109.08,141.9c18.72-18.72,18.72-49.08,0-67.8-18.72-18.72-49.08-18.72-67.8,0-18.72,18.72-18.72,49.08,0,67.8,18.72,18.72,49.08,18.72,67.8,0Z"/>
      <path class="cls-1" d="M74.77,115.58c-24.09,0-43.68-19.59-43.68-43.68v-20.17c0-24.09,19.59-43.68,43.68-43.68s43.69,19.59,43.69,43.68v20.17c0,24.09-19.6,43.68-43.69,43.68Z"/>
      <path class="cls-1" d="M83.73,121.68c-.15,2.17-1.11,4.21-2.7,5.69-1.59,1.49-3.69,2.31-5.86,2.31-2.18,0-4.27-.83-5.85-2.32s-2.55-3.53-2.68-5.7c-2.14.38-4.08,1.5-5.48,3.16-1.4,1.66-2.17,3.77-2.17,5.94v21.01h32.23v-21.01c0-2.15-.75-4.23-2.11-5.88-1.37-1.66-3.26-2.79-5.37-3.2Z"/>
      <path class="cls-1" d="M108.1,190.26v-10c0-17.96-14.7-32.66-32.67-32.66s-32.67,14.7-32.67,32.66v10h65.33Z"/>
      <path class="cls-2" d="M64.77,177.8l-7.76.02-.41-48.83c0-.51.1-1.01.29-1.49.19-.47.48-.9.84-1.26.36-.36.79-.65,1.26-.85.47-.2.97-.3,1.48-.3.51,0,1.01.1,1.49.29.47.19.9.48,1.26.84.36.36.65.79.84,1.26.2.47.3.98.3,1.49l.41,48.83Z"/>
      <path class="cls-2" d="M85.55,177.8l7.76.02.41-48.83c0-.51-.1-1.01-.29-1.49-.19-.47-.48-.9-.84-1.26-.36-.36-.79-.65-1.26-.84-.47-.2-.98-.3-1.48-.3-.51,0-1.01.1-1.49.29-.47.19-.9.48-1.26.84-.36.36-.65.79-.84,1.26-.2.47-.3.97-.3,1.48l-.41,48.83Z"/>
      <path class="cls-1" d="M70.01,121.46c.45-1.89-.72-3.78-2.6-4.22-1.88-.45-3.78.72-4.22,2.6-.45,1.88.72,3.78,2.6,4.22,1.88.45,3.78-.72,4.22-2.6Z"/>
      <path class="cls-1" d="M71.97,128.07c.44-1.89-.73-3.77-2.61-4.22-1.89-.44-3.77.73-4.22,2.61-.44,1.89.73,3.77,2.61,4.22,1.89.44,3.77-.73,4.22-2.61Z"/>
      <path class="cls-1" d="M77.47,132.29c1.46-1.27,1.62-3.49.35-4.95-1.27-1.46-3.48-1.62-4.95-.35-1.46,1.27-1.62,3.48-.35,4.95,1.27,1.46,3.48,1.62,4.95.35Z"/>
      <path class="cls-1" d="M84.38,129.74c1.37-1.37,1.37-3.59,0-4.96-1.37-1.37-3.59-1.37-4.96,0-1.37,1.37-1.37,3.59,0,4.96,1.37,1.37,3.59,1.37,4.96,0Z"/>
      <path class="cls-1" d="M84.83,124.13c1.92-.24,3.29-1.99,3.05-3.91-.24-1.92-1.99-3.29-3.91-3.06-1.92.24-3.29,1.99-3.05,3.91.24,1.92,1.99,3.29,3.91,3.05Z"/>
      <path class="cls-2" d="M75.18,129.68c-2.28,0-4.46-.9-6.07-2.51-1.61-1.61-2.51-3.79-2.51-6.07v-8.61c0-2.27.9-4.46,2.51-6.06,1.61-1.61,3.79-2.51,6.07-2.51,2.27,0,4.45.91,6.06,2.52,1.61,1.61,2.51,3.79,2.51,6.06v8.61c0,2.27-.9,4.45-2.51,6.06s-3.79,2.51-6.06,2.52Z"/>
      <path class="cls-2" d="M74.78,11.35h0c-22.3,0-40.38,18.08-40.38,40.38v20.17c0,22.3,18.08,40.38,40.38,40.38h0c22.3,0,40.38-18.08,40.38-40.38v-20.17c0-22.3-18.08-40.38-40.38-40.38Z"/>
      <path class="cls-1" d="M118.46,60.69v-8.14c0-25.17-20.9-45.78-46.04-44.43-22.99,1.22-41.32,20.32-41.32,43.62v9.51s8.7,7.43,25.38,4.54c16.68-2.88,21.66-15.93,32.46-17.69,6.7-1.09.44,16.75,5.21,19.85,5.67,3.65,21.92-7.21,24.12-7.23.08.08.19.09.19-.02Z"/>
      <path class="cls-2" d="M33.67,85.61c4.02,0,7.27-3.26,7.27-7.27s-3.26-7.27-7.27-7.27-7.27,3.26-7.27,7.27,3.26,7.27,7.27,7.27Z"/>
      <path class="cls-2" d="M115.88,85.61c4.02,0,7.28-3.26,7.28-7.27s-3.26-7.27-7.28-7.27-7.27,3.26-7.27,7.27,3.26,7.27,7.27,7.27Z"/>
      <path class="cls-1" d="M49.38,86.33c0,.5-.75.91-1.67.91s-1.66-.41-1.66-.91.74-.91,1.66-.91,1.67.41,1.67.91Z"/>
      <path class="cls-1" d="M54.59,86.33c0,.5-.74.91-1.66.91s-1.67-.41-1.67-.91.75-.91,1.67-.91,1.66.41,1.66.91Z"/>
      <path class="cls-1" d="M52.18,88.73c0,.51-.75.91-1.67.91s-1.67-.41-1.67-.91.75-.91,1.67-.91,1.67.41,1.67.91Z"/>
      <path class="cls-1" d="M57.44,88.73c0,.51-.74.91-1.66.91s-1.67-.41-1.67-.91.75-.91,1.67-.91,1.66.41,1.66.91Z"/>
      <path class="cls-1" d="M59.8,86.33c0,.5-.75.91-1.67.91s-1.66-.41-1.66-.91.74-.91,1.66-.91,1.67.41,1.67.91Z"/>
      <path class="cls-1" d="M92.27,86.33c0,.5-.74.91-1.66.91s-1.67-.41-1.67-.91.75-.91,1.67-.91,1.66.41,1.66.91Z"/>
      <path class="cls-1" d="M97.47,86.33c0,.5-.75.91-1.67.91s-1.67-.41-1.67-.91.75-.91,1.67-.91,1.67.41,1.67.91Z"/>
      <path class="cls-1" d="M95.06,88.73c0,.51-.75.91-1.67.91s-1.66-.41-1.66-.91.74-.91,1.66-.91,1.67.41,1.67.91Z"/>
      <path class="cls-1" d="M100.32,88.73c0,.51-.75.91-1.67.91s-1.67-.41-1.67-.91.75-.91,1.67-.91,1.67.41,1.67.91Z"/>
      <path class="cls-1" d="M102.68,86.33c0,.5-.75.91-1.66.91s-1.67-.41-1.67-.91.75-.91,1.67-.91,1.66.41,1.66.91Z"/>
      <path class="cls-1" d="M59.17,80.51c-.67.67-1.53,1.13-2.46,1.31-.93.19-1.9.09-2.77-.27s-1.63-.98-2.15-1.77c-.53-.79-.81-1.72-.81-2.67s.28-1.88.81-2.67c.53-.79,1.28-1.4,2.15-1.77.88-.36,1.84-.46,2.77-.27.93.19,1.79.64,2.46,1.31.9.9,1.4,2.12,1.4,3.39s-.51,2.49-1.4,3.39Z"/>
      <path class="cls-1" d="M97.16,80.51c-.67.67-1.53,1.13-2.46,1.31-.93.19-1.9.09-2.77-.27s-1.63-.98-2.15-1.77c-.53-.79-.81-1.72-.81-2.67s.28-1.88.81-2.67c.53-.79,1.28-1.4,2.15-1.77.88-.36,1.84-.46,2.77-.27.93.19,1.79.64,2.46,1.31.9.9,1.4,2.12,1.4,3.39s-.51,2.49-1.4,3.39Z"/>
      <path class="cls-1" d="M66.16,85c.68,1.69,1.84,3.15,3.35,4.17,1.51,1.02,3.29,1.57,5.12,1.57s3.61-.55,5.12-1.57c1.51-1.02,2.68-2.48,3.35-4.17h-16.94Z"/>
    </g>
  </g>
</svg>