<?xml version="1.0" encoding="UTF-8"?>
<svg id="Camada_13" data-name="Camada 13" xmlns="http://www.w3.org/2000/svg" xmlns:xlink="http://www.w3.org/1999/xlink" viewBox="0 0 150.01 209.63">
  <defs>
    <style>
      .cls-1 {
        fill: #3ab22c;
      }

      .cls-1, .cls-2, .cls-3 {
        stroke-width: 0px;
      }

      .cls-2 {
        fill: #0e7d70;
      }

      .cls-3 {
        fill: none;
      }

      .cls-4 {
        clip-path: url(#clippath);
      }
    </style>
    <clipPath id="clippath">
      <rect class="cls-3" x=".01" y="0" width="150" height="150"/>
    </clipPath>
  </defs>
  <g class="cls-4">
    <g>
      <path class="cls-2" d="M117.28,55.59c0-23.44-19-42.44-42.44-42.44s-42.44,19-42.44,42.44v47.27c0,23.44,19,42.44,42.44,42.44s42.44-19,42.44-42.44v-47.27Z"/>
      <path class="cls-1" d="M112.92,56.63c0-21.03-17.05-38.08-38.08-38.08s-38.08,17.05-38.08,38.08v18.13c0,21.03,17.05,38.08,38.08,38.08s38.08-17.05,38.08-38.08v-18.13Z"/>
      <path class="cls-2" d="M117.28,60.25c0-4.57-.73-13.64-2.08-17.76-5.56-16.97-21.58-29.33-40.35-29.33-20.05,0-36.97,14.1-41.34,32.87-.72,3.08-1.1,14.22-1.1,17.51,24.39,3.12,51.96-2.59,66.74-20.32,1.8,9.78,11.74,16.17,18.14,17.04Z"/>
      <path class="cls-1" d="M47.65,75.58c-.23,2.01-1.06,3.91-2.37,5.45-1.31,1.54-3.05,2.66-5,3.22-1.95.55-4.02.52-5.94-.1-1.93-.62-3.63-1.8-4.88-3.39-1.26-1.59-2.02-3.51-2.18-5.53-.16-2.02.28-4.04,1.26-5.81.99-1.77,2.47-3.21,4.28-4.13,1.8-.92,3.84-1.29,5.85-1.06,1.34.15,2.63.57,3.8,1.23,1.17.65,2.21,1.53,3.04,2.59.83,1.05,1.45,2.26,1.82,3.56.37,1.29.48,2.65.32,3.98Z"/>
      <path class="cls-1" d="M122.28,76.17c.98-5.57-2.74-10.88-8.31-11.86-5.57-.98-10.88,2.74-11.86,8.31-.98,5.57,2.74,10.88,8.31,11.86,5.57.98,10.88-2.74,11.86-8.31Z"/>
      <path class="cls-2" d="M117.28,82.98c-.6,0-1.17-.24-1.6-.66-.42-.42-.66-1-.66-1.6v-25.13c0-22.15-18.02-40.18-40.18-40.18s-40.18,18.02-40.18,40.18v25.13c0,.3-.06.59-.17.86-.11.27-.28.52-.49.73-.21.21-.46.38-.73.49-.27.11-.57.17-.86.17s-.59-.06-.86-.17c-.27-.11-.52-.28-.73-.49-.21-.21-.38-.46-.49-.73-.11-.27-.17-.57-.17-.86v-25.13c0-24.64,20.04-44.68,44.68-44.68s44.69,20.05,44.69,44.69v25.13c0,.59-.24,1.16-.66,1.58-.42.42-.99.66-1.59.66Z"/>
      <path class="cls-2" d="M29.81,80.9c1.86,0,3.36-2.97,3.36-6.63s-1.51-6.63-3.36-6.63-3.36,2.97-3.36,6.63,1.51,6.63,3.36,6.63Z"/>
      <path class="cls-2" d="M33.61,64.17h0c-1.33,0-2.4,1.08-2.4,2.4v15.39c0,1.33,1.08,2.4,2.4,2.4h0c1.33,0,2.4-1.08,2.4-2.4v-15.39c0-1.33-1.08-2.4-2.4-2.4Z"/>
      <path class="cls-2" d="M119.01,80.9c1.86,0,3.36-2.97,3.36-6.63s-1.5-6.63-3.36-6.63-3.36,2.97-3.36,6.63,1.51,6.63,3.36,6.63Z"/>
      <path class="cls-2" d="M115.21,84.36c.64,0,1.24-.26,1.69-.71.45-.45.71-1.06.71-1.69v-15.38c0-.64-.26-1.24-.71-1.69-.45-.45-1.06-.7-1.69-.71-.64,0-1.24.26-1.69.71-.45.45-.71,1.06-.71,1.69v15.38c0,.64.26,1.24.71,1.69.45.45,1.06.7,1.69.71Z"/>
      <path class="cls-2" d="M56,78.57c2.85-.46,4.79-3.15,4.32-6-.46-2.85-3.15-4.79-6-4.32-2.85.46-4.79,3.15-4.32,6,.46,2.85,3.15,4.79,6,4.32Z"/>
      <path class="cls-2" d="M94.72,78.51c2.81-.66,4.55-3.48,3.89-6.29-.66-2.81-3.48-4.55-6.29-3.89-2.81.66-4.55,3.48-3.89,6.29.66,2.81,3.48,4.55,6.29,3.89Z"/>
      <path class="cls-2" d="M59.76,86.87h29.15s-4.68,6.77-14.58,6.77-14.57-6.77-14.57-6.77Z"/>
      <path class="cls-1" d="M50.47,90.84c2.93,0,5.31-2.35,5.31-5.24s-2.38-5.24-5.31-5.24-5.31,2.35-5.31,5.24,2.38,5.24,5.31,5.24Z"/>
      <path class="cls-1" d="M98.59,90.84c2.93,0,5.31-2.35,5.31-5.24s-2.38-5.24-5.31-5.24-5.31,2.35-5.31,5.24,2.38,5.24,5.31,5.24Z"/>
      <path class="cls-1" d="M45.16,176.98c-.72,0-1.42-.17-2.06-.5-.64-.33-1.19-.8-1.61-1.38-.42-.58-.69-1.26-.79-1.96-.1-.71-.04-1.43.19-2.11l14.55-42.88c.4-1.11,1.22-2.03,2.28-2.55,1.07-.52,2.29-.59,3.41-.21,1.12.38,2.05,1.19,2.58,2.24.53,1.06.63,2.28.26,3.41l-14.55,42.88c-.3.89-.88,1.67-1.65,2.22-.77.55-1.69.85-2.63.85Z"/>
      <path class="cls-1" d="M108.04,176.98c-.94,0-1.86-.3-2.63-.85-.77-.55-1.34-1.32-1.64-2.22l-14.55-42.88c-.19-.56-.27-1.15-.23-1.74.04-.59.19-1.17.46-1.7.26-.53.63-1.01,1.07-1.4.45-.39.96-.69,1.52-.88.56-.19,1.15-.27,1.74-.23.59.04,1.17.19,1.7.46.53.26,1.01.63,1.4,1.07.39.44.69.96.88,1.52l14.55,42.88c.23.68.3,1.4.19,2.11-.1.71-.38,1.38-.79,1.97-.42.58-.97,1.06-1.61,1.38-.64.33-1.34.5-2.06.5Z"/>
      <path class="cls-2" d="M97.55,139.29c-.07-5.56-2.34-10.86-6.31-14.75-3.97-3.89-9.31-6.05-14.87-6.02-5.56.07-10.87,2.34-14.76,6.31-3.89,3.97-6.06,9.32-6.02,14.88l.25,24.74,41.95-.42-.25-24.74Z"/>
      <path class="cls-1" d="M68.38,107.58h16.11v14.71c0,1.65-.65,3.23-1.82,4.39-1.17,1.17-2.75,1.82-4.39,1.82h-3.68c-1.65,0-3.23-.65-4.39-1.82-1.17-1.17-1.82-2.75-1.82-4.39v-14.71h0Z"/>
    </g>
  </g>
</svg>