<?xml version="1.0" encoding="UTF-8"?>
<svg id="Camada_14" data-name="Camada 14" xmlns="http://www.w3.org/2000/svg" xmlns:xlink="http://www.w3.org/1999/xlink" viewBox="0 0 150.01 209.63">
  <defs>
    <style>
      .cls-1 {
        fill: #3ab22c;
      }

      .cls-1, .cls-2, .cls-3 {
        stroke-width: 0px;
      }

      .cls-2 {
        fill: #0e7d70;
      }

      .cls-3 {
        fill: none;
      }

      .cls-4 {
        clip-path: url(#clippath);
      }
    </style>
    <clipPath id="clippath">
      <rect class="cls-3" x=".01" y="0" width="150" height="150"/>
    </clipPath>
  </defs>
  <g class="cls-4">
    <g>
      <path class="cls-1" d="M41.14,188.82h-10.78v-8.92c0-11.93,3.48-22.23,10.07-29.8,6.44-7.4,15.35-11.48,25.09-11.48v10.79c-14.35,0-24.38,12.54-24.38,30.49v8.92Z"/>
      <path class="cls-1" d="M108.88,188.82h10.78v-8.92c0-11.93-3.48-22.23-10.07-29.8-6.44-7.4-15.36-11.48-25.09-11.48v10.79c14.35,0,24.38,12.54,24.38,30.49v8.92Z"/>
      <path class="cls-1" d="M95.67,144.65v38.04h-41.32v-38.04c0-4.77,6.94-8.64,11.72-8.64h17.88c4.78,0,11.72,3.87,11.72,8.64Z"/>
      <path class="cls-1" d="M63.86,139.32h22.29c2.33,0,4.22-1.89,4.22-4.22h0c0-2.33-1.89-4.22-4.22-4.22h-22.29c-2.33,0-4.22,1.89-4.22,4.21h0c0,2.33,1.89,4.22,4.22,4.22Z"/>
      <path class="cls-1" d="M100.96,87.91c3.7.64,7.51-.21,10.58-2.37,3.07-2.16,5.17-5.45,5.83-9.14l2.49-14.17c.64-3.7-.21-7.51-2.37-10.58s-5.44-5.17-9.14-5.83c-3.7-.64-7.51.21-10.58,2.37-3.08,2.16-5.17,5.45-5.83,9.14l-2.49,14.17c-.64,3.7.21,7.51,2.37,10.58,2.16,3.08,5.45,5.17,9.15,5.83Z"/>
      <path class="cls-1" d="M52.7,88.11c3.73-.42,7.15-2.3,9.5-5.23,2.35-2.93,3.45-6.67,3.05-10.41l-1.57-14.3c-.42-3.73-2.3-7.15-5.23-9.5-2.93-2.35-6.67-3.45-10.4-3.05-3.73.42-7.15,2.3-9.5,5.23-2.35,2.93-3.45,6.67-3.05,10.4l1.57,14.3c.42,3.73,2.3,7.15,5.23,9.5,2.93,2.35,6.67,3.45,10.41,3.05Z"/>
      <path class="cls-1" d="M87.42,96.09h0c16.19,0,29.31-13.12,29.31-29.31v-23.16c0-16.19-13.12-29.31-29.31-29.31h0c-16.19,0-29.31,13.12-29.31,29.31v23.16c0,16.19,13.12,29.31,29.31,29.31Z"/>
      <path class="cls-2" d="M75.01,127.75c19.96,0,36.29-16.33,36.29-36.28v-17.27c0-19.96-16.33-34.92-36.29-34.92s-36.28,14.96-36.28,34.92v17.27c0,19.95,16.33,36.28,36.28,36.28Z"/>
      <path class="cls-2" d="M117.71,98.46c4.06-3.54,4.48-9.71.93-13.77-3.54-4.06-9.71-4.48-13.77-.93-4.06,3.54-4.48,9.71-.93,13.77,3.54,4.06,9.71,4.48,13.77.93Z"/>
      <path class="cls-2" d="M47.6,95.19c2.25-4.9.1-10.69-4.8-12.94-4.9-2.25-10.69-.1-12.94,4.8-2.25,4.9-.1,10.69,4.8,12.94,4.9,2.25,10.69.1,12.94-4.8Z"/>
      <path class="cls-1" d="M72.36,72.43c-14.51,0-27.6-6.27-36.97-17.76-1.43-1.75-2.5-3.76-3.15-5.92-.65-2.16-.87-4.43-.64-6.68.23-2.25.9-4.43,1.97-6.41,1.07-1.99,2.52-3.75,4.27-5.17,1.75-1.43,3.76-2.5,5.92-3.15s4.43-.87,6.68-.64c2.25.23,4.43.9,6.41,1.97,1.99,1.07,3.75,2.52,5.17,4.27,2.9,3.55,6.42,5.25,10.77,5.11,5.63-.15,10.07-3.17,10.97-4.41,1.32-1.84,3-3.4,4.93-4.6,1.93-1.19,4.08-1.99,6.32-2.35,2.24-.36,4.53-.27,6.74.26,2.21.53,4.28,1.5,6.12,2.83,1.83,1.34,3.38,3.03,4.56,4.97,1.18,1.94,1.96,4.09,2.29,6.34.34,2.24.23,4.53-.32,6.73-.55,2.2-1.53,4.27-2.88,6.09-7.92,10.84-22.76,18.09-37.82,18.48-.45.02-.9.02-1.35.02Z"/>
      <path class="cls-1" d="M96.8,93.7c1.95-1.95,1.95-5.1,0-7.05-1.95-1.95-5.1-1.95-7.05,0-1.95,1.95-1.95,5.1,0,7.05,1.95,1.95,5.1,1.95,7.05,0Z"/>
      <path class="cls-1" d="M57.88,95.03c2.68-.63,4.34-3.32,3.7-5.99-.63-2.68-3.32-4.34-5.99-3.7-2.68.63-4.34,3.32-3.7,5.99.63,2.68,3.32,4.34,5.99,3.7Z"/>
      <path class="cls-1" d="M87.21,103h-24.4s3.92,10.08,12.2,10.08,12.2-10.08,12.2-10.08Z"/>
      <path class="cls-1" d="M90.92,81.43l4.75.33c.52.03,1.03-.14,1.42-.48.39-.34.63-.82.67-1.34.03-.52-.14-1.03-.48-1.42-.34-.39-.82-.63-1.34-.67l-4.75-.33c-.52-.03-1.03.14-1.42.48-.39.34-.63.82-.67,1.34-.03.52.14,1.03.48,1.42.34.39.82.63,1.34.67Z"/>
      <path class="cls-1" d="M59.1,81.43l-4.75.33c-.52.03-1.03-.14-1.42-.48-.39-.34-.63-.82-.67-1.34-.03-.52.14-1.03.48-1.42.34-.39.82-.63,1.34-.67l4.75-.33c.52-.03,1.03.14,1.42.48.39.34.63.82.67,1.34.03.52-.14,1.03-.48,1.42-.34.39-.82.63-1.34.67Z"/>
      <path class="cls-2" d="M76.76,142.69h-3.51c-1.57,0-3.08-.62-4.19-1.73-1.11-1.11-1.73-2.62-1.73-4.19v-14.01h15.35v14c0,.78-.15,1.55-.45,2.27-.3.72-.73,1.37-1.28,1.92-.55.55-1.2.99-1.92,1.29-.72.3-1.49.45-2.27.45Z"/>
      <path class="cls-1" d="M48.33,196.79v-46.59c0-14.69,19.01-16.06,19.01-16.06l-.22,62.65h-18.78Z"/>
      <path class="cls-1" d="M101.69,196.79v-46.59c0-14.69-19.01-16.06-19.01-16.06l.22,62.65h18.78Z"/>
    </g>
  </g>
</svg>