<?xml version="1.0" encoding="UTF-8"?>
<svg id="Camada_15" data-name="Camada 15" xmlns="http://www.w3.org/2000/svg" xmlns:xlink="http://www.w3.org/1999/xlink" viewBox="0 0 150.01 209.63">
  <defs>
    <style>
      .cls-1 {
        fill: #3ab22c;
      }

      .cls-1, .cls-2, .cls-3 {
        stroke-width: 0px;
      }

      .cls-2 {
        fill: #81d916;
      }

      .cls-3 {
        fill: none;
      }

      .cls-4 {
        clip-path: url(#clippath);
      }
    </style>
    <clipPath id="clippath">
      <rect class="cls-3" x=".01" y="0" width="150" height="150"/>
    </clipPath>
  </defs>
  <g class="cls-4">
    <g>
      <path class="cls-2" d="M76.64,53.53c14.78,0,26.76-11.98,26.76-26.76S91.42,0,76.64,0s-26.76,11.98-26.76,26.76,11.98,26.76,26.76,26.76Z"/>
      <path class="cls-2" d="M46.49,80.59c14.78,0,26.76-11.98,26.76-26.76s-11.98-26.76-26.76-26.76-26.76,11.98-26.76,26.76,11.98,26.76,26.76,26.76Z"/>
      <path class="cls-2" d="M103.31,80.59c14.78,0,26.76-11.98,26.76-26.76s-11.98-26.76-26.76-26.76-26.76,11.98-26.76,26.76,11.98,26.76,26.76,26.76Z"/>
      <path class="cls-1" d="M76.3,42.87h0c-19.27,0-34.9,15.63-34.9,34.9v87.46c0,19.28,15.63,34.9,34.9,34.9h0c19.27,0,34.9-15.62,34.9-34.9v-87.46c0-19.27-15.63-34.9-34.9-34.9Z"/>
      <path class="cls-2" d="M65.36,62.72l-5.19,1.92c-.61.22-1.28.19-1.86-.08-.59-.27-1.04-.76-1.27-1.37-.11-.3-.16-.62-.15-.94.01-.32.09-.64.23-.93.14-.29.33-.55.56-.77.24-.22.51-.39.82-.5l5.19-1.92c.61-.22,1.28-.19,1.86.08.59.27,1.04.76,1.27,1.37.11.3.16.62.15.94-.01.32-.09.64-.23.93s-.33.55-.56.77c-.24.22-.51.39-.82.5Z"/>
      <path class="cls-2" d="M87.24,62.72l5.19,1.92c.61.22,1.28.19,1.86-.08.59-.27,1.04-.76,1.27-1.37.23-.61.2-1.28-.07-1.87-.27-.59-.76-1.05-1.37-1.27l-5.2-1.92c-.61-.22-1.28-.19-1.86.08-.59.27-1.04.76-1.27,1.37-.11.3-.16.62-.15.94.01.32.09.64.22.93.13.29.32.55.56.77s.51.39.81.5Z"/>
      <path class="cls-2" d="M71.09,77.15c1.77,0,3.21-2.01,3.21-4.49s-1.44-4.49-3.21-4.49-3.21,2.01-3.21,4.49,1.44,4.49,3.21,4.49Z"/>
      <path class="cls-2" d="M81.52,77.15c1.77,0,3.21-2.01,3.21-4.49s-1.44-4.49-3.21-4.49-3.21,2.01-3.21,4.49,1.44,4.49,3.21,4.49Z"/>
      <path class="cls-1" d="M46.09,84.71c1.85-4.39-.2-9.44-4.58-11.3-4.39-1.85-9.44.2-11.3,4.58-1.85,4.39.2,9.44,4.58,11.3,4.39,1.85,9.44-.2,11.3-4.58Z"/>
      <path class="cls-1" d="M119.15,84.71c1.85-4.39-.2-9.44-4.58-11.3-4.39-1.85-9.44.2-11.3,4.58-1.86,4.39.2,9.44,4.58,11.3,4.38,1.85,9.44-.2,11.3-4.58Z"/>
      <path class="cls-2" d="M66.4,82.15c-.62,0-1.22.15-1.77.44-.55.29-1.01.7-1.36,1.21-.35.51-.57,1.09-.64,1.71-.07.61,0,1.23.22,1.81,1.06,2.8,2.94,5.22,5.41,6.92,2.46,1.7,5.39,2.62,8.38,2.62s5.92-.91,8.38-2.62c2.46-1.7,4.35-4.12,5.41-6.92.22-.58.3-1.2.22-1.81-.07-.61-.29-1.2-.64-1.71-.35-.51-.82-.93-1.36-1.21-.55-.29-1.15-.44-1.77-.44h-20.46Z"/>
      <path class="cls-2" d="M111.16,114.94H41.4v51.89h69.76v-51.89Z"/>
      <path class="cls-2" d="M111.16,126.23H41.4v7.43h69.76v-7.43Z"/>
      <path class="cls-2" d="M111.16,137.77H41.4v7.43h69.76v-7.43Z"/>
      <path class="cls-1" d="M33.6,192c-2.07,0-4.05-.83-5.51-2.29-1.46-1.46-2.29-3.44-2.29-5.51v-61.46c0-2.07.83-4.05,2.29-5.51,1.46-1.46,3.44-2.28,5.51-2.29h7.8v69.26c0,2.07-.83,4.05-2.29,5.51-1.46,1.46-3.44,2.28-5.51,2.29Z"/>
      <path class="cls-1" d="M118.97,192c-2.07,0-4.05-.82-5.52-2.29-1.46-1.46-2.29-3.45-2.29-5.52v-69.25h7.8c2.07,0,4.06.82,5.52,2.29,1.46,1.46,2.29,3.45,2.29,5.52v61.45c0,2.07-.82,4.05-2.29,5.51-1.46,1.46-3.45,2.29-5.52,2.29Z"/>
    </g>
  </g>
</svg>