<?xml version="1.0" encoding="UTF-8"?>
<svg id="Camada_20" data-name="Camada 20" xmlns="http://www.w3.org/2000/svg" xmlns:xlink="http://www.w3.org/1999/xlink" viewBox="0 0 150.01 209.63">
  <defs>
    <style>
      .cls-1 {
        fill: #0e7d70;
      }

      .cls-1, .cls-2, .cls-3 {
        stroke-width: 0px;
      }

      .cls-2 {
        fill: #81d916;
      }

      .cls-3 {
        fill: none;
      }

      .cls-4 {
        clip-path: url(#clippath);
      }
    </style>
    <clipPath id="clippath">
      <rect class="cls-3" y="0" width="150" height="150"/>
    </clipPath>
  </defs>
  <g class="cls-4">
    <g>
      <path class="cls-2" d="M48.62,168.09h-8.24v-6.82c0-18.27,11.3-31.54,26.87-31.54v8.24c-10.96,0-18.63,9.58-18.63,23.3v6.82h0Z"/>
      <path class="cls-2" d="M109.37,168.09h-8.24v-6.82c0-13.72-7.66-23.3-18.63-23.3v-8.24c15.57,0,26.87,13.27,26.87,31.54v6.82h0Z"/>
      <path class="cls-2" d="M90.74,136.32v29.07h-31.56v-29.07c0-3.65,5.3-6.6,8.95-6.6h13.67c3.65,0,8.94,2.96,8.94,6.6Z"/>
      <path class="cls-1" d="M74.96,139.75s-8.58-3.84-8.58-8.58v-16.63h17.16v16.63c0,4.74-8.58,8.58-8.58,8.58Z"/>
      <path class="cls-2" d="M74.96,105.51c-12.31,0-23.53-3.19-31.61-8.99-8.97-6.45-13.72-15.59-13.72-26.43v-18.1c0-22.23,19.91-39.62,45.33-39.62s45.31,17.4,45.31,39.62v18.1c0,10.85-4.74,19.99-13.7,26.43-8.08,5.81-19.3,8.99-31.61,8.99Z"/>
      <path class="cls-1" d="M43.06,82.12c.75-4.68-2.43-9.09-7.12-9.85-4.68-.75-9.09,2.43-9.85,7.12-.75,4.68,2.43,9.09,7.12,9.85,4.68.75,9.09-2.43,9.85-7.12Z"/>
      <path class="cls-1" d="M123.64,84.04c1.82-4.38-.27-9.41-4.65-11.22-4.38-1.82-9.41.27-11.22,4.65-1.82,4.38.27,9.41,4.65,11.22,4.38,1.82,9.41-.27,11.22-4.65Z"/>
      <path class="cls-1" d="M74.96,122.92c-22.21,0-40.38-12.33-40.38-34.54v-20.16c0-22.21,18.17-39.21,40.38-39.21,22.21-.01,40.38,16.98,40.38,39.21v20.17c0,22.2-18.17,34.53-40.38,34.53Z"/>
      <path class="cls-2" d="M74.96,103.14c-7.35,0-14.43-2.4-19.93-6.76-1.28-1.02-2.11-2.51-2.3-4.14s.28-3.27,1.3-4.55c1.02-1.28,2.51-2.11,4.14-2.3s3.27.28,4.55,1.3c3.32,2.63,7.67,4.08,12.25,4.08s8.81-1.41,12.11-3.98c1.3-1,2.94-1.45,4.56-1.25,1.63.21,3.1,1.05,4.11,2.34,1,1.3,1.45,2.94,1.25,4.56-.21,1.63-1.05,3.11-2.34,4.11-5.48,4.23-12.45,6.57-19.71,6.57v.02Z"/>
      <path class="cls-2" d="M57.76,71.33c0-1.69-1.37-3.05-3.05-3.05s-3.05,1.37-3.05,3.05v2.47c0,1.68,1.37,3.05,3.05,3.05s3.05-1.37,3.05-3.05v-2.47Z"/>
      <path class="cls-2" d="M95.22,76.85c-.81,0-1.58-.33-2.15-.9s-.89-1.34-.9-2.15v-2.47c0-.81.33-1.58.9-2.15s1.34-.89,2.15-.9c.81,0,1.58.33,2.15.9s.89,1.34.9,2.15v2.47c0,.81-.33,1.58-.9,2.15s-1.34.89-2.15.9Z"/>
      <path class="cls-2" d="M121.31,64.85c-.89.11-1.78.17-2.68.17h-45.29c-2.85,0-5.67-.56-8.3-1.65-2.63-1.09-5.02-2.69-7.04-4.7s-3.61-4.4-4.7-7.04c-1.09-2.63-1.65-5.45-1.65-8.3s.56-5.67,1.65-8.3,2.69-5.02,4.7-7.04c2.01-2.01,4.4-3.61,7.04-4.7,2.63-1.09,5.45-1.65,8.3-1.65h28.86c11.32,9.78,18.74,25.24,19.1,43.21h.01Z"/>
      <path class="cls-2" d="M86.7,39.02h25.86c2.3,0,4.51-.92,6.14-2.55s2.55-3.83,2.55-6.14-.92-4.51-2.55-6.14c-1.63-1.63-3.84-2.55-6.14-2.55h-25.86c-2.3,0-4.51.92-6.13,2.55-1.63,1.63-2.55,3.83-2.55,6.13s.92,4.51,2.55,6.14c1.63,1.63,3.84,2.55,6.14,2.56h-.01Z"/>
      <path class="cls-2" d="M121.33,39.02h-38.63c-7.18,0-13,5.82-13,13h0c0,7.18,5.82,13,13,13h38.63c7.18,0,12.99-5.82,12.99-13h0c0-7.18-5.82-13-12.99-13Z"/>
    </g>
  </g>
</svg>