<?xml version="1.0" encoding="UTF-8"?>
<svg id="Camada_16" data-name="Camada 16" xmlns="http://www.w3.org/2000/svg" xmlns:xlink="http://www.w3.org/1999/xlink" viewBox="0 0 150.01 209.63">
  <defs>
    <style>
      .cls-1 {
        fill: #0e7d70;
      }

      .cls-1, .cls-2, .cls-3 {
        stroke-width: 0px;
      }

      .cls-2 {
        fill: #81d916;
      }

      .cls-3 {
        fill: none;
      }

      .cls-4 {
        clip-path: url(#clippath);
      }
    </style>
    <clipPath id="clippath">
      <rect class="cls-3" x="0" y="0" width="150" height="150"/>
    </clipPath>
  </defs>
  <g class="cls-4">
    <g>
      <path class="cls-1" d="M118.66,52.46l6.38,32.04c0,21.65-99.7,21.65-99.7,0l5.45-31.96c2.25-13.06,4.78-19.39,11.08-26.39,3.68-4.11,8.18-7.39,13.22-9.64,5.03-2.25,10.48-3.41,16-3.42h8.2c21.64,0,35.29,15.84,39.36,39.37Z"/>
      <path class="cls-1" d="M103.77,208.62v-33.79c0-15.04-12.31-27.36-27.36-27.36h-2.45c-15.05,0-27.36,12.31-27.36,27.36v33.79h57.17Z"/>
      <path class="cls-1" d="M95.32,151.82v-19.23c-.02-5.34-2.14-10.45-5.92-14.22-3.77-3.77-8.89-5.9-14.22-5.92-5.34.02-10.45,2.14-14.22,5.92-3.77,3.77-5.9,8.89-5.92,14.22v19.23h40.28Z"/>
      <path class="cls-1" d="M75.19,125.46c-2.26,0-4.44-.9-6.04-2.5-1.6-1.6-2.5-3.77-2.5-6.04v-8.58c0-2.26.9-4.44,2.5-6.04,1.6-1.6,3.77-2.5,6.04-2.5,1.12,0,2.23.22,3.27.65,1.04.43,1.98,1.06,2.77,1.85.79.79,1.42,1.73,1.85,2.77.43,1.03.65,2.14.65,3.27v8.57c0,1.12-.22,2.23-.65,3.27-.43,1.04-1.06,1.98-1.85,2.77-.79.79-1.73,1.42-2.77,1.85-1.04.43-2.15.65-3.27.65Z"/>
      <path class="cls-2" d="M75.19,19.31h0c-22.2,0-40.19,17.99-40.19,40.19v8.45c0,22.2,17.99,40.19,40.19,40.19h0c22.2,0,40.19-17.99,40.19-40.19v-8.45c0-22.2-17.99-40.19-40.19-40.19Z"/>
      <path class="cls-2" d="M39.4,79.47c2.83-2.83,2.83-7.41,0-10.24-2.83-2.83-7.41-2.83-10.24,0-2.83,2.83-2.83,7.41,0,10.24,2.83,2.83,7.41,2.83,10.24,0Z"/>
      <path class="cls-2" d="M123.21,75.71c.76-3.93-1.81-7.72-5.74-8.48-3.93-.76-7.72,1.81-8.48,5.74-.76,3.93,1.81,7.72,5.74,8.48,3.93.76,7.72-1.81,8.48-5.74Z"/>
      <path class="cls-1" d="M49.92,82.3c0,.5-.74.91-1.65.91s-1.66-.41-1.66-.91.74-.91,1.66-.91,1.65.41,1.65.91Z"/>
      <path class="cls-1" d="M55.1,82.3c0,.5-.74.91-1.66.91s-1.65-.41-1.65-.91.74-.91,1.65-.91,1.66.41,1.66.91Z"/>
      <path class="cls-1" d="M52.7,84.69c0,.5-.74.91-1.66.91s-1.65-.41-1.65-.91.74-.91,1.65-.91,1.66.41,1.66.91Z"/>
      <path class="cls-1" d="M57.94,84.69c0,.5-.74.91-1.66.91s-1.66-.41-1.66-.91.74-.91,1.66-.91,1.66.41,1.66.91Z"/>
      <path class="cls-1" d="M60.3,82.3c0,.5-.74.91-1.65.91s-1.66-.41-1.66-.91.74-.91,1.66-.91,1.65.41,1.65.91Z"/>
      <path class="cls-1" d="M92.59,82.3c0,.5-.74.91-1.66.91s-1.66-.41-1.66-.91.74-.91,1.66-.91,1.66.41,1.66.91Z"/>
      <path class="cls-1" d="M97.78,82.3c0,.5-.74.91-1.65.91s-1.66-.41-1.66-.91.74-.91,1.66-.91,1.65.41,1.65.91Z"/>
      <path class="cls-1" d="M95.38,84.69c0,.5-.74.91-1.65.91s-1.66-.41-1.66-.91.74-.91,1.66-.91,1.65.41,1.65.91Z"/>
      <path class="cls-1" d="M100.61,84.69c0,.5-.74.91-1.66.91s-1.65-.41-1.65-.91.74-.91,1.65-.91,1.66.41,1.66.91Z"/>
      <path class="cls-1" d="M102.96,82.3c0,.5-.74.91-1.66.91s-1.66-.41-1.66-.91.74-.91,1.66-.91,1.66.41,1.66.91Z"/>
      <path class="cls-1" d="M65.75,75.37c4.38-4.38,4.38-11.49,0-15.88-4.38-4.38-11.49-4.38-15.88,0-4.38,4.38-4.38,11.49,0,15.88s11.49,4.38,15.88,0Z"/>
      <path class="cls-1" d="M57.81,79.77c-2.44,0-4.82-.72-6.85-2.08-2.03-1.36-3.61-3.28-4.54-5.54-.93-2.25-1.18-4.73-.7-7.13.48-2.39,1.65-4.59,3.38-6.31s3.92-2.9,6.31-3.38c2.39-.48,4.87-.23,7.13.7,2.25.93,4.18,2.51,5.53,4.54,1.36,2.03,2.08,4.41,2.08,6.85,0,3.27-1.3,6.41-3.62,8.72-2.31,2.31-5.45,3.61-8.72,3.62ZM57.81,57.31c-2,0-3.96.59-5.62,1.71-1.66,1.11-2.96,2.69-3.73,4.54-.77,1.85-.97,3.88-.57,5.85.39,1.96,1.35,3.77,2.77,5.18,1.42,1.41,3.22,2.38,5.18,2.77,1.96.39,4,.19,5.85-.58,1.85-.77,3.43-2.06,4.54-3.73s1.71-3.62,1.71-5.62c0-2.68-1.07-5.26-2.97-7.15-1.9-1.9-4.47-2.96-7.15-2.97Z"/>
      <path class="cls-1" d="M100.76,75.37c4.38-4.38,4.38-11.49,0-15.88-4.38-4.38-11.49-4.38-15.88,0-4.38,4.38-4.38,11.49,0,15.88,4.38,4.38,11.49,4.38,15.88,0Z"/>
      <path class="cls-1" d="M92.82,79.77c-2.44,0-4.82-.72-6.85-2.08-2.03-1.36-3.61-3.28-4.54-5.54-.93-2.25-1.18-4.73-.7-7.13.48-2.39,1.65-4.59,3.38-6.31,1.72-1.72,3.92-2.9,6.31-3.38,2.39-.48,4.87-.23,7.13.7,2.25.93,4.18,2.51,5.53,4.54,1.36,2.03,2.08,4.41,2.08,6.85,0,3.27-1.31,6.4-3.62,8.72-2.31,2.31-5.45,3.61-8.72,3.62ZM92.82,57.31c-2,0-3.96.59-5.62,1.71-1.66,1.11-2.96,2.69-3.73,4.54-.77,1.85-.97,3.88-.58,5.85.39,1.96,1.35,3.77,2.77,5.18,1.42,1.42,3.22,2.38,5.18,2.77,1.96.39,4,.19,5.85-.58,1.85-.77,3.43-2.06,4.54-3.73,1.11-1.66,1.71-3.62,1.71-5.62,0-2.68-1.07-5.25-2.97-7.15-1.9-1.9-4.47-2.96-7.15-2.97Z"/>
      <path class="cls-1" d="M81.59,68.54c-.12,0-.24-.02-.36-.06-4.07-1.39-7.93-1.4-11.82,0-.14.05-.28.07-.43.06-.15,0-.29-.04-.42-.1-.13-.06-.25-.15-.35-.26-.1-.11-.17-.23-.22-.37-.05-.14-.07-.28-.06-.43,0-.15.04-.29.11-.42.06-.13.15-.25.26-.35.11-.1.23-.17.37-.22,4.32-1.54,8.79-1.54,13.28,0,.25.09.46.26.59.48s.18.49.14.75c-.04.26-.18.49-.38.66-.2.17-.45.26-.71.26h0Z"/>
      <path class="cls-1" d="M58.35,69.97c-.45,0-.87-.18-1.19-.49-.31-.32-.49-.74-.49-1.19v-2.58c0-.45.18-.87.49-1.19.32-.32.74-.49,1.19-.49.45,0,.87.18,1.19.49.32.32.49.74.5,1.19v2.58c0,.45-.18.87-.5,1.19-.32.32-.74.49-1.19.49Z"/>
      <path class="cls-1" d="M92.82,64.02h0c-.93,0-1.68.75-1.68,1.68v2.58c0,.93.75,1.68,1.68,1.68h0c.93,0,1.68-.75,1.68-1.68v-2.58c0-.93-.75-1.68-1.68-1.68Z"/>
      <path class="cls-1" d="M118.66,52.46v11.18c-34.05-2.48-59.65-14.98-76.79-37.49,3.68-4.11,8.18-7.39,13.22-9.64,5.03-2.25,10.48-3.41,16-3.42h8.2c21.65,0,39.37,17.72,39.37,39.37Z"/>
      <path class="cls-1" d="M30.79,52.54c2.25-13.06,4.78-19.39,11.08-26.39,3.68-4.11,8.18-7.39,13.22-9.64,5.03-2.25,10.48-3.41,16-3.42h8.2c21.65,0-48.5,39.45-48.5,39.45Z"/>
      <path class="cls-1" d="M76.45,16.97s-7.21-7.58,2.65-11.25l-2.65,11.25Z"/>
      <path class="cls-1" d="M77.15,15.8s-10.21,2.29-8.3-8.05l8.3,8.05Z"/>
      <path class="cls-1" d="M61.1,82.64c.01,3.73,1.5,7.31,4.14,9.95,2.64,2.64,6.22,4.13,9.95,4.14,3.73-.01,7.31-1.5,9.95-4.14,2.64-2.64,4.13-6.22,4.14-9.95h-28.18Z"/>
      <path class="cls-1" d="M63.25,136.97h-8.14v36.12h8.14v-36.12Z"/>
      <path class="cls-1" d="M95.32,136.97h-8.14v36.12h8.14v-36.12Z"/>
    </g>
  </g>
</svg>