<?xml version="1.0" encoding="UTF-8"?>
<svg id="Camada_19" data-name="Camada 19" xmlns="http://www.w3.org/2000/svg" xmlns:xlink="http://www.w3.org/1999/xlink" viewBox="0 0 150.01 209.63">
  <defs>
    <style>
      .cls-1 {
        fill: #81d916;
      }

      .cls-1, .cls-2, .cls-3 {
        stroke-width: 0px;
      }

      .cls-2 {
        fill: none;
      }

      .cls-3 {
        fill: #059a5a;
      }

      .cls-4 {
        clip-path: url(#clippath);
      }
    </style>
    <clipPath id="clippath">
      <rect class="cls-2" x="0" y="0" width="150" height="150"/>
    </clipPath>
  </defs>
  <g class="cls-4">
    <g>
      <path class="cls-1" d="M84.18,118.15l-17.02-.02c-2.13.38-4.06,1.5-5.45,3.16s-2.15,3.77-2.16,5.94v29.44h32.08v-29.44c0-2.15-.74-4.23-2.1-5.88-1.36-1.66-3.25-2.79-5.35-3.2Z"/>
      <path class="cls-3" d="M75.59,100.37h0c-4.71,0-8.54,3.84-8.54,8.58v9.33c0,4.74,3.82,8.58,8.54,8.58h0c4.71,0,8.54-3.84,8.54-8.58v-9.33c0-4.74-3.82-8.58-8.54-8.58Z"/>
      <path class="cls-1" d="M108.38,88.64c18.11-18.2,18.11-47.7,0-65.89-18.11-18.2-47.47-18.2-65.58,0s-18.11,47.7,0,65.89c18.11,18.2,47.47,18.2,65.58,0Z"/>
      <path class="cls-1" d="M55.62,110.24c5.42-5.45,5.42-14.28,0-19.73s-14.21-5.45-19.63,0c-5.42,5.45-5.42,14.28,0,19.73,5.42,5.45,14.21,5.45,19.63,0Z"/>
      <path class="cls-1" d="M34.4,111.34c0,3.7-1.46,7.25-4.07,9.86-2.6,2.62-6.13,4.09-9.82,4.09-11.13,0-20-13.95-20-13.95,0,0,8.11-13.95,20-13.95,3.68,0,7.21,1.47,9.81,4.08,2.6,2.61,4.07,6.16,4.07,9.86h0Z"/>
      <path class="cls-1" d="M117.14,105.63c2.89-7.13-.52-15.27-7.62-18.18-7.1-2.91-15.2.52-18.09,7.65-2.89,7.13.52,15.27,7.62,18.18,7.1,2.91,15.2-.52,18.09-7.65Z"/>
      <path class="cls-1" d="M115.7,111.34c0,3.7,1.46,7.25,4.07,9.86,2.6,2.62,6.13,4.09,9.82,4.09,11.13,0,20-13.95,20-13.95,0,0-8.11-13.95-20-13.95-3.68,0-7.21,1.47-9.81,4.08s-4.07,6.16-4.07,9.86h-.01Z"/>
      <path class="cls-3" d="M43.6,83.51c1.77-4.39-.33-9.39-4.7-11.17s-9.35.33-11.12,4.72c-1.77,4.39.33,9.39,4.7,11.17,4.37,1.78,9.35-.33,11.12-4.72Z"/>
      <path class="cls-3" d="M122.55,82.22c1.07-4.61-1.78-9.23-6.38-10.3-4.59-1.08-9.18,1.79-10.25,6.41-1.07,4.61,1.78,9.23,6.38,10.3,4.59,1.08,9.18-1.79,10.25-6.41Z"/>
      <path class="cls-3" d="M33.78,67.37c.25,10.98,4.76,21.42,12.57,29.1,7.81,7.68,18.31,11.97,29.24,11.97s21.42-4.3,29.24-11.97c7.81-7.68,12.33-18.12,12.57-29.1-26.06-22.65-53.93-22.65-83.62,0Z"/>
      <path class="cls-1" d="M75.59,25.36c-11.09,0-21.73,4.43-29.57,12.31-7.84,7.88-12.25,18.57-12.25,29.71h57.86l3.52-7.74,3.32,7.73h18.94c0-11.14-4.41-21.83-12.25-29.7-7.84-7.88-18.47-12.3-29.56-12.31h-.01Z"/>
      <path class="cls-1" d="M117.81,67.78h-19.63l-3.03-7.13-3.25,7.13h-58.53v-.41c0-23.39,18.94-42.42,42.22-42.42s42.22,19.03,42.22,42.42c0,0,0,.41,0,.41ZM98.73,66.96h18.25c-.22-22.75-18.71-41.19-41.4-41.19s-41.18,18.44-41.39,41.19h57.17l3.78-8.33,3.58,8.33h.01Z"/>
      <path class="cls-1" d="M56.04,90.56c4.48,0,8.12-1.59,8.12-3.55s-3.63-3.55-8.12-3.55-8.12,1.59-8.12,3.55,3.63,3.55,8.12,3.55Z"/>
      <path class="cls-1" d="M95.15,90.56c4.48,0,8.12-1.59,8.12-3.55s-3.63-3.55-8.12-3.55-8.12,1.59-8.12,3.55,3.63,3.55,8.12,3.55Z"/>
      <path class="cls-1" d="M62.44,78.95c-.33,0-.64-.13-.87-.36s-.36-.55-.36-.87c-.03-1.29-.57-2.52-1.49-3.42-.92-.9-2.16-1.41-3.44-1.41s-2.52.51-3.44,1.41-1.45,2.13-1.49,3.42c0,.33-.13.64-.36.87s-.54.36-.87.36-.64-.13-.87-.36-.36-.55-.36-.87c.04-1.94.83-3.79,2.22-5.15,1.38-1.36,3.24-2.12,5.17-2.12s3.79.76,5.17,2.12c1.38,1.36,2.18,3.21,2.22,5.15,0,.33-.13.64-.36.87s-.54.36-.87.36Z"/>
      <path class="cls-1" d="M101.06,78.95c-.33,0-.64-.13-.87-.36s-.36-.55-.36-.87c-.03-1.29-.57-2.52-1.49-3.42s-2.16-1.41-3.44-1.41-2.52.51-3.44,1.41c-.92.9-1.45,2.13-1.49,3.42,0,.33-.13.64-.36.87s-.54.36-.87.36-.64-.13-.87-.36-.36-.55-.36-.87c.04-1.94.83-3.79,2.22-5.15,1.38-1.36,3.24-2.12,5.17-2.12s3.79.76,5.17,2.12,2.18,3.21,2.22,5.15c0,.33-.13.64-.36.87s-.54.36-.87.36h0Z"/>
      <path class="cls-1" d="M82.12,87.37c0,3-2.92,5.44-6.53,5.44s-6.52-2.44-6.52-5.44,13.05-3,13.05,0Z"/>
      <path class="cls-3" d="M91.75,138.1h-7.1v54.06h7.1v-54.06Z"/>
      <path class="cls-1" d="M83.88,126.7l.14,11.48,7.72-.08-.14-11.47c-.04-1.01-.46-1.97-1.19-2.67s-1.7-1.09-2.7-1.08c-1.01,0-1.97.41-2.69,1.12s-1.13,1.68-1.14,2.69h0Z"/>
      <path class="cls-3" d="M59.45,192.17h7.1v-54.06h-7.1v54.06Z"/>
      <path class="cls-1" d="M67.31,126.7l-.14,11.48-7.72-.08.14-11.47c.04-1.01.46-1.97,1.19-2.67s1.7-1.09,2.7-1.08c1.01,0,1.97.41,2.69,1.12s1.13,1.68,1.14,2.69h0Z"/>
    </g>
  </g>
</svg>