<?xml version="1.0" encoding="UTF-8"?>
<svg id="Camada_18" data-name="Camada 18" xmlns="http://www.w3.org/2000/svg" xmlns:xlink="http://www.w3.org/1999/xlink" viewBox="0 0 150.01 209.63">
  <defs>
    <style>
      .cls-1 {
        fill: #0e7d70;
      }

      .cls-1, .cls-2, .cls-3 {
        stroke-width: 0px;
      }

      .cls-2 {
        fill: #81d916;
      }

      .cls-3 {
        fill: none;
      }

      .cls-4 {
        clip-path: url(#clippath);
      }
    </style>
    <clipPath id="clippath">
      <rect class="cls-3" y="0" width="150" height="150" rx="27.4" ry="27.4"/>
    </clipPath>
  </defs>
  <g class="cls-4">
    <g>
      <path class="cls-1" d="M104.33,84.96c13.14-13.14,10.66-36.92-5.53-53.11-16.19-16.19-39.97-18.67-53.11-5.53-13.14,13.14-10.66,36.92,5.53,53.11,16.19,16.19,39.97,18.67,53.11,5.53Z"/>
      <path class="cls-1" d="M123.27,19.87l-5.4-5.4c-4.54-4.51-10.68-7.05-17.08-7.05s-12.54,2.53-17.08,7.05l-22.4,22.39,43.17,35.98,18.8-18.8c4.51-4.54,7.05-10.68,7.05-17.08s-2.53-12.54-7.05-17.08h0Z"/>
      <path class="cls-1" d="M101.74,96.01c14.92-14.92,14.92-39.11,0-54.03-14.92-14.92-39.11-14.92-54.03,0-14.92,14.92-14.92,39.11,0,54.03s39.11,14.92,54.03,0Z"/>
      <path class="cls-2" d="M45.87,94.95c3.58-3.58,3.58-9.38,0-12.96s-9.38-3.58-12.96,0c-3.58,3.58-3.58,9.38,0,12.96,3.58,3.58,9.38,3.58,12.96,0Z"/>
      <path class="cls-2" d="M116.08,94.95c3.58-3.58,3.58-9.38,0-12.96s-9.38-3.58-12.96,0-3.58,9.38,0,12.96,9.38,3.58,12.96,0Z"/>
      <path class="cls-2" d="M75.77,48h-2.55c-18.53,0-33.55,15.02-33.55,33.55v9.69c0,18.53,15.02,33.55,33.55,33.55h2.55c18.53,0,33.55-15.02,33.55-33.55v-9.69c0-18.53-15.02-33.55-33.55-33.55Z"/>
      <path class="cls-1" d="M74.5,59.7c10.32,0,18.68-3.36,18.68-7.5s-8.36-7.5-18.68-7.5-18.68,3.36-18.68,7.5,8.36,7.5,18.68,7.5Z"/>
      <path class="cls-1" d="M61.51,86.77c.34-2.09-1.08-4.07-3.18-4.41-2.09-.34-4.07,1.08-4.41,3.18-.34,2.09,1.08,4.07,3.18,4.41,2.09.34,4.07-1.08,4.41-3.18Z"/>
      <path class="cls-1" d="M94.36,87.06c.5-2.06-.77-4.14-2.83-4.64-2.06-.5-4.14.77-4.64,2.83-.5,2.06.77,4.14,2.83,4.64,2.06.5,4.14-.77,4.64-2.83Z"/>
      <path class="cls-1" d="M53.22,93.7s9.38,10.22,20.95,10.22,20.96-10.22,20.96-10.22c0,0-41.91,0-41.91,0Z"/>
      <path class="cls-1" d="M84.61,133.14h-20.22c-1.79,0-3.57.35-5.23,1.04-1.66.69-3.16,1.69-4.43,2.96s-2.27,2.77-2.96,4.43c-.69,1.66-1.04,3.43-1.04,5.23v8.67h7.98v22.32h39.55v-30.99c0-1.79-.35-3.57-1.04-5.23-.69-1.66-1.69-3.16-2.96-4.43-1.27-1.27-2.77-2.27-4.43-2.96s-3.43-1.04-5.23-1.04h.01Z"/>
      <path class="cls-2" d="M66.09,111.97h16.8v22.48c0,2.23-.89,4.37-2.46,5.94-1.58,1.58-3.71,2.46-5.94,2.46s-4.36-.89-5.94-2.46-2.46-3.71-2.46-5.94v-22.48h0Z"/>
    </g>
  </g>
</svg>