<?xml version="1.0" encoding="UTF-8"?>
<svg id="Camada_1" data-name="Camada 1" xmlns="http://www.w3.org/2000/svg" xmlns:xlink="http://www.w3.org/1999/xlink" viewBox="0 0 150.01 209.63">
  <defs>
    <style>
      .cls-1 {
        fill: #0e7d70;
      }

      .cls-1, .cls-2, .cls-3 {
        stroke-width: 0px;
      }

      .cls-2 {
        fill: #81d916;
      }

      .cls-3 {
        fill: none;
      }

      .cls-4 {
        clip-path: url(#clippath);
      }
    </style>
    <clipPath id="clippath">
      <rect class="cls-3" y="0" width="150" height="150"/>
    </clipPath>
  </defs>
  <g class="cls-4">
    <g>
      <path class="cls-1" d="M42.24,86.1c.4-3.98-2.51-7.52-6.49-7.92-3.98-.4-7.52,2.51-7.92,6.49-.4,3.98,2.51,7.52,6.49,7.92,3.98.4,7.52-2.51,7.92-6.49Z"/>
      <path class="cls-1" d="M121.97,90.51c2.83-2.83,2.83-7.41,0-10.24-2.83-2.83-7.41-2.83-10.24,0-2.83,2.83-2.83,7.41,0,10.24,2.83,2.83,7.41,2.83,10.24,0Z"/>
      <path class="cls-2" d="M75.95,146.94c-23.97,0-43.47-19.5-43.47-43.47v-44.55c0-23.97,19.5-43.47,43.47-43.47s43.47,19.5,43.47,43.47v44.55c0,23.97-19.5,43.47-43.47,43.47Z"/>
      <path class="cls-1" d="M44.45,171.79l-6.39-4.34,23.95-35.33c.58-.85,1.46-1.43,2.47-1.62,1.01-.19,2.05.02,2.89.6.42.28.78.65,1.06,1.07.28.42.47.9.57,1.4.1.5.09,1.01,0,1.51-.1.5-.3.97-.59,1.39l-23.95,35.33Z"/>
      <path class="cls-2" d="M61.9,146.2l6.5-9.72c.58-.85.79-1.89.6-2.9-.19-1.01-.78-1.9-1.62-2.47-.85-.58-1.89-.79-2.9-.6-1.01.19-1.9.78-2.47,1.62l-.1,14.07Z"/>
      <path class="cls-1" d="M108.79,171.79l6.39-4.34-24.58-35.15c-.28-.42-.65-.78-1.07-1.06-.42-.28-.9-.47-1.4-.57-.5-.1-1.01-.09-1.51,0-.5.1-.97.3-1.39.59-.42.28-.78.65-1.06,1.07-.28.42-.47.9-.57,1.4-.1.5-.09,1.01.01,1.51.1.5.3.97.59,1.39l24.58,35.15Z"/>
      <path class="cls-1" d="M75.95,18.72h0c-22.2,0-40.19,17.99-40.19,40.19v20.08c0,22.2,17.99,40.19,40.19,40.19h0c22.2,0,40.19-17.99,40.19-40.19v-20.08c0-22.2-17.99-40.19-40.19-40.19Z"/>
      <path class="cls-2" d="M119.42,67.82v-8.1c0-25.05-20.8-45.56-45.82-44.22-22.88,1.21-41.12,20.23-41.12,43.41v9.47s59.83-.3,59.83-.3l4.88-10.86,7.06,10.7,14.97-.07s.2.1.2-.02Z"/>
      <path class="cls-1" d="M52.12,87.51c0,11.47,10.66,20.77,23.82,20.77s23.81-9.3,23.81-20.77h-47.63Z"/>
      <path class="cls-2" d="M61.88,82.89c-.8,0-1.57-.32-2.14-.89-.57-.57-.89-1.34-.89-2.14v-2.45c0-.8.32-1.57.89-2.14.57-.57,1.34-.89,2.14-.89.8,0,1.57.32,2.14.89.57.57.89,1.34.89,2.14v2.45c0,.8-.32,1.57-.89,2.14-.57.57-1.34.89-2.14.89Z"/>
      <path class="cls-2" d="M89.27,82.89c-.8,0-1.57-.32-2.14-.89-.57-.57-.89-1.34-.89-2.14v-2.45c0-.8.32-1.57.89-2.14.57-.57,1.34-.89,2.14-.89.8,0,1.57.32,2.14.89.57.57.89,1.34.89,2.14v2.45c0,.8-.32,1.57-.89,2.14-.57.57-1.34.89-2.14.89Z"/>
      <path class="cls-2" d="M69.45,128.35h13.64c2.44,0,4.79.97,6.52,2.7,1.73,1.73,2.7,4.07,2.7,6.52v20.91h-32.07v-20.91c0-1.21.24-2.41.7-3.53.46-1.12,1.14-2.13,2-2.99.86-.85,1.87-1.53,2.99-2,1.12-.46,2.32-.7,3.53-.7Z"/>
      <path class="cls-1" d="M67.81,110.84h17.08v16.55c0,2.26-.9,4.43-2.5,6.03-1.6,1.6-3.77,2.5-6.03,2.5-1.12,0-2.23-.22-3.27-.65-1.04-.43-1.98-1.06-2.77-1.85s-1.42-1.73-1.85-2.77c-.43-1.04-.65-2.15-.65-3.27v-16.55h-.02Z"/>
    </g>
  </g>
</svg>