<?xml version="1.0" encoding="UTF-8"?>
<svg id="Camada_2" data-name="Camada 2" xmlns="http://www.w3.org/2000/svg" xmlns:xlink="http://www.w3.org/1999/xlink" viewBox="0 0 150.01 209.63">
  <defs>
    <style>
      .cls-1 {
        fill: #0e7d70;
      }

      .cls-1, .cls-2, .cls-3 {
        stroke-width: 0px;
      }

      .cls-2 {
        fill: #81d916;
      }

      .cls-3 {
        fill: none;
      }

      .cls-4 {
        clip-path: url(#clippath);
      }
    </style>
    <clipPath id="clippath">
      <rect class="cls-3" y="0" width="150" height="150"/>
    </clipPath>
  </defs>
  <g class="cls-4">
    <g>
      <path class="cls-1" d="M82.15,117.64h-15.37v28.24h15.37v-28.24Z"/>
      <path class="cls-1" d="M68.25,133.4h12.28c2.2,0,4.31.87,5.86,2.43,1.56,1.56,2.43,3.66,2.43,5.86v18.82h-28.87v-18.82c0-2.2.87-4.31,2.43-5.86,1.56-1.56,3.67-2.43,5.86-2.43Z"/>
      <path class="cls-1" d="M101.71,83.39c15.16-15.16,15.16-39.74,0-54.9-15.16-15.16-39.74-15.16-54.9,0-15.16,15.16-15.16,39.74,0,54.9,15.16,15.16,39.74,15.16,54.9,0Z"/>
      <path class="cls-1" d="M44.32,72.61c1.83-3.25.68-7.37-2.57-9.2-3.25-1.83-7.37-.68-9.2,2.57-1.83,3.25-.68,7.37,2.57,9.2s7.37.68,9.2-2.57Z"/>
      <path class="cls-1" d="M36.63,62.53c3.72-.32,6.47-3.6,6.15-7.31-.32-3.72-3.6-6.47-7.31-6.15-3.72.32-6.47,3.6-6.15,7.31.32,3.72,3.6,6.47,7.31,6.15Z"/>
      <path class="cls-1" d="M43.16,47.76c2.83-2.43,3.16-6.69.73-9.52-2.43-2.83-6.69-3.16-9.52-.73-2.83,2.43-3.16,6.69-.73,9.52s6.69,3.16,9.52.73Z"/>
      <path class="cls-1" d="M45.5,37.92c3.73,0,6.75-3.02,6.75-6.75s-3.02-6.75-6.75-6.75-6.75,3.02-6.75,6.75,3.02,6.75,6.75,6.75Z"/>
      <path class="cls-1" d="M60.71,26.67c2.41-2.85,2.06-7.11-.79-9.52-2.85-2.41-7.11-2.06-9.52.79-2.41,2.85-2.06,7.11.79,9.52,2.85,2.41,7.11,2.06,9.52-.79Z"/>
      <path class="cls-1" d="M75,17.05c.08,1.33-.25,2.66-.93,3.81s-1.68,2.07-2.89,2.65c-1.2.58-2.55.79-3.87.6-1.32-.19-2.56-.76-3.56-1.65-1-.89-1.71-2.05-2.04-3.35-.33-1.29-.28-2.66.16-3.92.44-1.26,1.24-2.36,2.31-3.17,1.07-.8,2.35-1.27,3.68-1.35.89-.05,1.77.07,2.61.37.84.29,1.61.75,2.27,1.34.66.59,1.2,1.31,1.59,2.11.39.8.61,1.67.66,2.55Z"/>
      <path class="cls-1" d="M88.56,17.88c.09-3.73-2.87-6.82-6.6-6.91-3.73-.09-6.82,2.87-6.91,6.6-.09,3.73,2.87,6.82,6.6,6.91,3.73.09,6.82-2.87,6.91-6.6Z"/>
      <path class="cls-1" d="M100.17,26.36c2.03-3.13,1.13-7.31-2-9.34-3.13-2.03-7.31-1.13-9.34,2-2.03,3.13-1.13,7.31,2,9.34,3.13,2.03,7.31,1.13,9.34-2Z"/>
      <path class="cls-1" d="M111.34,33.47c1.23-3.52-.63-7.37-4.16-8.6-3.52-1.23-7.37.63-8.6,4.16-1.23,3.52.63,7.37,4.16,8.6,3.52,1.23,7.37-.63,8.6-4.16Z"/>
      <path class="cls-1" d="M117.34,46.69c2.14-3.05,1.41-7.27-1.65-9.41-3.05-2.14-7.26-1.41-9.41,1.65-2.14,3.05-1.41,7.27,1.64,9.41,3.05,2.14,7.27,1.41,9.41-1.65Z"/>
      <path class="cls-1" d="M114.64,62.93c3.73-.12,6.66-3.23,6.54-6.96-.12-3.73-3.23-6.66-6.96-6.54-3.73.12-6.66,3.23-6.54,6.96.12,3.73,3.23,6.66,6.96,6.54Z"/>
      <path class="cls-1" d="M117.17,68.81c.08,1.33-.25,2.66-.92,3.81-.68,1.15-1.68,2.07-2.89,2.65-1.2.58-2.55.79-3.87.6-1.32-.19-2.56-.76-3.56-1.65-1-.89-1.71-2.05-2.04-3.35s-.28-2.66.16-3.92c.44-1.26,1.24-2.36,2.31-3.17s2.35-1.28,3.68-1.35c.89-.05,1.77.07,2.61.37.84.29,1.61.75,2.27,1.34.66.59,1.2,1.31,1.59,2.11.39.8.61,1.67.66,2.55Z"/>
      <path class="cls-1" d="M40.05,86.08c5.07-.82,8.52-5.61,7.7-10.68-.82-5.07-5.61-8.52-10.68-7.7-5.07.82-8.52,5.61-7.7,10.68.82,5.07,5.61,8.52,10.68,7.7Z"/>
      <path class="cls-1" d="M116.48,83.47c3.64-3.64,3.64-9.53,0-13.17-3.64-3.64-9.53-3.64-13.17,0-3.64,3.64-3.64,9.53,0,13.17,3.64,3.64,9.53,3.64,13.17,0Z"/>
      <path class="cls-2" d="M75.4,34.61h-2.59c-18.83,0-34.09,15.26-34.09,34.09v21.48c0,18.83,15.26,34.09,34.09,34.09h2.59c18.83,0,34.09-15.26,34.09-34.09v-21.48c0-18.83-15.26-34.09-34.09-34.09Z"/>
      <path class="cls-1" d="M82.15,133.4l-7.68-7.68-7.68,7.68,7.68,7.68,7.68-7.68Z"/>
      <path class="cls-1" d="M74.1,46.5c10.48,0,18.98-3.41,18.98-7.62s-8.5-7.62-18.98-7.62-18.98,3.41-18.98,7.62,8.5,7.62,18.98,7.62Z"/>
      <path class="cls-1" d="M60.84,73.38c0,.77-.23,1.53-.66,2.17-.43.64-1.04,1.14-1.75,1.44-.71.3-1.5.37-2.26.22-.76-.15-1.45-.52-2-1.07-.55-.55-.92-1.24-1.07-2-.15-.76-.07-1.54.22-2.26.3-.71.8-1.32,1.44-1.75.64-.43,1.4-.66,2.17-.66,1.04,0,2.03.41,2.76,1.14.73.73,1.14,1.72,1.14,2.76Z"/>
      <path class="cls-1" d="M94.29,73.38c0,.77-.23,1.53-.66,2.17-.43.64-1.04,1.14-1.75,1.44-.71.3-1.5.37-2.26.22-.76-.15-1.45-.52-2-1.07-.55-.55-.92-1.24-1.07-2-.15-.76-.07-1.54.22-2.26.3-.71.8-1.32,1.44-1.75.64-.43,1.4-.66,2.17-.66.51,0,1.02.1,1.49.3s.9.48,1.27.85c.36.36.65.79.85,1.27.2.47.3.98.3,1.49Z"/>
      <path class="cls-1" d="M60.13,86.2c9.47,16.97,18.79,17.56,27.94,0h-27.94Z"/>
      <path class="cls-1" d="M55.92,178.05h-7.38v-24.44c0-11.79,7.38-20.03,17.94-20.03v7.38c-7.29,0-10.56,6.36-10.56,12.65v24.44Z"/>
      <path class="cls-1" d="M100.55,178.05h-7.38v-24.44c0-6.29-3.26-12.65-10.56-12.65v-7.38c10.56,0,17.94,8.24,17.94,20.03v24.44Z"/>
    </g>
  </g>
</svg>