<?xml version="1.0" encoding="UTF-8"?>
<svg id="Camada_3" data-name="Camada 3" xmlns="http://www.w3.org/2000/svg" xmlns:xlink="http://www.w3.org/1999/xlink" viewBox="0 0 150.01 209.63">
  <defs>
    <style>
      .cls-1 {
        fill: #3ab22c;
      }

      .cls-1, .cls-2, .cls-3 {
        stroke-width: 0px;
      }

      .cls-2 {
        fill: #0e7d70;
      }

      .cls-3 {
        fill: none;
      }

      .cls-4 {
        clip-path: url(#clippath);
      }
    </style>
    <clipPath id="clippath">
      <rect class="cls-3" y="0" width="150" height="150"/>
    </clipPath>
  </defs>
  <g class="cls-4">
    <g>
      <path class="cls-2" d="M104.33,88.83c13.9-13.9,11.28-39.06-5.85-56.19-17.13-17.13-42.29-19.75-56.19-5.85-13.9,13.9-11.28,39.06,5.85,56.19,17.13,17.13,42.29,19.75,56.19,5.85Z"/>
      <path class="cls-2" d="M123.67,17.39l-5.98-5.98c-5.02-4.99-11.82-7.8-18.9-7.8s-13.88,2.8-18.9,7.8l-24.78,24.78,47.76,39.8,20.8-20.8c10.4-10.4,10.4-27.41,0-37.8Z"/>
      <path class="cls-2" d="M113.5,70.29v-2.86c0-19.89-16.28-36.17-36.17-36.17h-4.11c-19.89,0-36.17,16.28-36.17,36.17v2.86h76.45Z"/>
      <path class="cls-1" d="M44.97,72.36c0,1.29-.38,2.55-1.1,3.62-.72,1.07-1.73,1.91-2.92,2.4-1.19.49-2.5.62-3.76.37-1.26-.25-2.42-.87-3.34-1.78-.91-.91-1.53-2.07-1.78-3.34-.25-1.26-.12-2.57.37-3.76.49-1.19,1.33-2.21,2.4-2.92,1.07-.72,2.33-1.1,3.62-1.1,1.73,0,3.39.69,4.61,1.91,1.22,1.22,1.91,2.88,1.91,4.61Z"/>
      <path class="cls-1" d="M118.61,72.36c0,1.29-.38,2.55-1.1,3.62-.72,1.07-1.73,1.91-2.93,2.4-1.19.49-2.5.62-3.77.37-1.26-.25-2.43-.87-3.34-1.78-.91-.91-1.53-2.07-1.78-3.34s-.12-2.58.37-3.77c.49-1.19,1.33-2.21,2.4-2.93,1.07-.72,2.33-1.1,3.62-1.1,1.73,0,3.38.69,4.61,1.91,1.22,1.22,1.91,2.88,1.91,4.61Z"/>
      <path class="cls-1" d="M111.44,69.99c0-19.98-16.19-36.17-36.17-36.17s-36.17,16.19-36.17,36.17v18.07c0,19.98,16.19,36.17,36.17,36.17s36.17-16.19,36.17-36.17v-18.07Z"/>
      <path class="cls-1" d="M75.64,139.31c-1.01,0-2.01-.2-2.94-.58-.93-.39-1.78-.95-2.49-1.67s-1.28-1.56-1.67-2.49c-.39-.93-.58-1.93-.58-2.94v-14.89h15.38v14.89c0,1.01-.2,2.01-.59,2.94-.39.93-.95,1.78-1.67,2.49-.71.71-1.56,1.28-2.5,1.66-.93.39-1.93.58-2.95.58Z"/>
      <path class="cls-1" d="M47.46,178.17c-.98,0-1.92-.39-2.61-1.08-.69-.69-1.08-1.63-1.08-2.61v-16.5c0-6.38,2.55-12.5,7.06-17.01,4.51-4.51,10.63-7.05,17.01-7.06.98,0,1.92.39,2.61,1.08.69.69,1.08,1.63,1.08,2.61s-.39,1.92-1.08,2.61c-.69.69-1.63,1.08-2.61,1.08-4.42,0-8.67,1.76-11.79,4.89-3.13,3.13-4.89,7.37-4.89,11.8v16.5c0,.98-.39,1.92-1.08,2.61-.69.69-1.63,1.08-2.61,1.08Z"/>
      <path class="cls-2" d="M51.15,157.98h-7.38c0-6.38,2.55-12.5,7.06-17.01,4.51-4.51,10.63-7.05,17.01-7.06v7.38c-4.42,0-8.67,1.76-11.79,4.89-3.13,3.13-4.89,7.37-4.89,11.8Z"/>
      <path class="cls-1" d="M104.11,178.17c-.98,0-1.92-.39-2.61-1.08-.69-.69-1.08-1.63-1.08-2.61v-16.5c0-4.42-1.77-8.67-4.89-11.79-3.13-3.13-7.37-4.89-11.79-4.89-.98,0-1.92-.39-2.61-1.08-.69-.69-1.08-1.63-1.08-2.61s.39-1.92,1.08-2.61c.69-.69,1.63-1.08,2.61-1.08,6.38,0,12.5,2.54,17.01,7.06,4.51,4.51,7.05,10.63,7.06,17.01v16.5c0,.98-.39,1.92-1.08,2.61-.69.69-1.63,1.08-2.61,1.08Z"/>
      <path class="cls-2" d="M107.81,157.98h-7.38c0-4.42-1.77-8.67-4.89-11.79-3.13-3.13-7.37-4.89-11.79-4.89v-7.38c6.38,0,12.5,2.54,17.01,7.06,4.51,4.51,7.05,10.63,7.06,17.01Z"/>
      <path class="cls-2" d="M85.89,132.97v27.63h-20.57v-27.63c0-1.14.46-2.24,1.27-3.04.81-.81,1.9-1.26,3.05-1.26h11.95c1.14,0,2.24.45,3.05,1.26.81.81,1.26,1.9,1.27,3.04Z"/>
      <path class="cls-1" d="M55.21,77.06c0,10.32,9.6,18.69,21.43,18.69s21.43-8.37,21.43-18.69h-42.87Z"/>
      <path class="cls-2" d="M69.25,70.12c-.72,0-1.42-.29-1.93-.8s-.8-1.21-.8-1.93v-2.21c0-.72.29-1.42.8-1.93.51-.51,1.21-.8,1.93-.8s1.42.29,1.93.8c.51.51.8,1.21.8,1.93v2.21c0,.72-.29,1.42-.8,1.93-.51.51-1.21.8-1.93.8Z"/>
      <path class="cls-2" d="M84.05,70.12c-.72,0-1.42-.29-1.93-.8-.51-.51-.8-1.21-.8-1.93v-2.21c0-.72.29-1.42.8-1.93.51-.51,1.21-.8,1.93-.8s1.42.29,1.93.8c.51.51.8,1.21.8,1.93v2.21c0,.72-.29,1.42-.8,1.93-.51.51-1.21.8-1.93.8Z"/>
    </g>
  </g>
</svg>