<?xml version="1.0" encoding="UTF-8"?>
<svg id="Camada_4" data-name="Camada 4" xmlns="http://www.w3.org/2000/svg" xmlns:xlink="http://www.w3.org/1999/xlink" viewBox="0 0 150.01 209.63">
  <defs>
    <style>
      .cls-1 {
        fill: #3ab22c;
      }

      .cls-1, .cls-2, .cls-3 {
        stroke-width: 0px;
      }

      .cls-2 {
        fill: #0e7d70;
      }

      .cls-3 {
        fill: none;
      }

      .cls-4 {
        clip-path: url(#clippath);
      }
    </style>
    <clipPath id="clippath">
      <rect class="cls-3" y="0" width="150" height="150"/>
    </clipPath>
  </defs>
  <g class="cls-4">
    <g>
      <path class="cls-2" d="M83.31,126.87l-15.32-.02c-1.92.34-3.66,1.34-4.91,2.83-1.25,1.49-1.94,3.38-1.94,5.33v18.82h28.86v-18.82c0-1.92-.67-3.79-1.89-5.27-1.22-1.48-2.92-2.5-4.81-2.87Z"/>
      <path class="cls-1" d="M67.88,140.57h-6.74v27.67h6.74v-27.67Z"/>
      <path class="cls-1" d="M83.27,168.24h6.74v-27.67h-6.74v27.67Z"/>
      <path class="cls-2" d="M105.68,100.44c16.3-16.3,16.3-42.72,0-59.02-16.3-16.3-42.72-16.3-59.02,0-16.3,16.3-16.3,42.72,0,59.02,16.3,16.3,42.72,16.3,59.02,0Z"/>
      <path class="cls-1" d="M102.77,108c14.69-14.69,14.69-38.52,0-53.21-14.69-14.69-38.52-14.69-53.21,0-14.69,14.69-14.69,38.52,0,53.21,14.69,14.69,38.52,14.69,53.21,0Z"/>
      <path class="cls-1" d="M67.97,126.89v-8.25c0-1.01.2-2.01.58-2.94.39-.93.95-1.78,1.67-2.49.71-.71,1.56-1.28,2.49-1.67.93-.39,1.93-.59,2.94-.59s2.01.2,2.94.58c.93.39,1.78.95,2.49,1.67.71.71,1.28,1.56,1.67,2.49.39.93.58,1.93.58,2.94v8.25l-7.9,4.68-7.47-4.68Z"/>
      <path class="cls-2" d="M58.28,91.26c2.37,0,4.3-1.93,4.3-4.3s-1.93-4.3-4.3-4.3-4.3,1.93-4.3,4.3,1.93,4.3,4.3,4.3Z"/>
      <path class="cls-2" d="M92.3,91.26c2.37,0,4.3-1.93,4.3-4.3s-1.93-4.3-4.3-4.3-4.3,1.93-4.3,4.3,1.93,4.3,4.3,4.3Z"/>
      <path class="cls-2" d="M67.58,92.41c1.21,8.51,4.15,14.52,7.58,14.52s6.38-6.02,7.58-14.52h-15.15Z"/>
      <path class="cls-2" d="M79.07,36.03c9.88-1.6,16.6-10.92,14.99-20.8-1.6-9.88-10.92-16.6-20.8-14.99-9.88,1.6-16.6,10.92-14.99,20.8,1.6,9.88,10.92,16.6,20.8,14.99Z"/>
      <path class="cls-2" d="M78.56,76.61c18.7,0,33.86-8.34,33.86-18.62s-15.16-18.62-33.86-18.62-33.86,8.34-33.86,18.62,15.16,18.62,33.86,18.62Z"/>
      <path class="cls-2" d="M114.48,52.66h-33.18c-6.61,0-11.97,5.36-11.97,11.97s5.36,11.97,11.97,11.97h33.18c6.61,0,11.97-5.36,11.97-11.97s-5.36-11.97-11.97-11.97Z"/>
      <path class="cls-2" d="M57.62,100.03c4.03,0,7.31-1.42,7.31-3.18s-3.27-3.18-7.31-3.18-7.31,1.42-7.31,3.18,3.27,3.18,7.31,3.18Z"/>
      <path class="cls-2" d="M92.83,100.03c4.04,0,7.31-1.42,7.31-3.18s-3.27-3.18-7.31-3.18-7.31,1.42-7.31,3.18,3.27,3.18,7.31,3.18Z"/>
    </g>
  </g>
</svg>