<?xml version="1.0" encoding="UTF-8"?>
<svg id="Camada_5" data-name="Camada 5" xmlns="http://www.w3.org/2000/svg" xmlns:xlink="http://www.w3.org/1999/xlink" viewBox="0 0 150.01 209.63">
  <defs>
    <style>
      .cls-1 {
        fill: #3ab22c;
      }

      .cls-1, .cls-2, .cls-3 {
        stroke-width: 0px;
      }

      .cls-2 {
        fill: #0e7d70;
      }

      .cls-3 {
        fill: none;
      }

      .cls-4 {
        clip-path: url(#clippath);
      }
    </style>
    <clipPath id="clippath">
      <rect class="cls-3" x=".01" y="0" width="150" height="150"/>
    </clipPath>
  </defs>
  <g class="cls-4">
    <g>
      <path class="cls-2" d="M51,27.38h0c-7.23,0-13.1,5.86-13.1,13.1v50.76c0,7.23,5.86,13.1,13.1,13.1h0c7.23,0,13.1-5.86,13.1-13.1v-50.76c0-7.23-5.86-13.1-13.1-13.1Z"/>
      <path class="cls-2" d="M112.05,32.92c0-15.43-12.51-27.93-27.93-27.93s-27.93,12.51-27.93,27.93v51.47c0,15.43,12.51,27.93,27.93,27.93s27.93-12.51,27.93-27.93v-51.47Z"/>
      <path class="cls-1" d="M35.99,102.43c5.14,0,9.31-4.17,9.31-9.31s-4.17-9.31-9.31-9.31-9.31,4.17-9.31,9.31,4.17,9.31,9.31,9.31Z"/>
      <path class="cls-1" d="M113.8,102.43c5.14,0,9.31-4.17,9.31-9.31s-4.17-9.31-9.31-9.31-9.31,4.17-9.31,9.31,4.17,9.31,9.31,9.31Z"/>
      <path class="cls-1" d="M82.94,116.02h-15.37v28.24h15.37v-28.24Z"/>
      <path class="cls-2" d="M69.04,131.79h12.28c2.2,0,4.31.87,5.86,2.43,1.56,1.56,2.43,3.67,2.43,5.87v18.82h-28.87v-18.82c0-2.2.87-4.31,2.43-5.87,1.56-1.55,3.67-2.43,5.86-2.43Z"/>
      <path class="cls-1" d="M74.9,122.65c20.53,0,37.17-18.69,37.17-41.76s-16.64-41.76-37.17-41.76-37.17,18.7-37.17,41.76,16.64,41.76,37.17,41.76Z"/>
      <path class="cls-2" d="M74.54,98.79c-3.46,0-6.85-.91-9.84-2.64-.58-.33-1.08-.77-1.49-1.29-.41-.53-.7-1.13-.88-1.77-.17-.64-.22-1.31-.13-1.97.09-.66.31-1.29.64-1.86.34-.57.78-1.07,1.31-1.47.53-.4,1.14-.69,1.78-.85.64-.16,1.31-.2,1.97-.1.66.1,1.29.32,1.86.67,3.21,1.88,6.87,1.42,8.28.36.53-.39,1.13-.68,1.76-.85.64-.16,1.3-.2,1.95-.11s1.28.31,1.84.65c.57.34,1.06.78,1.46,1.31.39.53.68,1.13.85,1.76.16.64.2,1.3.11,1.95-.09.65-.31,1.28-.65,1.84-.34.57-.78,1.06-1.31,1.46-2.58,1.93-5.99,2.91-9.52,2.91Z"/>
      <path class="cls-1" d="M68.06,142.77h-7.31v40.83h7.31v-40.83Z"/>
      <path class="cls-1" d="M82.31,183.6h7.31v-40.83h-7.31v40.83Z"/>
      <path class="cls-2" d="M63.24,60.92l-5.2,1.91c-.61.22-1.28.19-1.86-.08-.59-.27-1.04-.76-1.27-1.37-.22-.61-.19-1.28.08-1.87.27-.59.77-1.04,1.38-1.26l5.19-1.92c.61-.22,1.28-.19,1.86.08.59.27,1.04.76,1.27,1.37.22.61.19,1.28-.08,1.87-.27.59-.77,1.04-1.37,1.26Z"/>
      <path class="cls-2" d="M87.22,60.92l5.19,1.91c.61.22,1.28.19,1.86-.08.59-.27,1.04-.76,1.27-1.37.22-.61.19-1.28-.08-1.86-.27-.59-.76-1.04-1.37-1.27l-5.19-1.92c-.61-.22-1.28-.2-1.87.07-.59.27-1.04.76-1.27,1.37-.22.61-.19,1.28.08,1.86.27.59.77,1.04,1.37,1.27Z"/>
      <path class="cls-2" d="M69.18,78.95c-.15,0-.29-.03-.42-.08-.13-.06-.26-.14-.36-.24-.1-.1-.18-.22-.24-.36-.06-.13-.08-.28-.08-.42,0-2.19-.87-4.3-2.42-5.85-1.55-1.55-3.65-2.42-5.85-2.42s-4.3.87-5.85,2.42c-1.55,1.55-2.42,3.65-2.42,5.85-.01.28-.14.55-.34.75-.21.2-.48.3-.76.3s-.56-.11-.76-.3c-.21-.2-.33-.46-.34-.75-.02-1.39.23-2.77.75-4.07.52-1.29,1.28-2.47,2.26-3.46.98-.99,2.14-1.78,3.42-2.32,1.28-.54,2.66-.82,4.05-.82s2.77.28,4.05.82c1.28.54,2.45,1.33,3.42,2.32.98.99,1.74,2.17,2.26,3.46.52,1.29.77,2.68.75,4.07,0,.15-.03.29-.08.42-.06.13-.14.26-.24.36s-.22.18-.36.24c-.13.06-.28.08-.42.08Z"/>
      <path class="cls-2" d="M98.19,78.95c-.15,0-.29-.03-.42-.08-.13-.06-.26-.14-.36-.24-.1-.1-.18-.22-.24-.36-.06-.13-.08-.28-.08-.42,0-1.09-.21-2.16-.63-3.16-.42-1-1.02-1.91-1.79-2.68s-1.68-1.38-2.68-1.79c-1-.42-2.08-.63-3.16-.63s-2.16.21-3.16.63c-1,.42-1.92,1.02-2.68,1.79-.77.77-1.38,1.68-1.79,2.68-.42,1-.63,2.08-.63,3.16-.01.28-.14.55-.34.75-.21.2-.48.3-.76.3s-.56-.11-.76-.3c-.21-.2-.33-.46-.34-.75-.02-1.39.23-2.77.75-4.07.52-1.29,1.28-2.47,2.26-3.46.98-.99,2.14-1.78,3.42-2.32,1.28-.54,2.66-.82,4.05-.82s2.77.28,4.05.82c1.28.54,2.45,1.33,3.42,2.32.98.99,1.74,2.17,2.26,3.46.52,1.29.77,2.68.75,4.07,0,.15-.03.29-.08.42-.06.13-.14.26-.24.36-.1.1-.22.18-.36.24-.13.06-.28.08-.42.08Z"/>
    </g>
  </g>
</svg>